{"glyphs":{"0":{"ha":767,"x_min":76,"x_max":690,"o":"m 690 232 q 675 135 690 179 q 624 57 660 90 q 530 5 589 24 q 383 -14 471 -14 q 237 5 296 -14 q 142 57 178 24 q 92 135 107 90 q 76 232 76 179 l 76 665 q 92 762 76 717 q 142 840 107 807 q 237 892 178 874 q 383 911 296 911 q 530 892 471 911 q 624 840 589 874 q 675 762 660 807 q 690 665 690 717 l 690 232 m 276 260 q 297 184 276 207 q 383 161 318 161 q 469 184 449 161 q 490 260 490 207 l 490 638 q 469 713 490 689 q 383 736 449 736 q 297 713 318 736 q 276 638 276 689 l 276 260 z "},"1":{"ha":540,"x_min":0,"x_max":443,"o":"m 243 0 l 243 665 l 86 581 l 0 746 l 263 897 l 443 897 l 443 0 l 243 0 z "},"2":{"ha":699,"x_min":56,"x_max":629,"o":"m 493 347 q 409 247 443 286 q 344 175 375 207 l 629 175 l 629 0 l 68 0 l 68 171 q 130 235 106 210 q 175 281 154 260 q 217 326 196 303 q 269 385 238 349 q 351 477 321 443 q 396 536 381 511 q 416 584 411 561 q 421 643 421 607 l 421 668 q 395 719 421 704 q 311 733 369 733 q 256 731 286 733 q 194 726 225 729 q 133 717 163 722 q 82 707 104 713 l 56 875 q 190 901 121 892 q 321 911 260 911 q 551 859 482 911 q 621 693 621 807 l 621 657 q 619 574 621 607 q 604 510 617 542 q 566 442 592 479 q 493 347 540 404 z "},"3":{"ha":676,"x_min":63,"x_max":607,"o":"m 276 535 q 367 555 343 535 q 390 621 390 575 l 390 678 q 367 735 390 721 q 278 749 343 749 q 185 744 232 749 q 86 729 139 739 l 65 886 q 179 905 125 899 q 296 911 233 911 q 440 898 383 911 q 531 859 497 885 q 577 794 564 833 q 590 703 590 754 l 590 638 q 568 529 590 575 q 497 453 546 483 q 581 388 556 426 q 607 282 607 349 l 607 211 q 593 118 607 160 q 544 47 579 76 q 447 2 508 18 q 290 -14 385 -14 q 172 -8 226 -14 q 63 17 117 -1 l 83 171 q 178 157 135 161 q 283 153 222 153 q 381 169 356 153 q 407 226 407 186 l 407 290 q 306 364 407 364 l 122 364 l 122 535 l 276 535 z "},"4":{"ha":781,"x_min":21,"x_max":739,"o":"m 626 190 l 626 0 l 429 0 l 429 190 l 21 190 l 21 364 l 364 897 l 626 897 l 626 353 l 739 353 l 739 190 l 626 190 m 429 699 l 217 353 l 429 353 l 429 699 z "},"5":{"ha":692,"x_min":69,"x_max":629,"o":"m 429 282 q 425 321 429 306 q 410 345 421 336 q 378 359 399 354 q 324 365 357 364 q 258 368 286 367 q 204 370 229 369 q 155 372 179 371 q 103 372 131 372 l 103 897 l 610 897 l 610 724 l 303 724 l 303 535 q 335 534 321 535 q 363 533 349 533 q 393 531 378 532 q 428 529 408 531 q 526 510 488 525 q 588 468 565 494 q 620 408 611 442 q 629 332 629 374 l 629 233 q 615 128 629 174 q 567 51 601 82 q 472 3 532 19 q 317 -14 411 -14 q 263 -12 293 -14 q 199 -6 232 -10 q 132 6 165 -1 q 69 21 99 13 l 99 182 q 208 165 151 171 q 315 160 265 160 q 408 180 386 160 q 429 244 429 200 l 429 282 l 429 282 z "},"6":{"ha":719,"x_min":69,"x_max":657,"o":"m 363 -14 q 215 8 272 -14 q 126 65 158 29 q 81 151 93 101 q 69 254 69 200 l 69 593 q 100 749 69 688 q 187 846 131 810 q 322 897 243 882 q 496 911 400 911 q 563 908 526 911 q 632 900 599 906 l 618 736 q 567 741 596 739 q 524 743 539 743 q 406 736 454 743 q 326 712 357 729 q 283 666 296 694 q 269 594 269 638 l 269 526 q 343 542 307 538 q 422 547 379 547 q 598 493 539 547 q 657 314 657 439 l 657 254 q 644 153 657 201 q 599 68 632 106 q 510 8 567 31 q 363 -14 453 -14 m 363 158 q 437 179 417 158 q 457 244 457 200 l 457 306 q 437 362 457 349 q 389 375 417 375 q 324 368 354 375 q 269 350 294 361 l 269 244 q 289 177 269 196 q 363 158 308 158 z "},"7":{"ha":635,"x_min":28,"x_max":607,"o":"m 308 0 l 103 0 l 399 721 l 28 721 l 28 897 l 607 897 l 607 728 l 308 0 z "},"8":{"ha":742,"x_min":69,"x_max":672,"o":"m 69 293 q 94 382 69 343 q 186 457 118 421 q 112 529 132 493 q 92 613 92 565 l 92 690 q 106 784 92 743 q 153 853 121 825 q 240 897 186 882 q 371 911 293 911 q 502 897 449 911 q 588 853 556 882 q 635 784 621 825 q 650 690 650 743 l 650 613 q 630 527 650 563 q 556 457 610 492 q 648 383 624 421 q 672 293 672 344 l 672 222 q 656 114 672 158 q 604 41 640 69 q 511 -1 568 13 q 371 -14 454 -14 q 231 -1 288 -14 q 138 41 174 13 q 85 114 101 69 q 69 222 69 158 l 69 293 m 263 225 q 285 165 263 181 q 371 150 308 150 q 456 167 433 150 q 479 225 479 185 l 479 271 q 476 300 479 288 q 463 324 474 313 q 430 347 453 336 q 368 374 407 358 q 307 347 328 358 q 276 324 286 336 q 264 300 265 313 q 263 271 263 288 l 263 225 m 285 615 q 287 589 285 600 q 298 568 289 578 q 325 549 307 558 q 374 529 343 540 q 421 549 404 540 q 446 568 438 558 q 456 589 454 578 q 457 615 457 600 l 457 682 q 440 732 457 715 q 371 749 424 749 q 301 732 318 749 q 285 682 285 715 l 285 615 z "},"9":{"ha":713,"x_min":56,"x_max":643,"o":"m 350 911 q 497 890 440 911 q 587 832 554 868 q 631 747 619 796 q 643 643 643 697 l 643 304 q 613 149 643 210 q 526 51 582 88 q 391 1 469 15 q 217 -14 313 -14 q 144 -10 182 -14 q 81 -3 107 -7 l 92 161 q 137 156 111 158 q 189 154 163 154 q 383 185 324 154 q 443 303 443 217 l 443 371 q 369 355 406 360 q 290 350 333 350 q 115 404 174 350 q 56 583 56 458 l 56 643 q 68 743 56 694 q 113 829 81 792 q 203 889 146 867 q 350 911 260 911 m 350 739 q 276 718 296 739 q 256 653 256 697 l 256 592 q 276 535 256 549 q 324 522 296 522 q 388 529 358 522 q 443 547 418 536 l 443 653 q 424 720 443 701 q 350 739 404 739 z "},"\u0000":{"ha":0,"x_min":0,"x_max":0,"o":""},"\r":{"ha":292,"x_min":0,"x_max":0,"o":""}," ":{"ha":292,"x_min":0,"x_max":0,"o":""},"#":{"ha":942,"x_min":49,"x_max":879,"o":"m 556 218 l 358 218 l 347 0 l 204 0 l 215 218 l 49 218 l 56 351 l 221 351 l 231 551 l 61 551 l 68 685 l 238 685 l 249 897 l 392 897 l 381 685 l 578 685 l 589 897 l 732 897 l 721 685 l 879 685 l 872 551 l 714 551 l 704 351 l 867 351 l 860 218 l 699 218 l 688 0 l 544 0 l 556 218 m 364 351 l 561 351 l 571 551 l 374 551 l 364 351 z "},"$":{"ha":697,"x_min":63,"x_max":635,"o":"m 265 -11 q 163 3 213 -7 q 63 33 113 14 l 99 196 q 210 169 157 179 q 319 158 264 158 q 378 163 356 158 q 413 179 400 168 q 430 210 425 190 q 435 258 435 229 q 432 306 435 288 q 416 335 429 324 q 376 356 403 347 q 303 374 350 364 q 181 409 226 389 q 110 460 135 429 q 76 538 85 492 q 68 653 68 585 q 79 758 68 713 q 117 834 90 803 q 190 884 144 865 q 301 908 235 903 l 301 1068 l 461 1068 l 461 907 q 541 899 501 904 q 618 883 581 893 l 597 713 q 490 730 550 724 q 368 736 431 736 q 316 733 336 736 q 285 719 296 729 q 272 692 275 710 q 268 649 268 675 q 271 603 268 619 q 287 576 274 586 q 328 557 300 565 q 404 536 356 549 q 535 492 489 515 q 604 438 582 469 q 631 365 626 407 q 635 260 635 322 q 626 154 635 200 q 595 75 618 108 q 531 21 572 42 q 425 -8 490 0 l 425 -168 l 265 -168 l 265 -11 z "},"%":{"ha":1211,"x_min":49,"x_max":1156,"o":"m 494 635 q 484 555 494 592 q 449 491 474 518 q 381 449 424 464 q 272 433 338 433 q 164 449 207 433 q 95 491 121 464 q 59 555 69 518 q 49 635 49 592 l 49 738 q 59 817 49 781 q 95 881 69 854 q 164 924 121 908 q 272 939 207 939 q 381 924 338 939 q 449 881 424 908 q 484 817 474 854 q 494 738 494 781 l 494 635 m 340 749 q 326 793 340 781 q 272 806 311 806 q 218 793 233 806 q 203 749 203 781 l 203 624 q 218 579 203 592 q 272 567 233 567 q 326 579 311 567 q 340 624 340 592 l 340 749 m 724 939 l 846 890 l 474 -14 l 351 36 l 724 939 m 1156 188 q 1145 108 1156 144 q 1110 44 1135 71 q 1042 1 1085 17 q 933 -14 999 -14 q 825 1 868 -14 q 756 44 782 17 q 720 108 731 71 q 710 188 710 144 l 710 290 q 720 370 710 333 q 756 434 731 407 q 825 476 782 461 q 933 492 868 492 q 1042 476 999 492 q 1110 434 1085 461 q 1145 370 1135 407 q 1156 290 1156 333 l 1156 188 m 1001 301 q 987 346 1001 333 q 933 358 972 358 q 879 346 894 358 q 864 301 864 333 l 864 176 q 879 132 864 144 q 933 119 894 119 q 987 132 972 119 q 1001 176 1001 144 l 1001 301 z "},"&":{"ha":897,"x_min":83,"x_max":856,"o":"m 856 376 l 721 376 l 721 36 q 550 -2 639 10 q 378 -14 461 -14 q 242 3 297 -14 q 151 52 186 21 q 99 126 115 83 q 83 217 83 168 l 83 292 q 106 405 83 358 q 190 478 129 451 q 118 553 138 506 q 99 649 99 600 l 99 707 q 114 800 99 757 q 164 874 129 843 q 255 922 199 904 q 393 939 311 939 q 558 929 481 939 q 694 906 636 919 l 669 744 q 533 764 607 757 q 393 771 458 771 q 299 697 299 771 l 299 629 q 315 569 299 593 q 379 544 332 544 l 856 544 l 856 376 m 283 240 q 311 173 283 196 q 385 150 339 150 q 462 153 428 150 q 532 165 496 157 l 532 376 l 393 376 q 314 356 344 376 q 283 292 283 336 l 283 240 z "},"'":{"ha":276,"x_min":69,"x_max":207,"o":"m 69 953 l 207 953 l 207 608 l 69 608 l 69 953 z "},"(":{"ha":453,"x_min":76,"x_max":439,"o":"m 292 -214 q 206 -89 246 -157 q 138 58 167 -21 q 92 228 108 138 q 76 422 76 319 q 92 616 76 525 q 138 786 108 707 q 206 933 167 865 q 292 1058 246 1001 l 439 975 q 372 851 401 913 q 320 724 342 790 q 288 584 299 658 q 276 422 276 510 q 288 260 276 335 q 320 120 299 186 q 372 -7 342 54 q 439 -131 401 -68 l 292 -214 z "},")":{"ha":453,"x_min":14,"x_max":376,"o":"m 14 -131 q 81 -7 51 -68 q 133 120 111 54 q 165 260 154 186 q 176 422 176 335 q 165 584 176 510 q 133 724 154 658 q 81 851 111 790 q 14 975 51 913 l 161 1058 q 247 933 207 1001 q 315 786 286 865 q 360 616 344 707 q 376 422 376 525 q 360 228 376 319 q 315 58 344 138 q 247 -89 286 -21 q 161 -214 207 -157 l 14 -131 z "},"*":{"ha":649,"x_min":56,"x_max":593,"o":"m 236 665 l 56 665 l 56 758 l 239 758 l 139 915 l 217 967 l 324 800 l 431 967 l 508 915 l 407 758 l 593 758 l 593 665 l 411 665 l 508 514 l 429 464 l 324 628 l 218 464 l 139 514 l 236 665 z "},"+":{"ha":718,"x_min":76,"x_max":642,"o":"m 439 261 l 439 56 l 279 56 l 279 261 l 76 261 l 76 414 l 279 414 l 279 621 l 439 621 l 439 414 l 642 414 l 642 261 l 439 261 z "},",":{"ha":379,"x_min":76,"x_max":289,"o":"m 167 -207 l 76 -156 l 156 0 l 89 0 l 89 231 l 289 231 l 289 -14 l 167 -207 z "},"-":{"ha":469,"x_min":56,"x_max":414,"o":"m 56 306 l 56 472 l 414 472 l 414 306 l 56 306 z "},".":{"ha":381,"x_min":90,"x_max":290,"o":"m 90 0 l 90 231 l 290 231 l 290 0 l 90 0 z "},"/":{"ha":642,"x_min":63,"x_max":586,"o":"m 240 -162 l 63 -162 l 408 939 l 586 939 l 240 -162 z "},":":{"ha":381,"x_min":90,"x_max":290,"o":"m 90 0 l 90 231 l 290 231 l 290 0 l 90 0 m 90 404 l 90 635 l 290 635 l 290 404 l 90 404 z "},";":{"ha":379,"x_min":76,"x_max":289,"o":"m 89 404 l 89 635 l 289 635 l 289 404 l 89 404 m 167 -207 l 76 -156 l 156 0 l 89 0 l 89 231 l 289 231 l 289 -14 l 167 -207 z "},"<":{"ha":786,"x_min":42,"x_max":717,"o":"m 42 288 l 42 390 l 657 690 l 717 572 l 228 339 l 717 106 l 657 -14 l 42 288 z "},"=":{"ha":729,"x_min":76,"x_max":653,"o":"m 76 417 l 76 550 l 653 550 l 653 417 l 76 417 m 76 147 l 76 281 l 653 281 l 653 147 l 76 147 z "},">":{"ha":786,"x_min":69,"x_max":744,"o":"m 129 -14 l 69 106 l 558 339 l 69 572 l 129 690 l 744 390 l 744 288 l 129 -14 z "},"?":{"ha":674,"x_min":49,"x_max":611,"o":"m 211 0 l 211 231 l 411 231 l 411 0 l 211 0 m 225 469 q 329 550 292 519 q 385 603 367 581 q 407 644 403 625 q 411 692 411 664 q 385 764 411 739 q 281 789 358 789 q 181 783 233 789 q 76 767 129 776 l 49 939 q 179 960 121 954 q 303 967 238 967 q 456 949 396 967 q 550 897 515 931 q 598 813 585 863 q 611 703 611 764 q 605 597 611 639 q 572 517 599 556 q 490 433 544 479 q 338 317 435 388 l 225 469 z "},"@":{"ha":1003,"x_min":56,"x_max":947,"o":"m 781 32 q 669 -3 732 8 q 551 -14 606 -14 q 347 22 439 -14 q 191 121 256 57 q 91 272 126 185 q 56 463 56 358 q 88 651 56 564 q 180 801 119 738 q 326 902 240 865 q 518 939 411 939 q 701 908 621 939 q 835 824 781 876 q 919 703 890 772 q 947 558 947 635 q 932 444 947 500 q 884 347 917 389 q 801 278 851 304 q 683 251 751 251 q 597 272 635 251 q 544 329 558 293 q 479 302 519 313 q 406 292 439 292 q 331 319 356 292 q 307 396 307 347 q 311 442 307 417 l 332 543 q 388 654 344 615 q 513 693 432 693 q 611 681 565 693 q 704 647 657 668 l 646 372 q 693 360 661 360 q 751 376 726 360 q 791 420 775 393 q 815 483 807 447 q 822 556 822 518 q 804 656 822 607 q 749 742 786 704 q 654 801 711 779 q 518 824 597 824 q 381 797 443 824 q 276 722 319 769 q 208 608 232 674 q 185 463 185 542 q 213 312 185 378 q 290 200 240 246 q 405 130 339 154 q 547 106 471 106 q 648 115 600 106 q 744 139 696 124 l 781 32 m 582 576 q 544 586 569 582 q 501 590 519 590 q 466 577 478 590 q 450 544 454 564 l 428 446 q 432 413 424 425 q 464 400 440 400 q 508 410 482 400 q 547 429 533 421 l 582 576 z "},"A":{"ha":871,"x_min":14,"x_max":857,"o":"m 857 0 l 640 0 l 590 181 l 281 181 l 231 0 l 14 0 l 296 925 l 574 925 l 857 0 m 328 354 l 540 354 l 435 742 l 328 354 z "},"B":{"ha":794,"x_min":90,"x_max":753,"o":"m 753 221 q 688 61 753 122 q 485 0 624 0 l 90 0 l 90 925 l 456 925 q 578 911 528 925 q 660 871 629 897 q 706 807 692 844 q 719 722 719 769 l 719 628 q 696 542 719 578 q 617 482 672 506 q 714 422 675 468 q 753 311 753 376 l 753 221 m 511 692 q 492 740 511 722 q 428 757 472 757 l 299 757 l 299 546 l 428 546 q 490 565 469 546 q 511 611 511 583 l 511 692 m 544 306 q 522 364 544 344 q 457 383 499 383 l 299 383 l 299 168 l 428 168 q 510 183 476 168 q 544 249 544 199 l 544 306 z "},"C":{"ha":724,"x_min":69,"x_max":675,"o":"m 278 303 q 283 249 278 272 q 303 208 289 225 q 343 183 318 192 q 407 175 368 175 q 521 181 457 175 q 646 197 585 186 l 675 15 q 542 -7 606 0 q 407 -14 478 -14 q 256 7 319 -14 q 151 65 192 28 q 90 155 110 103 q 69 269 69 207 l 69 656 q 90 770 69 718 q 151 860 110 822 q 256 918 192 897 q 407 939 319 939 q 542 932 478 939 q 675 910 606 925 l 646 728 q 521 744 585 739 q 407 750 457 750 q 343 742 368 750 q 303 717 318 733 q 283 676 289 700 q 278 622 278 653 l 278 303 z "},"D":{"ha":831,"x_min":90,"x_max":761,"o":"m 761 240 q 744 151 761 194 q 690 74 728 107 q 593 20 653 40 q 449 0 533 0 l 90 0 l 90 925 l 449 925 q 593 905 533 925 q 690 851 653 885 q 744 775 728 818 q 761 685 761 732 l 761 240 m 553 628 q 527 711 553 682 q 424 740 501 740 l 299 740 l 299 185 l 424 185 q 527 214 501 185 q 553 297 553 243 l 553 628 z "},"E":{"ha":742,"x_min":90,"x_max":672,"o":"m 90 0 l 90 925 l 672 925 l 672 740 l 299 740 l 299 571 l 643 571 l 643 386 l 299 386 l 299 185 l 672 185 l 672 0 l 90 0 z "},"F":{"ha":719,"x_min":90,"x_max":678,"o":"m 90 0 l 90 925 l 678 925 l 678 740 l 299 740 l 299 543 l 649 543 l 649 358 l 299 358 l 299 0 l 90 0 z "},"G":{"ha":811,"x_min":69,"x_max":728,"o":"m 728 31 q 570 -3 651 8 q 408 -14 489 -14 q 260 7 324 -14 q 155 65 197 28 q 91 155 113 103 q 69 269 69 207 l 69 656 q 91 772 69 719 q 155 861 113 824 q 260 919 197 899 q 408 939 324 939 q 567 930 489 939 q 704 910 644 921 l 679 728 q 612 736 649 732 q 538 744 575 740 q 467 749 501 747 q 408 750 433 750 q 344 740 369 750 q 303 714 318 731 q 283 674 289 697 q 278 624 278 650 l 278 306 q 283 254 278 278 q 303 213 289 231 q 344 184 318 194 q 408 174 369 174 q 466 175 440 174 q 532 182 492 176 l 532 465 l 728 465 l 728 31 l 728 31 z "},"H":{"ha":896,"x_min":90,"x_max":806,"o":"m 597 0 l 597 372 l 299 372 l 299 0 l 90 0 l 90 925 l 299 925 l 299 557 l 597 557 l 597 925 l 806 925 l 806 0 l 597 0 z "},"I":{"ha":403,"x_min":97,"x_max":306,"o":"m 97 0 l 97 925 l 306 925 l 306 0 l 97 0 z "},"J":{"ha":382,"x_min":-22,"x_max":299,"o":"m -22 -146 q 38 -95 15 -115 q 72 -60 61 -75 q 87 -32 83 -46 q 90 0 90 -18 l 90 925 l 299 925 l 299 -32 q 247 -160 299 -99 q 101 -293 194 -221 l -22 -146 z "},"K":{"ha":857,"x_min":90,"x_max":829,"o":"m 90 925 l 299 925 l 299 0 l 90 0 l 90 925 m 325 472 l 575 925 l 810 925 l 550 472 l 829 0 l 594 0 l 325 472 z "},"L":{"ha":693,"x_min":90,"x_max":665,"o":"m 90 0 l 90 925 l 299 925 l 299 185 l 665 185 l 665 0 l 90 0 z "},"M":{"ha":1092,"x_min":76,"x_max":1015,"o":"m 292 514 l 278 0 l 76 0 l 115 925 l 324 925 l 546 336 l 768 925 l 976 925 l 1015 0 l 814 0 l 800 514 l 639 119 l 453 119 l 292 514 z "},"N":{"ha":939,"x_min":90,"x_max":849,"o":"m 289 608 l 289 0 l 90 0 l 90 925 l 346 925 l 650 288 l 650 925 l 849 925 l 849 0 l 592 0 l 289 608 z "},"O":{"ha":856,"x_min":69,"x_max":786,"o":"m 786 269 q 767 166 786 217 q 705 75 747 115 q 594 10 663 35 q 428 -14 525 -14 q 261 10 329 -14 q 151 75 193 35 q 89 166 108 115 q 69 269 69 217 l 69 656 q 89 759 69 708 q 151 850 108 810 q 261 915 193 890 q 428 939 329 939 q 594 915 525 939 q 705 850 663 890 q 767 759 747 810 q 786 656 786 708 l 786 269 m 578 638 q 542 723 578 692 q 428 754 507 754 q 313 723 349 754 q 278 638 278 692 l 278 288 q 313 202 278 233 q 428 171 349 171 q 542 202 507 171 q 578 288 578 233 l 578 638 z "},"P":{"ha":811,"x_min":90,"x_max":776,"o":"m 776 542 q 701 346 776 411 q 457 281 626 281 l 299 281 l 299 0 l 90 0 l 90 925 l 468 925 q 611 908 553 925 q 706 859 669 892 q 760 777 743 826 q 776 663 776 728 l 776 542 m 568 643 q 545 717 568 693 q 457 740 522 740 l 299 740 l 299 461 l 457 461 q 547 487 525 461 q 568 563 568 513 l 568 643 z "},"Q":{"ha":856,"x_min":69,"x_max":786,"o":"m 367 -11 q 229 23 286 -4 q 137 88 172 50 q 85 174 101 126 q 69 269 69 221 l 69 656 q 89 759 69 708 q 151 850 108 810 q 261 915 193 890 q 428 939 329 939 q 594 915 525 939 q 705 850 663 890 q 767 759 747 810 q 786 656 786 708 l 786 269 q 775 189 786 229 q 739 114 764 149 q 675 51 714 79 q 581 7 636 24 l 654 -165 l 465 -244 l 367 -11 m 578 638 q 542 723 578 692 q 428 754 507 754 q 313 723 349 754 q 278 638 278 692 l 278 288 q 313 202 278 233 q 428 171 349 171 q 542 202 507 171 q 578 288 578 233 l 578 638 z "},"R":{"ha":893,"x_min":90,"x_max":872,"o":"m 421 288 l 299 288 l 299 0 l 90 0 l 90 925 l 475 925 q 618 908 560 925 q 713 859 676 892 q 767 777 750 826 q 783 663 783 728 l 783 549 q 751 403 783 461 q 649 317 719 346 l 872 0 l 625 0 l 421 288 m 575 643 q 551 718 575 696 q 464 740 528 740 l 299 740 l 299 468 l 464 468 q 553 492 531 468 q 575 569 575 517 l 575 643 z "},"S":{"ha":756,"x_min":63,"x_max":700,"o":"m 700 260 q 686 140 700 190 q 635 54 672 89 q 531 3 597 19 q 361 -14 465 -14 q 201 2 281 -14 q 63 46 122 18 l 97 207 q 226 175 161 188 q 364 163 292 163 q 429 167 404 163 q 468 183 454 171 q 487 213 482 194 q 492 261 492 232 q 489 311 492 292 q 471 343 486 331 q 424 365 456 356 q 336 388 393 375 q 202 426 253 406 q 124 477 151 446 q 88 557 97 508 q 79 681 79 606 q 93 799 79 750 q 143 878 107 847 q 241 924 179 910 q 399 939 303 939 q 531 932 460 939 q 679 908 601 925 l 658 733 q 522 753 579 747 q 401 760 464 760 q 344 756 367 760 q 310 743 322 753 q 292 717 297 733 q 288 675 288 700 q 290 623 288 642 q 308 592 293 604 q 353 572 322 581 q 438 550 383 563 q 583 505 531 528 q 663 451 636 482 q 694 374 689 419 q 700 260 700 328 z "},"T":{"ha":739,"x_min":17,"x_max":722,"o":"m 474 740 l 474 0 l 265 0 l 265 740 l 17 740 l 17 925 l 722 925 l 722 740 l 474 740 z "},"U":{"ha":864,"x_min":83,"x_max":781,"o":"m 781 925 l 781 269 q 763 166 781 217 q 704 75 744 115 q 597 10 664 35 q 432 -14 529 -14 q 267 10 333 -14 q 160 75 200 35 q 101 166 119 115 q 83 269 83 217 l 83 925 l 292 925 l 292 289 q 322 201 292 232 q 432 171 353 171 q 542 201 511 171 q 572 289 572 232 l 572 925 l 781 925 z "},"V":{"ha":819,"x_min":0,"x_max":819,"o":"m 558 0 l 261 0 l 0 925 l 214 925 l 410 189 l 606 925 l 819 925 l 558 0 z "},"W":{"ha":1311,"x_min":7,"x_max":1304,"o":"m 1078 0 l 813 0 l 657 703 l 500 0 l 235 0 l 7 925 l 213 925 l 369 264 l 531 925 l 785 925 l 943 264 l 1099 925 l 1304 925 l 1078 0 z "},"X":{"ha":850,"x_min":28,"x_max":822,"o":"m 542 469 l 822 0 l 604 0 l 425 306 l 246 0 l 28 0 l 307 469 l 38 925 l 256 925 l 425 633 l 594 925 l 813 925 l 542 469 z "},"Y":{"ha":783,"x_min":0,"x_max":783,"o":"m 496 267 l 496 0 l 288 0 l 288 267 l 0 925 l 218 925 l 392 496 l 565 925 l 783 925 l 496 267 z "},"Z":{"ha":786,"x_min":69,"x_max":717,"o":"m 307 171 l 717 171 l 717 0 l 69 0 l 69 169 l 476 754 l 88 754 l 88 925 l 710 925 l 710 754 l 307 171 z "},"[":{"ha":443,"x_min":104,"x_max":415,"o":"m 104 -175 l 104 1097 l 415 1097 l 415 938 l 304 938 l 304 -15 l 415 -15 l 415 -175 l 104 -175 z "},"\\":{"ha":642,"x_min":56,"x_max":579,"o":"m 56 939 l 233 939 l 579 -162 l 401 -162 l 56 939 z "},"]":{"ha":443,"x_min":28,"x_max":339,"o":"m 28 -175 l 28 -15 l 139 -15 l 139 938 l 28 938 l 28 1097 l 339 1097 l 339 -175 l 28 -175 z "},"^":{"ha":647,"x_min":49,"x_max":599,"o":"m 479 510 l 322 789 l 165 510 l 49 582 l 258 953 l 386 953 l 599 582 l 479 510 z "},"_":{"ha":617,"x_min":-1,"x_max":618,"o":"m -1 -174 l -1 -104 l 618 -104 l 618 -174 l -1 -174 z "},"`":{"ha":431,"x_min":76,"x_max":361,"o":"m 292 746 q 186 807 233 778 q 76 876 139 836 l 151 993 q 258 918 207 953 q 361 851 310 883 l 292 746 z "},"a":{"ha":718,"x_min":63,"x_max":642,"o":"m 474 0 l 464 49 q 362 3 419 21 q 260 -14 304 -14 q 108 44 154 -14 q 63 199 63 103 q 116 352 63 308 q 264 396 169 396 l 442 396 l 442 433 q 416 509 442 492 q 324 526 390 526 q 229 519 279 526 q 139 499 179 511 l 113 653 q 165 668 135 661 q 227 680 194 675 q 294 688 260 685 q 363 690 329 690 q 496 677 442 690 q 582 633 550 664 q 628 553 614 603 q 642 432 642 504 l 642 0 l 474 0 m 442 264 l 314 264 q 268 249 282 264 q 254 201 254 233 q 267 148 254 169 q 319 126 281 126 q 391 135 360 126 q 442 154 422 144 l 442 264 z "},"b":{"ha":746,"x_min":90,"x_max":690,"o":"m 690 271 q 678 158 690 210 q 632 68 667 107 q 533 8 597 29 q 365 -14 469 -14 q 236 -8 311 -14 q 90 8 161 -3 l 90 953 l 290 981 l 290 653 q 378 679 331 668 q 482 690 426 690 q 642 625 594 690 q 690 446 690 560 l 690 271 m 290 163 q 332 160 313 160 q 372 160 351 160 q 433 168 410 160 q 469 191 456 176 q 486 226 482 206 q 490 269 490 246 l 490 444 q 474 497 490 478 q 418 517 458 517 q 352 506 386 517 q 290 479 318 494 l 290 163 z "},"c":{"ha":564,"x_min":49,"x_max":522,"o":"m 249 258 q 273 181 249 206 q 358 157 297 157 q 429 161 397 157 q 497 174 461 165 l 522 7 q 433 -9 471 -4 q 358 -14 394 -14 q 217 2 276 -14 q 121 51 158 18 q 66 137 83 85 q 49 261 49 189 l 49 415 q 66 540 49 488 q 121 625 83 592 q 217 674 158 658 q 358 690 276 690 q 433 685 394 690 q 522 669 471 681 l 497 503 q 426 515 465 510 q 358 519 388 519 q 273 495 297 519 q 249 418 249 471 l 249 258 z "},"d":{"ha":746,"x_min":56,"x_max":656,"o":"m 56 440 q 110 626 56 561 q 283 690 164 690 q 373 685 325 690 q 456 671 421 679 l 456 953 l 656 981 l 656 0 l 499 0 l 478 54 q 435 31 460 43 q 383 8 411 18 q 326 -8 356 -1 q 269 -14 297 -14 q 110 49 165 -14 q 56 236 56 111 l 56 440 m 456 500 q 394 512 429 507 q 328 517 360 517 q 272 495 288 517 q 256 440 256 474 l 256 236 q 272 180 256 200 q 328 160 288 160 q 398 176 363 160 q 456 213 433 193 l 456 500 z "},"e":{"ha":694,"x_min":56,"x_max":639,"o":"m 256 267 l 256 249 q 286 169 256 193 q 386 144 317 144 q 440 147 411 144 q 499 155 469 150 q 555 165 528 160 q 603 178 582 171 l 632 29 q 514 -1 585 13 q 369 -14 443 -14 q 132 61 208 -14 q 56 261 56 136 l 56 419 q 70 523 56 474 q 119 610 85 572 q 212 669 154 647 q 356 690 269 690 q 496 667 440 690 q 583 606 551 644 q 626 516 614 567 q 639 410 639 465 l 639 267 l 256 267 m 450 456 q 429 517 450 492 q 356 542 408 542 q 277 517 299 542 q 256 456 256 493 l 256 408 l 450 408 l 450 456 z "},"f":{"ha":513,"x_min":28,"x_max":513,"o":"m 488 804 q 442 811 467 808 q 399 814 417 814 q 361 809 375 814 q 340 794 347 804 q 332 772 333 785 q 331 742 331 758 l 331 663 l 490 663 l 476 499 l 331 499 l 331 0 l 131 0 l 131 499 l 28 499 l 28 663 l 131 663 l 131 764 q 183 924 131 868 q 360 981 236 981 q 438 975 403 981 q 513 961 472 969 l 488 804 z "},"g":{"ha":672,"x_min":49,"x_max":651,"o":"m 325 172 l 296 172 q 285 139 285 158 q 292 118 285 126 q 318 107 299 110 l 460 90 q 624 -75 624 72 q 606 -177 624 -136 q 550 -242 588 -218 q 455 -277 513 -267 q 318 -287 397 -287 q 260 -285 293 -287 q 192 -277 228 -282 q 119 -265 156 -272 q 49 -250 82 -258 l 78 -110 q 205 -133 143 -125 q 314 -140 267 -140 q 410 -132 379 -140 q 440 -94 440 -124 q 429 -66 440 -75 q 388 -54 418 -57 l 226 -35 q 125 1 164 -28 q 86 93 86 29 q 105 167 86 138 q 147 211 124 196 q 72 288 94 240 q 49 394 49 336 l 49 463 q 113 629 49 568 q 325 690 176 690 q 387 687 358 690 q 440 676 415 683 l 651 676 l 651 567 l 583 549 q 601 463 599 513 l 601 394 q 533 233 601 294 q 325 172 465 172 m 325 322 q 394 341 374 322 q 415 394 415 360 l 415 468 q 395 521 415 501 q 325 540 375 540 q 255 521 275 540 q 235 468 235 501 l 235 394 q 256 341 235 360 q 325 322 276 322 z "},"h":{"ha":768,"x_min":90,"x_max":685,"o":"m 485 0 l 485 447 q 436 496 485 496 q 404 491 422 496 q 366 479 386 486 q 326 463 346 472 q 290 446 307 454 l 290 0 l 90 0 l 90 953 l 288 981 l 288 628 q 410 673 350 656 q 529 690 471 690 q 602 675 572 690 q 650 631 632 660 q 676 563 668 603 q 685 474 685 522 l 685 0 l 485 0 z "},"i":{"ha":381,"x_min":90,"x_max":290,"o":"m 90 761 l 90 974 l 290 974 l 290 761 l 90 761 m 90 0 l 90 676 l 290 676 l 290 0 l 90 0 z "},"j":{"ha":367,"x_min":-21,"x_max":283,"o":"m 83 761 l 83 974 l 283 974 l 283 761 l 83 761 m -21 -157 q 55 -82 26 -114 q 83 -6 83 -50 l 83 676 l 283 676 l 283 -32 q 238 -151 283 -93 q 100 -287 193 -210 l -21 -157 z "},"k":{"ha":732,"x_min":90,"x_max":711,"o":"m 90 0 l 90 953 l 290 981 l 290 0 l 90 0 m 489 676 l 703 676 l 525 340 l 711 0 l 497 0 l 317 340 l 489 676 z "},"l":{"ha":381,"x_min":90,"x_max":290,"o":"m 90 0 l 90 953 l 290 981 l 290 0 l 90 0 z "},"m":{"ha":1163,"x_min":90,"x_max":1079,"o":"m 485 0 l 485 447 q 436 496 485 496 q 404 492 422 496 q 366 481 386 488 q 326 465 346 474 q 290 447 307 456 l 290 0 l 90 0 l 90 676 l 239 676 l 260 625 q 397 673 322 656 q 529 690 471 690 q 653 625 615 690 q 782 672 711 653 q 924 690 853 690 q 997 675 967 690 q 1044 631 1026 660 q 1071 563 1063 603 q 1079 474 1079 522 l 1079 0 l 879 0 l 879 447 q 831 496 879 496 q 799 492 817 496 q 760 481 781 488 q 721 465 740 474 q 685 447 701 456 l 685 0 l 485 0 z "},"n":{"ha":768,"x_min":90,"x_max":685,"o":"m 485 0 l 485 447 q 436 496 485 496 q 404 492 422 496 q 366 481 386 488 q 326 465 346 474 q 290 447 307 456 l 290 0 l 90 0 l 90 676 l 239 676 l 260 625 q 397 673 322 656 q 529 690 471 690 q 602 675 572 690 q 650 631 632 660 q 676 563 668 603 q 685 474 685 522 l 685 0 l 485 0 z "},"o":{"ha":722,"x_min":56,"x_max":667,"o":"m 361 -14 q 212 9 271 -14 q 118 71 153 32 q 69 158 83 110 q 56 260 56 207 l 56 417 q 69 517 56 468 q 118 606 83 567 q 212 667 153 644 q 361 690 271 690 q 510 667 451 690 q 604 606 569 644 q 653 517 639 567 q 667 417 667 468 l 667 260 q 653 158 667 207 q 604 71 639 110 q 510 9 569 32 q 361 -14 451 -14 m 361 154 q 441 180 415 154 q 467 254 467 206 l 467 422 q 441 497 467 471 q 361 522 415 522 q 281 497 307 522 q 256 422 256 471 l 256 254 q 281 180 256 206 q 361 154 307 154 z "},"p":{"ha":746,"x_min":90,"x_max":690,"o":"m 690 236 q 636 51 690 115 q 463 -14 582 -14 q 373 -8 421 -14 q 290 6 325 -3 l 290 -274 l 90 -301 l 90 676 l 247 676 l 268 622 q 310 646 286 633 q 363 668 335 658 q 419 684 390 678 q 476 690 449 690 q 635 628 581 690 q 690 440 690 565 l 690 236 m 290 176 q 351 165 317 169 q 418 160 386 160 q 474 181 458 160 q 490 236 490 203 l 490 440 q 474 497 490 476 q 418 517 458 517 q 348 500 383 517 q 290 464 313 483 l 290 176 z "},"q":{"ha":746,"x_min":56,"x_max":656,"o":"m 56 406 q 67 517 56 465 q 114 608 79 569 q 213 669 149 647 q 381 690 276 690 q 519 684 444 690 q 656 667 593 678 l 656 -274 l 456 -301 l 456 24 q 367 -3 415 8 q 264 -14 319 -14 q 103 51 151 -14 q 56 231 56 117 l 56 406 m 456 514 q 414 517 433 517 q 374 517 394 517 q 313 508 336 517 q 277 485 290 500 q 260 451 264 471 q 256 407 256 431 l 256 232 q 272 179 256 199 q 328 160 288 160 q 394 171 360 160 q 456 197 428 182 l 456 514 z "},"r":{"ha":479,"x_min":90,"x_max":469,"o":"m 469 501 q 374 460 425 483 q 290 413 322 436 l 290 0 l 90 0 l 90 676 l 257 676 l 271 611 q 309 633 286 621 q 357 657 332 646 q 407 677 382 668 q 453 690 432 686 l 469 501 l 469 501 z "},"s":{"ha":601,"x_min":56,"x_max":553,"o":"m 553 201 q 541 109 553 149 q 500 42 529 69 q 422 0 471 14 q 301 -14 374 -14 q 241 -10 274 -14 q 176 -2 208 -7 q 112 10 143 3 q 56 26 81 18 l 88 175 q 182 153 129 163 q 292 144 235 144 q 349 158 336 144 q 361 201 361 171 q 359 228 361 218 q 347 245 357 238 q 314 260 336 253 q 251 276 292 267 q 154 308 190 292 q 100 349 118 325 q 77 407 82 374 q 72 488 72 440 q 84 580 72 542 q 125 642 96 618 q 204 678 154 667 q 331 690 254 690 q 376 689 350 690 q 430 685 401 688 q 486 678 458 682 q 536 668 514 674 l 518 513 q 423 526 474 521 q 332 532 372 532 q 274 521 288 532 q 260 486 260 510 q 262 461 260 471 q 272 444 264 451 q 298 433 281 438 q 346 421 315 428 q 460 387 418 404 q 522 345 501 369 q 548 286 543 321 q 553 201 553 251 z "},"t":{"ha":500,"x_min":21,"x_max":467,"o":"m 461 11 q 390 -7 428 0 q 317 -14 351 -14 q 166 26 219 -14 q 113 160 113 65 l 113 515 l 21 515 l 21 676 l 113 676 l 113 839 l 313 867 l 313 676 l 467 676 l 456 515 l 313 515 l 313 188 q 324 158 313 167 q 354 150 335 150 q 393 153 371 150 q 438 163 415 156 l 461 11 l 461 11 z "},"u":{"ha":768,"x_min":83,"x_max":678,"o":"m 283 676 l 283 229 q 332 181 283 181 q 364 185 346 181 q 402 196 382 189 q 442 212 422 203 q 478 229 461 221 l 478 676 l 678 676 l 678 0 l 529 0 l 508 51 q 372 3 446 21 q 239 -14 297 -14 q 118 45 153 -14 q 83 203 83 104 l 83 676 l 283 676 z "},"v":{"ha":694,"x_min":7,"x_max":688,"o":"m 475 0 l 219 0 l 7 676 l 210 676 l 347 197 l 485 676 l 688 676 l 475 0 z "},"w":{"ha":979,"x_min":25,"x_max":954,"o":"m 489 442 l 358 0 l 142 0 l 25 676 l 208 676 l 272 281 l 390 676 l 590 676 l 707 281 l 771 676 l 954 676 l 838 0 l 621 0 l 489 442 z "},"x":{"ha":683,"x_min":21,"x_max":663,"o":"m 447 340 l 663 0 l 461 0 l 342 188 l 222 0 l 21 0 l 236 340 l 26 676 l 224 676 l 342 492 l 460 676 l 657 676 l 447 340 z "},"y":{"ha":688,"x_min":7,"x_max":688,"o":"m 200 -274 l 279 0 l 215 0 l 7 676 l 210 676 l 347 197 l 485 676 l 688 676 l 475 0 l 389 -274 l 200 -274 z "},"z":{"ha":639,"x_min":63,"x_max":583,"o":"m 64 676 l 575 676 l 575 524 l 294 153 l 583 153 l 583 0 l 63 0 l 63 153 l 342 524 l 64 524 l 64 676 z "},"{":{"ha":472,"x_min":56,"x_max":458,"o":"m 56 525 l 92 525 q 131 538 119 525 q 142 572 142 550 l 142 890 q 338 1097 142 1097 l 458 1097 l 458 939 l 397 939 q 356 926 369 939 q 342 881 342 913 l 342 596 q 311 491 342 529 q 210 450 281 453 q 311 409 281 447 q 342 304 342 371 l 342 19 q 356 -26 342 -12 q 397 -39 369 -39 l 458 -39 l 458 -197 l 338 -197 q 142 10 142 -197 l 142 328 q 131 363 142 350 q 92 375 119 375 l 56 375 l 56 450 l 56 525 z "},"|":{"ha":361,"x_min":111,"x_max":250,"o":"m 111 -292 l 111 1097 l 250 1097 l 250 -292 l 111 -292 z "},"}":{"ha":472,"x_min":14,"x_max":417,"o":"m 417 450 l 417 375 l 381 375 q 342 363 353 375 q 331 328 331 350 l 331 10 q 135 -197 331 -197 l 14 -197 l 14 -39 l 75 -39 q 117 -26 103 -39 q 131 19 131 -12 l 131 304 q 161 409 131 371 q 263 450 192 447 q 161 491 192 453 q 131 596 131 529 l 131 881 q 117 926 131 913 q 75 939 103 939 l 14 939 l 14 1097 l 135 1097 q 331 890 331 1097 l 331 572 q 342 538 331 550 q 381 525 353 525 l 417 525 l 417 450 z "},"~":{"ha":640,"x_min":35,"x_max":619,"o":"m 424 260 q 360 273 389 260 q 308 303 332 286 q 266 333 285 319 q 231 346 247 346 q 176 318 196 346 q 143 260 156 290 l 35 322 q 113 450 67 403 q 231 497 158 497 q 282 484 256 497 q 333 454 308 471 q 381 424 358 438 q 424 411 404 411 q 454 419 440 411 q 479 440 468 428 q 499 468 490 453 q 511 497 507 483 l 619 435 q 590 367 607 399 q 549 312 572 336 q 494 274 525 288 q 424 260 463 260 z "}," ":{"ha":292,"x_min":0,"x_max":0,"o":""},"¡":{"ha":394,"x_min":97,"x_max":297,"o":"m 256 356 l 297 114 l 297 -274 l 97 -274 l 97 114 l 139 356 l 256 356 m 297 676 l 297 446 l 97 446 l 97 676 l 297 676 z "},"¢":{"ha":592,"x_min":49,"x_max":522,"o":"m 261 118 q 99 199 149 135 q 49 386 49 264 l 49 540 q 99 726 49 663 q 261 808 149 790 l 261 939 l 390 939 l 390 814 q 450 808 418 813 q 522 794 482 803 l 497 628 q 426 640 465 635 q 358 644 388 644 q 273 620 297 644 q 249 543 249 596 l 249 383 q 273 306 249 331 q 358 282 297 282 q 429 286 397 282 q 497 299 461 290 l 522 132 q 450 118 482 122 q 390 111 418 114 l 390 -14 l 261 -14 l 261 118 z "},"£":{"ha":754,"x_min":76,"x_max":692,"o":"m 76 533 l 176 533 q 160 607 168 568 q 153 682 153 646 q 221 858 153 804 q 436 911 289 911 q 563 902 501 911 q 688 878 625 893 l 661 721 q 609 731 638 726 q 550 738 581 735 q 490 742 519 740 q 438 744 461 744 q 371 724 389 744 q 353 665 353 703 q 360 596 353 629 q 375 533 367 563 l 618 533 l 604 390 l 392 390 q 393 376 393 383 q 393 363 393 369 q 370 261 393 308 q 307 171 347 214 l 692 171 l 692 0 l 83 0 l 83 171 q 159 249 125 203 q 193 365 193 296 q 193 378 193 372 q 192 390 193 383 l 76 390 l 76 533 z "},"¤":{"ha":811,"x_min":76,"x_max":735,"o":"m 640 629 q 654 558 654 597 l 654 372 q 640 300 654 332 l 735 207 l 617 89 l 508 196 q 406 185 461 185 q 301 196 349 185 l 194 89 l 76 207 l 171 301 q 158 372 158 332 l 158 558 q 171 629 158 596 l 76 724 l 194 842 l 301 733 q 406 746 344 746 q 508 733 464 746 l 617 842 l 735 724 l 640 629 m 328 394 q 334 363 328 375 q 351 345 340 351 q 375 338 361 339 q 406 336 389 336 q 436 338 422 336 q 461 345 450 339 q 478 363 472 351 q 485 394 485 375 l 485 536 q 461 585 485 575 q 406 594 438 594 q 351 585 374 594 q 328 536 328 575 l 328 394 z "},"¥":{"ha":761,"x_min":0,"x_max":761,"o":"m 485 167 l 485 0 l 276 0 l 276 167 l 79 167 l 79 290 l 265 290 l 218 399 l 79 399 l 79 528 l 163 528 l 0 897 l 218 897 l 381 496 l 543 897 l 761 897 l 599 528 l 683 528 l 683 399 l 542 399 l 494 290 l 683 290 l 683 167 l 485 167 z "},"¦":{"ha":361,"x_min":111,"x_max":250,"o":"m 111 -292 l 111 288 l 250 288 l 250 -292 l 111 -292 m 250 518 l 111 518 l 111 1097 l 250 1097 l 250 518 z "},"§":{"ha":743,"x_min":63,"x_max":688,"o":"m 211 0 q 157 194 183 92 q 110 400 131 297 q 76 599 89 503 q 63 774 63 696 q 114 896 63 853 q 265 939 165 939 q 333 935 297 939 q 404 925 369 931 q 469 912 439 919 q 521 899 500 904 l 497 767 q 394 788 453 778 q 289 799 336 799 q 229 743 229 799 q 242 590 229 676 q 274 408 254 503 q 319 216 294 313 q 367 35 343 119 l 211 0 m 539 679 q 593 485 567 588 q 640 279 619 382 q 674 80 661 176 q 688 -94 688 -17 q 636 -217 688 -174 q 485 -260 585 -260 q 417 -256 453 -260 q 346 -246 381 -251 q 281 -233 311 -240 q 229 -219 250 -226 l 253 -87 q 356 -109 297 -99 q 461 -119 414 -119 q 521 -64 521 -119 q 508 90 521 3 q 476 272 496 176 q 431 463 456 367 q 383 644 407 560 l 539 679 z "},"¨":{"ha":603,"x_min":76,"x_max":526,"o":"m 76 769 l 76 933 l 235 933 l 235 769 l 76 769 m 368 769 l 368 933 l 526 933 l 526 769 l 368 769 z "},"©":{"ha":1064,"x_min":56,"x_max":1008,"o":"m 486 413 q 502 364 486 379 q 554 349 518 349 q 607 351 579 349 q 663 360 635 353 l 681 238 q 618 226 654 231 q 554 222 582 222 q 390 267 440 222 q 340 400 340 313 l 340 531 q 390 663 340 618 q 554 707 440 707 q 619 703 583 707 q 681 692 656 699 l 663 569 q 607 578 640 575 q 554 582 574 582 q 502 567 518 582 q 486 519 486 551 l 486 413 m 56 463 q 90 649 56 561 q 186 801 124 736 q 336 903 249 865 q 532 940 424 940 q 728 903 640 940 q 878 801 815 865 q 974 649 940 736 q 1008 463 1008 561 q 974 277 1008 364 q 878 126 940 190 q 728 24 815 61 q 532 -14 640 -14 q 336 24 424 -14 q 186 126 249 61 q 90 277 124 190 q 56 463 56 364 m 190 463 q 215 326 190 389 q 283 217 239 264 q 391 143 328 169 q 532 117 454 117 q 673 143 610 117 q 781 217 736 169 q 849 326 825 264 q 874 463 874 389 q 849 599 874 536 q 781 710 825 663 q 673 783 736 757 q 532 810 610 810 q 391 783 454 810 q 283 710 328 757 q 215 599 239 663 q 190 463 190 536 z "},"ª":{"ha":524,"x_min":90,"x_max":440,"o":"m 335 525 l 326 553 q 257 524 289 532 q 203 517 225 517 q 117 555 143 517 q 90 647 90 593 q 122 742 90 714 q 219 769 153 769 l 313 769 l 313 803 q 300 849 313 836 q 236 863 288 863 q 119 850 179 863 l 101 946 q 176 961 133 956 q 257 967 219 967 q 349 958 313 967 q 405 928 385 949 q 433 877 425 908 q 440 801 440 846 l 440 525 l 335 525 m 313 681 l 251 681 q 222 674 231 681 q 213 650 213 668 q 247 615 213 615 q 283 619 268 615 q 313 631 297 624 l 313 681 z "},"«":{"ha":778,"x_min":63,"x_max":674,"o":"m 63 339 l 239 607 l 365 528 l 242 339 l 365 150 l 239 71 l 63 339 m 371 339 l 547 607 l 674 528 l 550 339 l 674 150 l 547 71 l 371 339 z "},"¬":{"ha":704,"x_min":56,"x_max":614,"o":"m 447 358 l 56 358 l 56 511 l 614 511 l 614 144 l 447 144 l 447 358 z "},"®":{"ha":626,"x_min":63,"x_max":564,"o":"m 63 715 q 81 814 63 768 q 131 894 99 860 q 210 947 164 928 q 313 967 256 967 q 416 947 369 967 q 495 894 463 928 q 546 814 528 860 q 564 715 564 768 q 546 617 564 663 q 495 536 528 571 q 416 482 463 501 q 313 463 369 463 q 210 482 256 463 q 131 536 164 501 q 81 617 99 571 q 63 715 63 663 m 144 715 q 154 648 144 679 q 185 592 164 617 q 238 554 206 568 q 313 540 269 540 q 388 554 356 540 q 440 592 419 568 q 472 648 461 617 q 482 715 482 679 q 472 782 482 750 q 440 838 461 814 q 388 875 419 861 q 313 889 356 889 q 238 875 269 889 q 185 838 206 861 q 154 782 164 814 q 144 715 144 750 m 311 681 l 283 681 l 283 606 l 228 606 l 228 836 l 324 836 q 400 769 400 836 l 400 747 q 369 690 400 706 l 428 606 l 364 606 l 311 681 m 346 764 q 319 785 346 785 l 283 785 l 283 731 l 319 731 q 346 753 346 731 l 346 764 z "},"¯":{"ha":478,"x_min":63,"x_max":415,"o":"m 63 778 l 63 906 l 415 906 l 415 778 l 63 778 z "},"°":{"ha":518,"x_min":69,"x_max":449,"o":"m 449 725 q 435 652 449 686 q 398 593 422 618 q 339 553 374 568 q 260 539 304 539 q 180 553 215 539 q 120 593 144 568 q 83 652 96 618 q 69 725 69 686 q 83 798 69 764 q 120 857 96 832 q 180 897 144 882 q 260 911 215 911 q 339 897 304 911 q 398 857 374 882 q 435 798 422 832 q 449 725 449 764 m 342 725 q 322 790 342 764 q 260 817 301 817 q 197 790 217 817 q 176 725 176 764 q 197 660 176 688 q 260 633 218 633 q 321 660 300 633 q 342 725 342 688 z "},"±":{"ha":718,"x_min":76,"x_max":642,"o":"m 439 426 l 439 221 l 279 221 l 279 426 l 76 426 l 76 579 l 279 579 l 279 786 l 439 786 l 439 579 l 642 579 l 642 426 l 439 426 m 76 0 l 76 146 l 642 146 l 642 0 l 76 0 z "},"²":{"ha":547,"x_min":69,"x_max":464,"o":"m 389 800 q 336 737 357 761 q 292 686 315 713 l 464 686 l 464 564 l 83 564 l 83 672 q 115 704 101 690 q 142 733 128 718 q 172 764 156 747 q 211 804 188 781 q 263 859 244 839 q 289 892 281 879 q 299 913 297 904 q 300 932 300 921 l 300 958 q 289 995 300 986 q 247 1004 278 1004 q 176 998 219 1004 q 96 982 133 992 l 69 1108 q 165 1130 117 1122 q 264 1138 214 1138 q 352 1128 317 1138 q 408 1099 388 1118 q 438 1050 429 1079 q 446 982 446 1021 l 446 936 q 436 874 446 904 q 389 800 426 844 z "},"³":{"ha":510,"x_min":69,"x_max":433,"o":"m 239 901 q 276 913 267 901 q 285 943 285 924 l 285 974 q 274 1010 285 999 q 218 1021 263 1021 q 161 1018 194 1021 q 99 1010 128 1015 l 82 1119 q 154 1132 114 1126 q 225 1138 194 1138 q 320 1128 282 1138 q 382 1100 358 1118 q 415 1054 406 1082 q 425 992 425 1026 l 425 960 q 412 897 425 919 q 361 850 399 874 q 421 806 408 835 q 433 738 433 776 l 433 707 q 424 644 433 672 q 392 595 415 615 q 330 564 369 575 q 228 553 290 553 q 149 558 190 553 q 69 575 108 564 l 88 686 q 158 674 122 678 q 226 671 194 671 q 280 683 267 671 q 293 717 293 694 l 293 746 q 282 778 293 768 q 243 789 271 789 l 103 789 l 103 901 l 239 901 z "},"´":{"ha":431,"x_min":69,"x_max":354,"o":"m 69 851 q 172 918 121 883 q 279 993 224 953 l 354 876 q 244 807 292 836 q 139 746 197 778 l 69 851 z "},"µ":{"ha":768,"x_min":83,"x_max":678,"o":"m 83 676 l 283 676 l 283 229 q 332 181 283 181 q 364 185 346 181 q 402 196 382 189 q 442 212 422 203 q 478 229 461 221 l 478 676 l 678 676 l 678 0 l 529 0 l 508 51 q 396 10 456 26 q 283 -11 336 -6 l 283 -274 l 83 -274 l 83 676 z "},"¶":{"ha":747,"x_min":63,"x_max":643,"o":"m 63 613 q 86 736 63 679 q 152 835 110 793 q 251 901 194 878 q 375 925 308 925 l 375 301 q 251 325 308 301 q 152 390 194 349 q 86 489 110 432 q 63 613 63 546 m 321 -179 q 418 -91 383 -122 q 469 -40 453 -60 q 488 -7 485 -21 q 490 29 490 7 l 490 925 l 643 925 l 643 7 q 636 -56 643 -31 q 606 -109 629 -81 q 537 -178 582 -137 q 415 -287 492 -218 l 321 -179 z "},"·":{"ha":381,"x_min":90,"x_max":290,"o":"m 90 353 l 90 583 l 290 583 l 290 353 l 90 353 z "},"¸":{"ha":397,"x_min":63,"x_max":335,"o":"m 335 -160 q 301 -243 335 -212 q 179 -274 267 -274 q 122 -267 157 -274 q 63 -251 86 -261 l 82 -175 q 124 -185 100 -181 q 168 -189 147 -189 q 217 -183 200 -189 q 233 -158 233 -178 q 222 -131 233 -135 q 185 -128 210 -128 q 158 -128 174 -128 q 126 -131 143 -129 l 99 -107 l 128 28 l 215 28 l 197 -65 q 304 -78 274 -54 q 335 -160 335 -101 z "},"¹":{"ha":494,"x_min":49,"x_max":363,"o":"m 217 564 l 217 960 l 100 904 l 49 1018 l 247 1126 l 363 1126 l 363 564 l 217 564 z "},"º":{"ha":557,"x_min":83,"x_max":474,"o":"m 279 517 q 183 531 221 517 q 124 571 146 546 q 92 627 101 596 q 83 692 83 658 l 83 792 q 92 856 83 825 q 124 913 101 888 q 183 952 146 938 q 279 967 221 967 q 374 952 336 967 q 433 913 411 938 q 465 856 456 888 q 474 792 474 825 l 474 692 q 465 627 474 658 q 433 571 456 596 q 374 531 411 546 q 279 517 336 517 m 279 624 q 346 688 346 624 l 346 796 q 279 860 346 860 q 211 796 211 860 l 211 688 q 279 624 211 624 z "},"»":{"ha":778,"x_min":104,"x_max":715,"o":"m 539 71 l 413 150 l 536 339 l 413 528 l 539 607 l 715 339 l 539 71 m 231 71 l 104 150 l 228 339 l 104 528 l 231 607 l 407 339 l 231 71 z "},"¼":{"ha":1206,"x_min":49,"x_max":1122,"o":"m 1040 107 l 1040 0 l 901 0 l 901 107 l 647 107 l 647 207 l 839 563 l 1040 563 l 1040 219 l 1122 219 l 1122 107 l 1040 107 m 901 444 l 790 219 l 901 219 l 901 444 m 217 335 l 217 731 l 100 675 l 49 789 l 247 897 l 363 897 l 363 335 l 217 335 m 725 960 l 833 911 l 403 -61 l 293 -14 l 725 960 z "},"½":{"ha":1219,"x_min":49,"x_max":1136,"o":"m 217 335 l 217 731 l 100 675 l 49 789 l 247 897 l 363 897 l 363 335 l 217 335 m 1061 236 q 1008 173 1029 197 q 964 122 988 149 l 1136 122 l 1136 0 l 756 0 l 756 108 q 787 140 774 126 q 814 169 800 154 q 844 200 828 183 q 883 240 860 217 q 935 295 917 275 q 961 328 953 315 q 971 349 969 340 q 972 368 972 357 l 972 394 q 961 431 972 422 q 919 440 950 440 q 849 434 892 440 q 768 418 806 428 l 742 544 q 838 566 789 558 q 936 574 886 574 q 1024 564 989 574 q 1081 535 1060 554 q 1110 486 1101 515 q 1118 418 1118 457 l 1118 372 q 1108 310 1118 340 q 1061 236 1099 281 m 724 960 l 832 911 l 401 -61 l 292 -14 l 724 960 z "},"¾":{"ha":1229,"x_min":63,"x_max":1146,"o":"m 232 672 q 269 683 260 672 q 278 714 278 694 l 278 747 q 267 783 278 772 q 211 794 256 794 q 151 792 188 794 q 92 785 115 790 l 75 894 q 142 906 103 901 q 218 911 182 911 q 313 901 275 911 q 375 874 351 892 q 408 828 399 856 q 418 765 418 800 l 418 733 q 405 670 418 693 q 354 624 392 647 q 414 579 401 608 q 426 511 426 550 l 426 481 q 417 417 426 446 q 385 369 408 389 q 323 338 363 349 q 221 326 283 326 q 142 332 183 326 q 63 349 101 338 l 81 457 q 119 451 99 453 q 163 447 140 449 q 205 445 185 446 q 242 444 225 444 q 277 456 268 444 q 286 485 286 468 l 286 525 q 242 565 286 565 l 96 565 l 96 672 l 232 672 m 1064 107 l 1064 0 l 925 0 l 925 107 l 671 107 l 671 207 l 863 563 l 1064 563 l 1064 219 l 1146 219 l 1146 107 l 1064 107 m 925 444 l 814 219 l 925 219 l 925 444 m 744 960 l 853 911 l 424 -61 l 314 -14 l 744 960 z "},"¿":{"ha":674,"x_min":63,"x_max":625,"o":"m 463 676 l 463 446 l 263 446 l 263 676 l 463 676 m 449 207 q 344 127 382 157 q 289 75 307 97 q 267 33 271 53 q 263 -12 263 14 q 289 -85 263 -60 q 393 -110 315 -110 q 492 -103 440 -110 q 597 -87 544 -97 l 625 -260 q 494 -281 553 -275 q 371 -287 436 -287 q 218 -269 278 -287 q 124 -217 158 -251 q 76 -134 89 -183 q 63 -24 63 -85 q 69 81 63 40 q 102 160 75 122 q 184 244 129 199 q 336 360 239 289 l 449 207 z "},"À":{"ha":871,"x_min":14,"x_max":857,"o":"m 857 0 l 640 0 l 590 181 l 281 181 l 231 0 l 14 0 l 296 925 l 574 925 l 857 0 m 328 354 l 540 354 l 435 742 l 328 354 m 454 982 q 400 1011 425 997 q 352 1038 375 1025 q 307 1066 329 1051 q 260 1099 285 1081 l 335 1215 q 424 1151 375 1183 q 524 1088 472 1119 l 454 982 z "},"Á":{"ha":871,"x_min":14,"x_max":857,"o":"m 857 0 l 640 0 l 590 181 l 281 181 l 231 0 l 14 0 l 296 925 l 574 925 l 857 0 m 328 354 l 540 354 l 435 742 l 328 354 m 371 1088 q 471 1151 422 1119 q 560 1215 519 1183 l 635 1099 q 588 1066 610 1081 q 542 1038 565 1051 q 494 1011 519 1025 q 440 982 469 997 l 371 1088 z "},"Â":{"ha":871,"x_min":14,"x_max":857,"o":"m 857 0 l 640 0 l 590 181 l 281 181 l 231 0 l 14 0 l 296 925 l 574 925 l 857 0 m 328 354 l 540 354 l 435 742 l 328 354 m 558 989 q 495 1019 521 1006 q 435 1051 469 1032 q 374 1019 400 1032 q 311 989 349 1006 l 257 1075 q 346 1138 306 1108 q 435 1206 386 1168 q 524 1138 483 1168 q 613 1075 564 1108 l 558 989 z "},"Ã":{"ha":871,"x_min":14,"x_max":857,"o":"m 857 0 l 640 0 l 590 181 l 281 181 l 231 0 l 14 0 l 296 925 l 574 925 l 857 0 m 328 354 l 540 354 l 435 742 l 328 354 m 519 996 q 468 1003 489 996 q 426 1025 447 1010 q 394 1047 407 1039 q 363 1056 381 1056 q 322 1034 339 1056 q 293 993 306 1013 l 213 1056 q 273 1140 236 1103 q 358 1176 310 1176 q 403 1170 383 1176 q 449 1147 424 1164 q 488 1124 472 1132 q 519 1115 504 1115 q 554 1130 543 1115 q 572 1172 565 1144 l 667 1129 q 611 1031 649 1067 q 519 996 574 996 z "},"Ä":{"ha":871,"x_min":14,"x_max":857,"o":"m 857 0 l 640 0 l 590 181 l 281 181 l 231 0 l 14 0 l 296 925 l 574 925 l 857 0 m 328 354 l 540 354 l 435 742 l 328 354 m 215 1010 l 215 1161 l 374 1161 l 374 1010 l 215 1010 m 496 1010 l 496 1161 l 654 1161 l 654 1010 l 496 1010 z "},"Å":{"ha":871,"x_min":14,"x_max":857,"o":"m 857 0 l 640 0 l 590 181 l 281 181 l 231 0 l 14 0 l 296 925 l 574 925 l 857 0 m 328 354 l 540 354 l 435 742 l 328 354 m 557 1099 q 524 1016 557 1050 q 435 982 492 982 q 345 1014 378 982 q 313 1099 313 1046 q 345 1182 313 1147 q 435 1217 378 1217 q 524 1182 492 1217 q 557 1099 557 1147 m 482 1099 q 469 1135 482 1122 q 435 1149 457 1149 q 400 1135 413 1149 q 388 1099 388 1122 q 400 1063 388 1076 q 435 1050 413 1050 q 469 1063 457 1050 q 482 1099 482 1076 z "},"Æ":{"ha":1188,"x_min":14,"x_max":1118,"o":"m 640 0 l 590 181 l 281 181 l 231 0 l 14 0 l 296 925 l 1118 925 l 1118 740 l 629 740 l 682 571 l 1089 571 l 1089 386 l 738 386 l 800 185 l 1118 185 l 1118 0 l 640 0 m 328 354 l 540 354 l 435 742 l 328 354 z "},"Ç":{"ha":724,"x_min":69,"x_max":675,"o":"m 574 -160 q 540 -243 574 -212 q 418 -274 506 -274 q 360 -267 396 -274 q 301 -251 325 -261 l 321 -175 q 363 -185 339 -181 q 407 -189 386 -189 q 456 -183 439 -189 q 472 -158 472 -178 q 460 -131 472 -135 q 424 -128 449 -128 q 397 -128 413 -128 q 365 -131 382 -129 l 338 -107 l 358 -11 q 228 17 283 -6 q 138 76 174 39 q 86 162 103 113 q 69 269 69 211 l 69 656 q 90 770 69 718 q 151 860 110 822 q 256 918 192 897 q 407 939 319 939 q 542 932 478 939 q 675 910 606 925 l 646 728 q 521 744 585 739 q 407 750 457 750 q 308 717 339 750 q 278 622 278 683 l 278 303 q 308 208 278 242 q 407 175 339 175 q 521 181 457 175 q 646 197 585 186 l 675 15 q 560 -4 615 3 q 446 -12 504 -11 l 436 -65 q 543 -78 513 -54 q 574 -160 574 -101 z "},"È":{"ha":742,"x_min":90,"x_max":672,"o":"m 90 0 l 90 925 l 672 925 l 672 740 l 299 740 l 299 571 l 643 571 l 643 386 l 299 386 l 299 185 l 672 185 l 672 0 l 90 0 m 415 982 q 361 1011 386 997 q 313 1038 336 1025 q 268 1066 290 1051 q 221 1099 246 1081 l 296 1215 q 385 1151 336 1183 q 485 1088 433 1119 l 415 982 z "},"É":{"ha":742,"x_min":90,"x_max":672,"o":"m 90 0 l 90 925 l 672 925 l 672 740 l 299 740 l 299 571 l 643 571 l 643 386 l 299 386 l 299 185 l 672 185 l 672 0 l 90 0 m 285 1088 q 385 1151 336 1119 q 474 1215 433 1183 l 549 1099 q 501 1066 524 1081 q 456 1038 479 1051 q 408 1011 433 1025 q 354 982 383 997 l 285 1088 z "},"Ê":{"ha":742,"x_min":90,"x_max":672,"o":"m 90 0 l 90 925 l 672 925 l 672 740 l 299 740 l 299 571 l 643 571 l 643 386 l 299 386 l 299 185 l 672 185 l 672 0 l 90 0 m 519 989 q 456 1019 482 1006 q 396 1051 431 1032 q 335 1019 361 1032 q 272 989 310 1006 l 218 1075 q 307 1138 267 1108 q 396 1206 347 1168 q 485 1138 444 1168 q 574 1075 525 1108 l 519 989 z "},"Ë":{"ha":742,"x_min":90,"x_max":672,"o":"m 90 0 l 90 925 l 672 925 l 672 740 l 299 740 l 299 571 l 643 571 l 643 386 l 299 386 l 299 185 l 672 185 l 672 0 l 90 0 m 167 1010 l 167 1161 l 325 1161 l 325 1010 l 167 1010 m 447 1010 l 447 1161 l 606 1161 l 606 1010 l 447 1010 z "},"Ì":{"ha":403,"x_min":32,"x_max":306,"o":"m 97 0 l 97 925 l 306 925 l 306 0 l 97 0 m 226 982 q 172 1011 197 997 q 124 1038 147 1025 q 79 1066 101 1051 q 32 1099 57 1081 l 107 1215 q 196 1151 147 1183 q 296 1088 244 1119 l 226 982 z "},"Í":{"ha":403,"x_min":97,"x_max":378,"o":"m 97 0 l 97 925 l 306 925 l 306 0 l 97 0 m 114 1088 q 214 1151 165 1119 q 303 1215 263 1183 l 378 1099 q 331 1066 353 1081 q 285 1038 308 1051 q 238 1011 263 1025 q 183 982 213 997 l 114 1088 z "},"Î":{"ha":403,"x_min":24,"x_max":379,"o":"m 97 0 l 97 925 l 306 925 l 306 0 l 97 0 m 325 989 q 262 1019 288 1006 q 201 1051 236 1032 q 141 1019 167 1032 q 78 989 115 1006 l 24 1075 q 113 1138 72 1108 q 201 1206 153 1168 q 290 1138 250 1168 q 379 1075 331 1108 l 325 989 z "},"Ï":{"ha":403,"x_min":-18,"x_max":421,"o":"m 97 0 l 97 925 l 306 925 l 306 0 l 97 0 m -18 1010 l -18 1161 l 140 1161 l 140 1010 l -18 1010 m 263 1010 l 263 1161 l 421 1161 l 421 1010 l 263 1010 z "},"Ð":{"ha":867,"x_min":35,"x_max":797,"o":"m 35 549 l 126 549 l 126 925 l 485 925 q 629 905 569 925 q 726 851 689 885 q 781 775 764 818 q 797 685 797 732 l 797 240 q 781 151 797 194 q 726 74 764 107 q 629 20 689 40 q 485 0 569 0 l 126 0 l 126 383 l 35 383 l 35 549 m 589 628 q 563 711 589 682 q 460 740 538 740 l 335 740 l 335 549 l 457 549 l 457 383 l 335 383 l 335 185 l 460 185 q 563 214 538 185 q 589 297 589 243 l 589 628 z "},"Ñ":{"ha":939,"x_min":90,"x_max":849,"o":"m 289 608 l 289 0 l 90 0 l 90 925 l 346 925 l 650 288 l 650 925 l 849 925 l 849 0 l 592 0 l 289 608 m 560 996 q 508 1003 529 996 q 467 1025 488 1010 q 434 1047 447 1039 q 403 1056 421 1056 q 363 1034 379 1056 q 333 993 346 1013 l 253 1056 q 313 1140 276 1103 q 399 1176 350 1176 q 444 1170 424 1176 q 489 1147 464 1164 q 528 1124 513 1132 q 560 1115 544 1115 q 594 1130 583 1115 q 613 1172 606 1144 l 707 1129 q 651 1031 689 1067 q 560 996 614 996 z "},"Ò":{"ha":856,"x_min":69,"x_max":786,"o":"m 786 269 q 767 166 786 217 q 705 75 747 115 q 594 10 663 35 q 428 -14 525 -14 q 261 10 329 -14 q 151 75 193 35 q 89 166 108 115 q 69 269 69 217 l 69 656 q 89 759 69 708 q 151 850 108 810 q 261 915 193 890 q 428 939 329 939 q 594 915 525 939 q 705 850 663 890 q 767 759 747 810 q 786 656 786 708 l 786 269 m 578 638 q 542 723 578 692 q 428 754 507 754 q 313 723 349 754 q 278 638 278 692 l 278 288 q 313 202 278 233 q 428 171 349 171 q 542 202 507 171 q 578 288 578 233 l 578 638 m 436 982 q 382 1011 407 997 q 334 1038 357 1025 q 289 1066 311 1051 q 242 1099 267 1081 l 317 1215 q 406 1151 357 1183 q 506 1088 454 1119 l 436 982 z "},"Ó":{"ha":856,"x_min":69,"x_max":786,"o":"m 786 269 q 767 166 786 217 q 705 75 747 115 q 594 10 663 35 q 428 -14 525 -14 q 261 10 329 -14 q 151 75 193 35 q 89 166 108 115 q 69 269 69 217 l 69 656 q 89 759 69 708 q 151 850 108 810 q 261 915 193 890 q 428 939 329 939 q 594 915 525 939 q 705 850 663 890 q 767 759 747 810 q 786 656 786 708 l 786 269 m 578 638 q 542 723 578 692 q 428 754 507 754 q 313 723 349 754 q 278 638 278 692 l 278 288 q 313 202 278 233 q 428 171 349 171 q 542 202 507 171 q 578 288 578 233 l 578 638 m 347 1088 q 447 1151 399 1119 q 536 1215 496 1183 l 611 1099 q 564 1066 586 1081 q 519 1038 542 1051 q 471 1011 496 1025 q 417 982 446 997 l 347 1088 z "},"Ô":{"ha":856,"x_min":69,"x_max":786,"o":"m 786 269 q 767 166 786 217 q 705 75 747 115 q 594 10 663 35 q 428 -14 525 -14 q 261 10 329 -14 q 151 75 193 35 q 89 166 108 115 q 69 269 69 217 l 69 656 q 89 759 69 708 q 151 850 108 810 q 261 915 193 890 q 428 939 329 939 q 594 915 525 939 q 705 850 663 890 q 767 759 747 810 q 786 656 786 708 l 786 269 m 578 638 q 542 723 578 692 q 428 754 507 754 q 313 723 349 754 q 278 638 278 692 l 278 288 q 313 202 278 233 q 428 171 349 171 q 542 202 507 171 q 578 288 578 233 l 578 638 m 551 989 q 488 1019 514 1006 q 428 1051 463 1032 q 367 1019 393 1032 q 304 989 342 1006 l 250 1075 q 339 1138 299 1108 q 428 1206 379 1168 q 517 1138 476 1168 q 606 1075 557 1108 l 551 989 z "},"Õ":{"ha":856,"x_min":69,"x_max":786,"o":"m 786 269 q 767 166 786 217 q 705 75 747 115 q 594 10 663 35 q 428 -14 525 -14 q 261 10 329 -14 q 151 75 193 35 q 89 166 108 115 q 69 269 69 217 l 69 656 q 89 759 69 708 q 151 850 108 810 q 261 915 193 890 q 428 939 329 939 q 594 915 525 939 q 705 850 663 890 q 767 759 747 810 q 786 656 786 708 l 786 269 m 578 638 q 542 723 578 692 q 428 754 507 754 q 313 723 349 754 q 278 638 278 692 l 278 288 q 313 202 278 233 q 428 171 349 171 q 542 202 507 171 q 578 288 578 233 l 578 638 m 517 996 q 465 1003 486 996 q 424 1025 444 1010 q 391 1047 404 1039 q 360 1056 378 1056 q 319 1034 336 1056 q 290 993 303 1013 l 210 1056 q 270 1140 233 1103 q 356 1176 307 1176 q 401 1170 381 1176 q 446 1147 421 1164 q 485 1124 469 1132 q 517 1115 501 1115 q 551 1130 540 1115 q 569 1172 563 1144 l 664 1129 q 608 1031 646 1067 q 517 996 571 996 z "},"Ö":{"ha":856,"x_min":69,"x_max":786,"o":"m 786 269 q 767 166 786 217 q 705 75 747 115 q 594 10 663 35 q 428 -14 525 -14 q 261 10 329 -14 q 151 75 193 35 q 89 166 108 115 q 69 269 69 217 l 69 656 q 89 759 69 708 q 151 850 108 810 q 261 915 193 890 q 428 939 329 939 q 594 915 525 939 q 705 850 663 890 q 767 759 747 810 q 786 656 786 708 l 786 269 m 578 638 q 542 723 578 692 q 428 754 507 754 q 313 723 349 754 q 278 638 278 692 l 278 288 q 313 202 278 233 q 428 171 349 171 q 542 202 507 171 q 578 288 578 233 l 578 638 m 208 1010 l 208 1161 l 367 1161 l 367 1010 l 208 1010 m 489 1010 l 489 1161 l 647 1161 l 647 1010 l 489 1010 z "},"×":{"ha":667,"x_min":76,"x_max":590,"o":"m 333 217 l 190 74 l 76 188 l 219 331 l 76 474 l 190 588 l 333 444 l 476 588 l 590 474 l 447 331 l 590 188 l 476 74 l 333 217 z "},"Ø":{"ha":856,"x_min":69,"x_max":786,"o":"m 142 83 q 86 172 103 124 q 69 269 69 219 l 69 656 q 89 759 69 708 q 151 850 108 810 q 261 915 193 890 q 428 939 329 939 q 544 928 493 939 q 635 897 594 917 l 703 1008 l 786 958 l 714 840 q 769 752 751 800 q 786 656 786 704 l 786 269 q 767 166 786 217 q 705 75 747 115 q 594 10 663 35 q 428 -14 525 -14 q 311 -3 363 -14 q 219 28 260 8 l 153 -83 l 69 -35 l 142 83 m 278 308 l 533 729 q 428 754 493 754 q 313 723 349 754 q 278 638 278 692 l 278 308 m 428 171 q 542 202 507 171 q 578 288 578 233 l 578 615 l 322 196 q 428 171 357 171 z "},"Ù":{"ha":864,"x_min":83,"x_max":781,"o":"m 781 925 l 781 269 q 763 166 781 217 q 704 75 744 115 q 597 10 664 35 q 432 -14 529 -14 q 267 10 333 -14 q 160 75 200 35 q 101 166 119 115 q 83 269 83 217 l 83 925 l 292 925 l 292 289 q 322 201 292 232 q 432 171 353 171 q 542 201 511 171 q 572 289 572 232 l 572 925 l 781 925 m 468 982 q 414 1011 439 997 q 366 1038 389 1025 q 321 1066 343 1051 q 274 1099 299 1081 l 349 1215 q 438 1151 389 1183 q 538 1088 486 1119 l 468 982 z "},"Ú":{"ha":864,"x_min":83,"x_max":781,"o":"m 781 925 l 781 269 q 763 166 781 217 q 704 75 744 115 q 597 10 664 35 q 432 -14 529 -14 q 267 10 333 -14 q 160 75 200 35 q 101 166 119 115 q 83 269 83 217 l 83 925 l 292 925 l 292 289 q 322 201 292 232 q 432 171 353 171 q 542 201 511 171 q 572 289 572 232 l 572 925 l 781 925 m 333 1088 q 433 1151 385 1119 q 522 1215 482 1183 l 597 1099 q 550 1066 572 1081 q 505 1038 528 1051 q 457 1011 482 1025 q 403 982 432 997 l 333 1088 z "},"Û":{"ha":864,"x_min":83,"x_max":781,"o":"m 781 925 l 781 269 q 763 166 781 217 q 704 75 744 115 q 597 10 664 35 q 432 -14 529 -14 q 267 10 333 -14 q 160 75 200 35 q 101 166 119 115 q 83 269 83 217 l 83 925 l 292 925 l 292 289 q 322 201 292 232 q 432 171 353 171 q 542 201 511 171 q 572 289 572 232 l 572 925 l 781 925 m 554 989 q 491 1019 517 1006 q 431 1051 465 1032 q 370 1019 396 1032 q 307 989 344 1006 l 253 1075 q 342 1138 301 1108 q 431 1206 382 1168 q 519 1138 479 1168 q 608 1075 560 1108 l 554 989 z "},"Ü":{"ha":864,"x_min":83,"x_max":781,"o":"m 781 925 l 781 269 q 763 166 781 217 q 704 75 744 115 q 597 10 664 35 q 432 -14 529 -14 q 267 10 333 -14 q 160 75 200 35 q 101 166 119 115 q 83 269 83 217 l 83 925 l 292 925 l 292 289 q 322 201 292 232 q 432 171 353 171 q 542 201 511 171 q 572 289 572 232 l 572 925 l 781 925 m 213 1010 l 213 1161 l 371 1161 l 371 1010 l 213 1010 m 493 1010 l 493 1161 l 651 1161 l 651 1010 l 493 1010 z "},"Ý":{"ha":783,"x_min":0,"x_max":783,"o":"m 496 267 l 496 0 l 288 0 l 288 267 l 0 925 l 218 925 l 392 496 l 565 925 l 783 925 l 496 267 m 308 1088 q 408 1151 360 1119 q 497 1215 457 1183 l 572 1099 q 525 1066 547 1081 q 480 1038 503 1051 q 432 1011 457 1025 q 378 982 407 997 l 308 1088 z "},"Þ":{"ha":811,"x_min":90,"x_max":776,"o":"m 776 404 q 701 208 776 274 q 457 143 626 143 l 299 143 l 299 0 l 90 0 l 90 925 l 299 925 l 299 788 l 468 788 q 611 771 553 788 q 706 722 669 754 q 760 640 743 689 q 776 525 776 590 l 776 404 m 568 506 q 545 579 568 556 q 457 603 522 603 l 299 603 l 299 324 l 457 324 q 547 349 525 324 q 568 425 568 375 l 568 506 z "},"ß":{"ha":819,"x_min":90,"x_max":778,"o":"m 489 739 q 467 794 489 775 q 392 814 444 814 q 314 792 338 814 q 290 717 290 769 l 290 0 l 90 0 l 90 719 q 388 981 90 981 q 521 963 464 981 q 615 913 578 944 q 671 838 653 882 q 689 743 689 794 q 674 666 689 706 q 633 585 660 626 q 605 538 615 556 q 590 510 594 521 q 583 492 585 499 q 582 476 582 485 q 584 462 582 469 q 594 443 586 454 q 618 416 603 432 q 660 378 633 400 q 726 315 703 340 q 761 271 750 290 q 775 232 772 251 q 778 186 778 213 q 769 99 778 136 q 735 36 760 61 q 671 -1 711 11 q 568 -14 631 -14 q 530 -12 553 -14 q 482 -8 507 -11 q 432 0 457 -4 q 388 11 407 4 l 411 160 q 472 149 436 153 q 531 144 507 144 q 571 151 556 144 q 586 181 586 158 q 583 195 586 189 q 572 210 581 201 q 544 235 563 219 q 493 279 525 251 q 435 333 457 310 q 402 376 414 356 q 386 417 390 396 q 382 465 382 438 q 385 500 382 485 q 394 531 388 515 q 410 565 400 547 q 435 606 419 582 q 463 651 451 632 q 479 685 474 671 q 487 713 485 700 q 489 739 489 725 z "},"à":{"ha":718,"x_min":63,"x_max":642,"o":"m 474 0 l 464 49 q 362 3 419 21 q 260 -14 304 -14 q 108 44 154 -14 q 63 199 63 103 q 116 352 63 308 q 264 396 169 396 l 442 396 l 442 433 q 416 509 442 492 q 324 526 390 526 q 229 519 279 526 q 139 499 179 511 l 113 653 q 165 668 135 661 q 227 680 194 675 q 294 688 260 685 q 363 690 329 690 q 496 677 442 690 q 582 633 550 664 q 628 553 614 603 q 642 432 642 504 l 642 0 l 474 0 m 442 264 l 314 264 q 268 249 282 264 q 254 201 254 233 q 267 148 254 169 q 319 126 281 126 q 391 135 360 126 q 442 154 422 144 l 442 264 m 404 746 q 299 807 346 778 q 189 876 251 836 l 264 993 q 371 918 319 953 q 474 851 422 883 l 404 746 z "},"á":{"ha":718,"x_min":63,"x_max":642,"o":"m 474 0 l 464 49 q 362 3 419 21 q 260 -14 304 -14 q 108 44 154 -14 q 63 199 63 103 q 116 352 63 308 q 264 396 169 396 l 442 396 l 442 433 q 416 509 442 492 q 324 526 390 526 q 229 519 279 526 q 139 499 179 511 l 113 653 q 165 668 135 661 q 227 680 194 675 q 294 688 260 685 q 363 690 329 690 q 496 677 442 690 q 582 633 550 664 q 628 553 614 603 q 642 432 642 504 l 642 0 l 474 0 m 442 264 l 314 264 q 268 249 282 264 q 254 201 254 233 q 267 148 254 169 q 319 126 281 126 q 391 135 360 126 q 442 154 422 144 l 442 264 m 268 851 q 371 918 319 883 q 478 993 422 953 l 553 876 q 443 807 490 836 q 338 746 396 778 l 268 851 z "},"â":{"ha":718,"x_min":63,"x_max":642,"o":"m 474 0 l 464 49 q 362 3 419 21 q 260 -14 304 -14 q 108 44 154 -14 q 63 199 63 103 q 116 352 63 308 q 264 396 169 396 l 442 396 l 442 433 q 416 509 442 492 q 324 526 390 526 q 229 519 279 526 q 139 499 179 511 l 113 653 q 165 668 135 661 q 227 680 194 675 q 294 688 260 685 q 363 690 329 690 q 496 677 442 690 q 582 633 550 664 q 628 553 614 603 q 642 432 642 504 l 642 0 l 474 0 m 442 264 l 314 264 q 268 249 282 264 q 254 201 254 233 q 267 148 254 169 q 319 126 281 126 q 391 135 360 126 q 442 154 422 144 l 442 264 m 179 819 q 277 898 225 856 q 378 982 329 940 q 478 898 426 940 q 576 819 531 856 l 515 738 q 474 763 492 751 q 441 784 457 774 q 410 805 425 794 q 378 828 396 815 q 345 805 360 815 q 315 784 331 794 q 281 763 299 774 q 240 738 264 751 l 179 819 z "},"ã":{"ha":718,"x_min":63,"x_max":642,"o":"m 474 0 l 464 49 q 362 3 419 21 q 260 -14 304 -14 q 108 44 154 -14 q 63 199 63 103 q 116 352 63 308 q 264 396 169 396 l 442 396 l 442 433 q 416 509 442 492 q 324 526 390 526 q 229 519 279 526 q 139 499 179 511 l 113 653 q 165 668 135 661 q 227 680 194 675 q 294 688 260 685 q 363 690 329 690 q 496 677 442 690 q 582 633 550 664 q 628 553 614 603 q 642 432 642 504 l 642 0 l 474 0 m 442 264 l 314 264 q 268 249 282 264 q 254 201 254 233 q 267 148 254 169 q 319 126 281 126 q 391 135 360 126 q 442 154 422 144 l 442 264 m 456 758 q 404 765 425 758 q 363 788 383 772 q 330 810 343 801 q 299 818 317 818 q 258 797 275 818 q 229 756 242 775 l 149 818 q 209 902 172 865 q 294 939 246 939 q 340 933 319 939 q 385 910 360 926 q 424 886 408 894 q 456 878 440 878 q 490 892 479 878 q 508 935 501 907 l 603 892 q 547 794 585 829 q 456 758 510 758 z "},"ä":{"ha":718,"x_min":63,"x_max":642,"o":"m 474 0 l 464 49 q 362 3 419 21 q 260 -14 304 -14 q 108 44 154 -14 q 63 199 63 103 q 116 352 63 308 q 264 396 169 396 l 442 396 l 442 433 q 416 509 442 492 q 324 526 390 526 q 229 519 279 526 q 139 499 179 511 l 113 653 q 165 668 135 661 q 227 680 194 675 q 294 688 260 685 q 363 690 329 690 q 496 677 442 690 q 582 633 550 664 q 628 553 614 603 q 642 432 642 504 l 642 0 l 474 0 m 442 264 l 314 264 q 268 249 282 264 q 254 201 254 233 q 267 148 254 169 q 319 126 281 126 q 391 135 360 126 q 442 154 422 144 l 442 264 m 158 769 l 158 933 l 317 933 l 317 769 l 158 769 m 450 769 l 450 933 l 608 933 l 608 769 l 450 769 z "},"å":{"ha":718,"x_min":63,"x_max":642,"o":"m 474 0 l 464 49 q 362 3 419 21 q 260 -14 304 -14 q 108 44 154 -14 q 63 199 63 103 q 116 352 63 308 q 264 396 169 396 l 442 396 l 442 433 q 416 509 442 492 q 324 526 390 526 q 229 519 279 526 q 139 499 179 511 l 113 653 q 165 668 135 661 q 227 680 194 675 q 294 688 260 685 q 363 690 329 690 q 496 677 442 690 q 582 633 550 664 q 628 553 614 603 q 642 432 642 504 l 642 0 l 474 0 m 442 264 l 314 264 q 268 249 282 264 q 254 201 254 233 q 267 148 254 169 q 319 126 281 126 q 391 135 360 126 q 442 154 422 144 l 442 264 m 526 871 q 492 780 526 818 q 392 742 458 742 q 291 777 325 742 q 257 871 257 813 q 292 962 257 924 q 392 1000 326 1000 q 492 962 458 1000 q 526 871 526 924 m 443 871 q 429 911 443 896 q 392 926 415 926 q 354 911 368 926 q 340 871 340 896 q 354 831 340 846 q 392 815 368 815 q 429 831 415 815 q 443 871 443 846 z "},"æ":{"ha":1081,"x_min":63,"x_max":1025,"o":"m 642 267 l 642 238 q 675 163 644 188 q 772 139 706 139 q 826 142 797 139 q 885 149 856 144 q 941 160 914 154 q 989 172 968 165 l 1018 29 q 900 -1 971 13 q 756 -14 829 -14 q 529 53 608 -14 q 414 3 478 21 q 267 -14 350 -14 q 113 44 163 -14 q 63 199 63 103 q 116 352 63 308 q 264 396 169 396 l 442 396 l 442 433 q 416 509 442 492 q 324 526 390 526 q 229 519 279 526 q 139 499 179 511 l 113 653 q 165 668 135 661 q 227 680 194 675 q 294 688 260 685 q 363 690 329 690 q 469 676 425 690 q 549 638 513 663 q 629 676 581 661 q 742 690 678 690 q 882 667 826 690 q 969 606 938 644 q 1013 516 1000 567 q 1025 410 1025 465 l 1025 267 l 642 267 m 836 456 q 815 517 836 492 q 742 542 794 542 q 663 517 685 542 q 642 456 642 493 l 642 396 l 836 396 l 836 456 m 321 126 q 397 135 360 126 q 457 157 433 144 q 445 208 449 181 q 442 264 442 235 l 442 267 l 314 267 q 268 250 282 267 q 254 201 254 233 q 267 148 254 169 q 321 126 281 126 z "},"ç":{"ha":564,"x_min":49,"x_max":522,"o":"m 249 258 q 273 181 249 206 q 358 157 297 157 q 429 161 397 157 q 497 174 461 165 l 522 7 q 433 -9 471 -4 q 358 -14 394 -14 l 349 -65 q 456 -78 425 -54 q 486 -160 486 -101 q 452 -243 486 -212 q 331 -274 418 -274 q 273 -267 308 -274 q 214 -251 238 -261 l 233 -175 q 275 -185 251 -181 q 319 -189 299 -189 q 368 -183 351 -189 q 385 -158 385 -178 q 373 -131 385 -135 q 336 -128 361 -128 q 310 -128 325 -128 q 278 -131 294 -129 l 250 -107 l 271 -8 q 101 72 153 7 q 49 261 49 136 l 49 415 q 66 540 49 488 q 121 625 83 592 q 217 674 158 658 q 358 690 276 690 q 433 685 394 690 q 522 669 471 681 l 497 503 q 426 515 465 510 q 358 519 388 519 q 273 495 297 519 q 249 418 249 471 l 249 258 z "},"è":{"ha":694,"x_min":56,"x_max":639,"o":"m 256 267 l 256 249 q 286 169 256 193 q 386 144 317 144 q 440 147 411 144 q 499 155 469 150 q 555 165 528 160 q 603 178 582 171 l 632 29 q 514 -1 585 13 q 369 -14 443 -14 q 132 61 208 -14 q 56 261 56 136 l 56 419 q 70 523 56 474 q 119 610 85 572 q 212 669 154 647 q 356 690 269 690 q 496 667 440 690 q 583 606 551 644 q 626 516 614 567 q 639 410 639 465 l 639 267 l 256 267 m 450 456 q 429 517 450 492 q 356 542 408 542 q 277 517 299 542 q 256 456 256 493 l 256 408 l 450 408 l 450 456 m 376 746 q 271 807 318 778 q 161 876 224 836 l 236 993 q 343 918 292 953 q 446 851 394 883 l 376 746 z "},"é":{"ha":694,"x_min":56,"x_max":639,"o":"m 256 267 l 256 249 q 286 169 256 193 q 386 144 317 144 q 440 147 411 144 q 499 155 469 150 q 555 165 528 160 q 603 178 582 171 l 632 29 q 514 -1 585 13 q 369 -14 443 -14 q 132 61 208 -14 q 56 261 56 136 l 56 419 q 70 523 56 474 q 119 610 85 572 q 212 669 154 647 q 356 690 269 690 q 496 667 440 690 q 583 606 551 644 q 626 516 614 567 q 639 410 639 465 l 639 267 l 256 267 m 450 456 q 429 517 450 492 q 356 542 408 542 q 277 517 299 542 q 256 456 256 493 l 256 408 l 450 408 l 450 456 m 244 851 q 347 918 296 883 q 454 993 399 953 l 529 876 q 419 807 467 836 q 314 746 372 778 l 244 851 z "},"ê":{"ha":694,"x_min":56,"x_max":639,"o":"m 256 267 l 256 249 q 286 169 256 193 q 386 144 317 144 q 440 147 411 144 q 499 155 469 150 q 555 165 528 160 q 603 178 582 171 l 632 29 q 514 -1 585 13 q 369 -14 443 -14 q 132 61 208 -14 q 56 261 56 136 l 56 419 q 70 523 56 474 q 119 610 85 572 q 212 669 154 647 q 356 690 269 690 q 496 667 440 690 q 583 606 551 644 q 626 516 614 567 q 639 410 639 465 l 639 267 l 256 267 m 450 456 q 429 517 450 492 q 356 542 408 542 q 277 517 299 542 q 256 456 256 493 l 256 408 l 450 408 l 450 456 m 147 819 q 245 898 193 856 q 346 982 297 940 q 447 898 394 940 q 544 819 499 856 l 483 738 q 442 763 460 751 q 409 784 425 774 q 378 805 393 794 q 346 828 364 815 q 313 805 328 815 q 283 784 299 794 q 249 763 267 774 q 208 738 232 751 l 147 819 z "},"ë":{"ha":694,"x_min":56,"x_max":639,"o":"m 256 267 l 256 249 q 286 169 256 193 q 386 144 317 144 q 440 147 411 144 q 499 155 469 150 q 555 165 528 160 q 603 178 582 171 l 632 29 q 514 -1 585 13 q 369 -14 443 -14 q 132 61 208 -14 q 56 261 56 136 l 56 419 q 70 523 56 474 q 119 610 85 572 q 212 669 154 647 q 356 690 269 690 q 496 667 440 690 q 583 606 551 644 q 626 516 614 567 q 639 410 639 465 l 639 267 l 256 267 m 450 456 q 429 517 450 492 q 356 542 408 542 q 277 517 299 542 q 256 456 256 493 l 256 408 l 450 408 l 450 456 m 124 769 l 124 933 l 282 933 l 282 769 l 124 769 m 415 769 l 415 933 l 574 933 l 574 769 l 415 769 z "},"ì":{"ha":381,"x_min":1,"x_max":290,"o":"m 90 0 l 90 676 l 290 676 l 290 0 l 90 0 m 217 746 q 111 807 158 778 q 1 876 64 836 l 76 993 q 183 918 132 953 q 286 851 235 883 l 217 746 z "},"í":{"ha":381,"x_min":90,"x_max":390,"o":"m 90 0 l 90 676 l 290 676 l 290 0 l 90 0 m 106 851 q 208 918 157 883 q 315 993 260 953 l 390 876 q 281 807 328 836 q 175 746 233 778 l 106 851 z "},"î":{"ha":381,"x_min":-8,"x_max":389,"o":"m 90 0 l 90 676 l 290 676 l 290 0 l 90 0 m -8 819 q 90 898 38 856 q 190 982 142 940 q 291 898 239 940 q 389 819 343 856 l 328 738 q 287 763 304 751 q 253 784 269 774 q 223 805 238 794 q 190 828 208 815 q 158 805 172 815 q 127 784 143 794 q 94 763 111 774 q 53 738 76 751 l -8 819 z "},"ï":{"ha":381,"x_min":-35,"x_max":415,"o":"m 90 0 l 90 676 l 290 676 l 290 0 l 90 0 m -35 769 l -35 933 l 124 933 l 124 769 l -35 769 m 257 769 l 257 933 l 415 933 l 415 769 l 257 769 z "},"ð":{"ha":681,"x_min":69,"x_max":625,"o":"m 475 931 l 538 868 l 481 813 q 625 489 625 696 l 625 240 q 612 142 625 188 q 567 61 599 96 q 482 6 535 26 q 349 -14 429 -14 q 203 8 258 -14 q 119 68 149 31 q 79 153 89 106 q 69 254 69 201 l 69 296 q 122 475 69 421 q 292 529 175 529 q 328 528 313 529 q 358 524 344 526 q 388 518 372 522 q 425 508 404 514 l 425 524 q 406 619 425 579 q 353 689 386 660 l 254 593 l 192 656 l 275 736 q 199 762 239 751 q 114 781 158 772 l 144 939 q 288 910 222 929 q 406 863 353 890 l 475 931 m 346 154 q 408 173 390 154 q 425 240 425 192 l 425 336 q 377 354 400 347 q 325 361 354 361 q 281 348 297 361 q 265 292 265 335 l 265 235 q 283 175 265 196 q 346 154 301 154 z "},"ñ":{"ha":768,"x_min":90,"x_max":685,"o":"m 485 0 l 485 447 q 436 496 485 496 q 404 492 422 496 q 366 481 386 488 q 326 465 346 474 q 290 447 307 456 l 290 0 l 90 0 l 90 676 l 239 676 l 260 625 q 397 673 322 656 q 529 690 471 690 q 602 675 572 690 q 650 631 632 660 q 676 563 668 603 q 685 474 685 522 l 685 0 l 485 0 m 476 758 q 425 765 446 758 q 383 788 404 772 q 351 810 364 801 q 319 818 338 818 q 279 797 296 818 q 250 756 263 775 l 169 818 q 230 902 193 865 q 315 939 267 939 q 360 933 340 939 q 406 910 381 926 q 445 886 429 894 q 476 878 461 878 q 511 892 500 878 q 529 935 522 907 l 624 892 q 568 794 606 829 q 476 758 531 758 z "},"ò":{"ha":722,"x_min":56,"x_max":667,"o":"m 361 -14 q 212 9 271 -14 q 118 71 153 32 q 69 158 83 110 q 56 260 56 207 l 56 417 q 69 517 56 468 q 118 606 83 567 q 212 667 153 644 q 361 690 271 690 q 510 667 451 690 q 604 606 569 644 q 653 517 639 567 q 667 417 667 468 l 667 260 q 653 158 667 207 q 604 71 639 110 q 510 9 569 32 q 361 -14 451 -14 m 361 154 q 441 180 415 154 q 467 254 467 206 l 467 422 q 441 497 467 471 q 361 522 415 522 q 281 497 307 522 q 256 422 256 471 l 256 254 q 281 180 256 206 q 361 154 307 154 m 383 746 q 278 807 325 778 q 168 876 231 836 l 243 993 q 350 918 299 953 q 453 851 401 883 l 383 746 z "},"ó":{"ha":722,"x_min":56,"x_max":667,"o":"m 361 -14 q 212 9 271 -14 q 118 71 153 32 q 69 158 83 110 q 56 260 56 207 l 56 417 q 69 517 56 468 q 118 606 83 567 q 212 667 153 644 q 361 690 271 690 q 510 667 451 690 q 604 606 569 644 q 653 517 639 567 q 667 417 667 468 l 667 260 q 653 158 667 207 q 604 71 639 110 q 510 9 569 32 q 361 -14 451 -14 m 361 154 q 441 180 415 154 q 467 254 467 206 l 467 422 q 441 497 467 471 q 361 522 415 522 q 281 497 307 522 q 256 422 256 471 l 256 254 q 281 180 256 206 q 361 154 307 154 m 267 851 q 369 918 318 883 q 476 993 421 953 l 551 876 q 442 807 489 836 q 336 746 394 778 l 267 851 z "},"ô":{"ha":722,"x_min":56,"x_max":667,"o":"m 361 -14 q 212 9 271 -14 q 118 71 153 32 q 69 158 83 110 q 56 260 56 207 l 56 417 q 69 517 56 468 q 118 606 83 567 q 212 667 153 644 q 361 690 271 690 q 510 667 451 690 q 604 606 569 644 q 653 517 639 567 q 667 417 667 468 l 667 260 q 653 158 667 207 q 604 71 639 110 q 510 9 569 32 q 361 -14 451 -14 m 361 154 q 441 180 415 154 q 467 254 467 206 l 467 422 q 441 497 467 471 q 361 522 415 522 q 281 497 307 522 q 256 422 256 471 l 256 254 q 281 180 256 206 q 361 154 307 154 m 163 819 q 260 898 208 856 q 361 982 313 940 q 462 898 410 940 q 560 819 514 856 l 499 738 q 458 763 475 751 q 424 784 440 774 q 394 805 408 794 q 361 828 379 815 q 328 805 343 815 q 298 784 314 794 q 265 763 282 774 q 224 738 247 751 l 163 819 z "},"õ":{"ha":722,"x_min":56,"x_max":667,"o":"m 361 -14 q 212 9 271 -14 q 118 71 153 32 q 69 158 83 110 q 56 260 56 207 l 56 417 q 69 517 56 468 q 118 606 83 567 q 212 667 153 644 q 361 690 271 690 q 510 667 451 690 q 604 606 569 644 q 653 517 639 567 q 667 417 667 468 l 667 260 q 653 158 667 207 q 604 71 639 110 q 510 9 569 32 q 361 -14 451 -14 m 361 154 q 441 180 415 154 q 467 254 467 206 l 467 422 q 441 497 467 471 q 361 522 415 522 q 281 497 307 522 q 256 422 256 471 l 256 254 q 281 180 256 206 q 361 154 307 154 m 442 758 q 390 765 411 758 q 349 788 369 772 q 316 810 329 801 q 285 818 303 818 q 244 797 261 818 q 215 756 228 775 l 135 818 q 195 902 158 865 q 281 939 232 939 q 326 933 306 939 q 371 910 346 926 q 410 886 394 894 q 442 878 426 878 q 476 892 465 878 q 494 935 488 907 l 589 892 q 533 794 571 829 q 442 758 496 758 z "},"ö":{"ha":722,"x_min":56,"x_max":667,"o":"m 361 -14 q 212 9 271 -14 q 118 71 153 32 q 69 158 83 110 q 56 260 56 207 l 56 417 q 69 517 56 468 q 118 606 83 567 q 212 667 153 644 q 361 690 271 690 q 510 667 451 690 q 604 606 569 644 q 653 517 639 567 q 667 417 667 468 l 667 260 q 653 158 667 207 q 604 71 639 110 q 510 9 569 32 q 361 -14 451 -14 m 361 154 q 441 180 415 154 q 467 254 467 206 l 467 422 q 441 497 467 471 q 361 522 415 522 q 281 497 307 522 q 256 422 256 471 l 256 254 q 281 180 256 206 q 361 154 307 154 m 136 769 l 136 933 l 294 933 l 294 769 l 136 769 m 428 769 l 428 933 l 586 933 l 586 769 l 428 769 z "},"÷":{"ha":728,"x_min":76,"x_max":651,"o":"m 271 0 l 271 189 l 457 189 l 457 0 l 271 0 m 76 275 l 76 403 l 651 403 l 651 275 l 76 275 m 271 488 l 271 676 l 457 676 l 457 488 l 271 488 z "},"ø":{"ha":722,"x_min":56,"x_max":667,"o":"m 361 -14 q 261 -5 304 -14 q 185 21 218 4 l 121 -69 l 60 -28 l 124 64 q 71 154 86 103 q 56 260 56 206 l 56 417 q 69 517 56 468 q 118 606 83 567 q 212 667 153 644 q 361 690 271 690 q 461 681 418 690 q 538 656 504 672 l 601 746 l 663 703 l 599 611 q 651 522 636 572 q 667 417 667 471 l 667 260 q 653 158 667 207 q 604 71 639 110 q 510 9 569 32 q 361 -14 451 -14 m 256 251 l 432 504 q 361 522 404 522 q 281 497 307 522 q 256 422 256 471 l 256 254 l 256 251 m 361 154 q 441 180 415 154 q 467 254 467 206 l 467 422 l 290 172 q 361 154 314 154 z "},"ù":{"ha":768,"x_min":83,"x_max":678,"o":"m 283 676 l 283 229 q 332 181 283 181 q 364 185 346 181 q 402 196 382 189 q 442 212 422 203 q 478 229 461 221 l 478 676 l 678 676 l 678 0 l 529 0 l 508 51 q 372 3 446 21 q 239 -14 297 -14 q 118 45 153 -14 q 83 203 83 104 l 83 676 l 283 676 m 408 746 q 303 807 350 778 q 193 876 256 836 l 268 993 q 375 918 324 953 q 478 851 426 883 l 408 746 z "},"ú":{"ha":768,"x_min":83,"x_max":678,"o":"m 283 676 l 283 229 q 332 181 283 181 q 364 185 346 181 q 402 196 382 189 q 442 212 422 203 q 478 229 461 221 l 478 676 l 678 676 l 678 0 l 529 0 l 508 51 q 372 3 446 21 q 239 -14 297 -14 q 118 45 153 -14 q 83 203 83 104 l 83 676 l 283 676 m 285 851 q 388 918 336 883 q 494 993 439 953 l 569 876 q 460 807 507 836 q 354 746 413 778 l 285 851 z "},"û":{"ha":768,"x_min":83,"x_max":678,"o":"m 283 676 l 283 229 q 332 181 283 181 q 364 185 346 181 q 402 196 382 189 q 442 212 422 203 q 478 229 461 221 l 478 676 l 678 676 l 678 0 l 529 0 l 508 51 q 372 3 446 21 q 239 -14 297 -14 q 118 45 153 -14 q 83 203 83 104 l 83 676 l 283 676 m 199 819 q 297 898 244 856 q 397 982 349 940 q 498 898 446 940 q 596 819 550 856 l 535 738 q 494 763 511 751 q 460 784 476 774 q 430 805 444 794 q 397 828 415 815 q 365 805 379 815 q 334 784 350 794 q 301 763 318 774 q 260 738 283 751 l 199 819 z "},"ü":{"ha":768,"x_min":83,"x_max":678,"o":"m 283 676 l 283 229 q 332 181 283 181 q 364 185 346 181 q 402 196 382 189 q 442 212 422 203 q 478 229 461 221 l 478 676 l 678 676 l 678 0 l 529 0 l 508 51 q 372 3 446 21 q 239 -14 297 -14 q 118 45 153 -14 q 83 203 83 104 l 83 676 l 283 676 m 172 769 l 172 933 l 331 933 l 331 769 l 172 769 m 464 769 l 464 933 l 622 933 l 622 769 l 464 769 z "},"ý":{"ha":688,"x_min":7,"x_max":688,"o":"m 200 -274 l 279 0 l 215 0 l 7 676 l 210 676 l 347 197 l 485 676 l 688 676 l 475 0 l 389 -274 l 200 -274 m 268 851 q 371 918 319 883 q 478 993 422 953 l 553 876 q 443 807 490 836 q 338 746 396 778 l 268 851 z "},"þ":{"ha":746,"x_min":90,"x_max":690,"o":"m 90 953 l 290 981 l 290 635 q 377 673 326 656 q 476 690 428 690 q 635 628 581 690 q 690 440 690 565 l 690 236 q 636 51 690 115 q 463 -14 582 -14 q 373 -8 421 -14 q 290 6 325 -3 l 290 -274 l 90 -301 l 90 953 m 290 176 q 351 165 317 169 q 418 160 386 160 q 474 181 458 160 q 490 236 490 203 l 490 440 q 474 497 490 476 q 418 517 458 517 q 348 500 383 517 q 290 464 313 483 l 290 176 z "},"ÿ":{"ha":688,"x_min":7,"x_max":688,"o":"m 200 -274 l 279 0 l 215 0 l 7 676 l 210 676 l 347 197 l 485 676 l 688 676 l 475 0 l 389 -274 l 200 -274 m 122 769 l 122 933 l 281 933 l 281 769 l 122 769 m 414 769 l 414 933 l 572 933 l 572 769 l 414 769 z "},"Ā":{"ha":871,"x_min":14,"x_max":857,"o":"m 857 0 l 640 0 l 590 181 l 281 181 l 231 0 l 14 0 l 296 925 l 574 925 l 857 0 m 328 354 l 540 354 l 435 742 l 328 354 m 258 1014 l 258 1142 l 611 1142 l 611 1014 l 258 1014 z "},"ā":{"ha":718,"x_min":63,"x_max":642,"o":"m 474 0 l 464 49 q 362 3 419 21 q 260 -14 304 -14 q 108 44 154 -14 q 63 199 63 103 q 116 352 63 308 q 264 396 169 396 l 442 396 l 442 433 q 416 509 442 492 q 324 526 390 526 q 229 519 279 526 q 139 499 179 511 l 113 653 q 165 668 135 661 q 227 680 194 675 q 294 688 260 685 q 363 690 329 690 q 496 677 442 690 q 582 633 550 664 q 628 553 614 603 q 642 432 642 504 l 642 0 l 474 0 m 442 264 l 314 264 q 268 249 282 264 q 254 201 254 233 q 267 148 254 169 q 319 126 281 126 q 391 135 360 126 q 442 154 422 144 l 442 264 m 203 778 l 203 906 l 556 906 l 556 778 l 203 778 z "},"Ă":{"ha":871,"x_min":14,"x_max":857,"o":"m 857 0 l 640 0 l 590 181 l 281 181 l 231 0 l 14 0 l 296 925 l 574 925 l 857 0 m 328 354 l 540 354 l 435 742 l 328 354 m 633 1143 q 572 1035 621 1079 q 435 990 522 990 q 298 1035 347 990 q 236 1143 249 1079 l 329 1188 q 366 1121 340 1146 q 435 1096 392 1096 q 503 1121 478 1096 q 540 1188 529 1146 l 633 1143 z "},"ă":{"ha":718,"x_min":63,"x_max":642,"o":"m 474 0 l 464 49 q 362 3 419 21 q 260 -14 304 -14 q 108 44 154 -14 q 63 199 63 103 q 116 352 63 308 q 264 396 169 396 l 442 396 l 442 433 q 416 509 442 492 q 324 526 390 526 q 229 519 279 526 q 139 499 179 511 l 113 653 q 165 668 135 661 q 227 680 194 675 q 294 688 260 685 q 363 690 329 690 q 496 677 442 690 q 582 633 550 664 q 628 553 614 603 q 642 432 642 504 l 642 0 l 474 0 m 442 264 l 314 264 q 268 249 282 264 q 254 201 254 233 q 267 148 254 169 q 319 126 281 126 q 391 135 360 126 q 442 154 422 144 l 442 264 m 601 913 q 581 849 597 881 q 538 794 565 818 q 474 756 511 771 q 388 742 436 742 q 301 756 339 742 q 237 794 264 771 q 194 849 210 818 q 174 913 178 881 l 267 957 q 308 885 278 915 q 388 856 338 856 q 467 885 438 856 q 508 957 497 915 l 601 913 z "},"Ą":{"ha":871,"x_min":14,"x_max":857,"o":"m 857 0 l 808 0 q 769 -31 789 -15 q 735 -65 750 -47 q 710 -99 719 -82 q 700 -132 700 -117 q 747 -174 700 -174 q 771 -172 758 -174 q 796 -168 783 -171 l 808 -272 q 764 -284 788 -281 q 717 -287 740 -287 q 608 -256 650 -287 q 567 -160 567 -224 q 579 -107 567 -132 q 614 -61 592 -82 q 664 -25 636 -40 q 724 0 692 -10 l 640 0 l 590 181 l 281 181 l 231 0 l 14 0 l 296 925 l 574 925 l 857 0 m 328 354 l 540 354 l 435 742 l 328 354 z "},"ą":{"ha":718,"x_min":63,"x_max":642,"o":"m 474 0 l 464 49 q 362 3 419 21 q 260 -14 304 -14 q 108 44 154 -14 q 63 199 63 103 q 116 352 63 308 q 264 396 169 396 l 442 396 l 442 433 q 416 509 442 492 q 324 526 390 526 q 229 519 279 526 q 139 499 179 511 l 113 653 q 165 668 135 661 q 227 680 194 675 q 294 688 260 685 q 363 690 329 690 q 496 677 442 690 q 582 633 550 664 q 628 553 614 603 q 642 432 642 504 l 642 0 q 606 -29 625 -14 q 571 -61 588 -44 q 544 -96 554 -78 q 533 -132 533 -114 q 581 -174 533 -174 q 604 -172 592 -174 q 629 -168 617 -171 l 642 -272 q 597 -284 621 -281 q 550 -287 574 -287 q 442 -256 483 -287 q 400 -160 400 -224 q 439 -69 400 -108 q 536 0 478 -29 l 474 0 m 442 264 l 314 264 q 268 249 282 264 q 254 201 254 233 q 267 148 254 169 q 319 126 281 126 q 391 135 360 126 q 442 154 422 144 l 442 264 z "},"Ć":{"ha":724,"x_min":69,"x_max":675,"o":"m 278 303 q 283 249 278 272 q 303 208 289 225 q 343 183 318 192 q 407 175 368 175 q 521 181 457 175 q 646 197 585 186 l 675 15 q 542 -7 606 0 q 407 -14 478 -14 q 256 7 319 -14 q 151 65 192 28 q 90 155 110 103 q 69 269 69 207 l 69 656 q 90 770 69 718 q 151 860 110 822 q 256 918 192 897 q 407 939 319 939 q 542 932 478 939 q 675 910 606 925 l 646 728 q 521 744 585 739 q 407 750 457 750 q 343 742 368 750 q 303 717 318 733 q 283 676 289 700 q 278 622 278 653 l 278 303 m 308 1088 q 408 1151 360 1119 q 497 1215 457 1183 l 572 1099 q 525 1066 547 1081 q 480 1038 503 1051 q 432 1011 457 1025 q 378 982 407 997 l 308 1088 z "},"ć":{"ha":564,"x_min":49,"x_max":522,"o":"m 249 258 q 273 181 249 206 q 358 157 297 157 q 429 161 397 157 q 497 174 461 165 l 522 7 q 433 -9 471 -4 q 358 -14 394 -14 q 217 2 276 -14 q 121 51 158 18 q 66 137 83 85 q 49 261 49 189 l 49 415 q 66 540 49 488 q 121 625 83 592 q 217 674 158 658 q 358 690 276 690 q 433 685 394 690 q 522 669 471 681 l 497 503 q 426 515 465 510 q 358 519 388 519 q 273 495 297 519 q 249 418 249 471 l 249 258 m 207 851 q 310 918 258 883 q 417 993 361 953 l 492 876 q 382 807 429 836 q 276 746 335 778 l 207 851 z "},"Ĉ":{"ha":724,"x_min":69,"x_max":675,"o":"m 278 303 q 283 249 278 272 q 303 208 289 225 q 343 183 318 192 q 407 175 368 175 q 521 181 457 175 q 646 197 585 186 l 675 15 q 542 -7 606 0 q 407 -14 478 -14 q 256 7 319 -14 q 151 65 192 28 q 90 155 110 103 q 69 269 69 207 l 69 656 q 90 770 69 718 q 151 860 110 822 q 256 918 192 897 q 407 939 319 939 q 542 932 478 939 q 675 910 606 925 l 646 728 q 521 744 585 739 q 407 750 457 750 q 343 742 368 750 q 303 717 318 733 q 283 676 289 700 q 278 622 278 653 l 278 303 m 533 989 q 470 1019 496 1006 q 410 1051 444 1032 q 349 1019 375 1032 q 286 989 324 1006 l 232 1075 q 321 1138 281 1108 q 410 1206 361 1168 q 499 1138 458 1168 q 588 1075 539 1108 l 533 989 z "},"ĉ":{"ha":564,"x_min":49,"x_max":522,"o":"m 249 258 q 273 181 249 206 q 358 157 297 157 q 429 161 397 157 q 497 174 461 165 l 522 7 q 433 -9 471 -4 q 358 -14 394 -14 q 217 2 276 -14 q 121 51 158 18 q 66 137 83 85 q 49 261 49 189 l 49 415 q 66 540 49 488 q 121 625 83 592 q 217 674 158 658 q 358 690 276 690 q 433 685 394 690 q 522 669 471 681 l 497 503 q 426 515 465 510 q 358 519 388 519 q 273 495 297 519 q 249 418 249 471 l 249 258 m 119 819 q 217 898 165 856 q 318 982 269 940 q 419 898 367 940 q 517 819 471 856 l 456 738 q 415 763 432 751 q 381 784 397 774 q 351 805 365 794 q 318 828 336 815 q 285 805 300 815 q 255 784 271 794 q 222 763 239 774 q 181 738 204 751 l 119 819 z "},"Ċ":{"ha":724,"x_min":69,"x_max":675,"o":"m 278 303 q 283 249 278 272 q 303 208 289 225 q 343 183 318 192 q 407 175 368 175 q 521 181 457 175 q 646 197 585 186 l 675 15 q 542 -7 606 0 q 407 -14 478 -14 q 256 7 319 -14 q 151 65 192 28 q 90 155 110 103 q 69 269 69 207 l 69 656 q 90 770 69 718 q 151 860 110 822 q 256 918 192 897 q 407 939 319 939 q 542 932 478 939 q 675 910 606 925 l 646 728 q 521 744 585 739 q 407 750 457 750 q 343 742 368 750 q 303 717 318 733 q 283 676 289 700 q 278 622 278 653 l 278 303 m 308 1011 l 308 1224 l 508 1224 l 508 1011 l 308 1011 z "},"ċ":{"ha":564,"x_min":49,"x_max":522,"o":"m 249 258 q 273 181 249 206 q 358 157 297 157 q 429 161 397 157 q 497 174 461 165 l 522 7 q 433 -9 471 -4 q 358 -14 394 -14 q 217 2 276 -14 q 121 51 158 18 q 66 137 83 85 q 49 261 49 189 l 49 415 q 66 540 49 488 q 121 625 83 592 q 217 674 158 658 q 358 690 276 690 q 433 685 394 690 q 522 669 471 681 l 497 503 q 426 515 465 510 q 358 519 388 519 q 273 495 297 519 q 249 418 249 471 l 249 258 m 217 761 l 217 974 l 417 974 l 417 761 l 217 761 z "},"Č":{"ha":724,"x_min":69,"x_max":675,"o":"m 278 303 q 283 249 278 272 q 303 208 289 225 q 343 183 318 192 q 407 175 368 175 q 521 181 457 175 q 646 197 585 186 l 675 15 q 542 -7 606 0 q 407 -14 478 -14 q 256 7 319 -14 q 151 65 192 28 q 90 155 110 103 q 69 269 69 207 l 69 656 q 90 770 69 718 q 151 860 110 822 q 256 918 192 897 q 407 939 319 939 q 542 932 478 939 q 675 910 606 925 l 646 728 q 521 744 585 739 q 407 750 457 750 q 343 742 368 750 q 303 717 318 733 q 283 676 289 700 q 278 622 278 653 l 278 303 m 589 1121 q 500 1058 540 1088 q 411 990 460 1028 q 322 1058 363 1028 q 233 1121 282 1088 l 288 1207 q 351 1177 325 1190 q 411 1144 376 1164 q 472 1177 446 1164 q 535 1207 497 1190 l 589 1121 z "},"č":{"ha":564,"x_min":49,"x_max":525,"o":"m 249 258 q 273 181 249 206 q 358 157 297 157 q 429 161 397 157 q 497 174 461 165 l 522 7 q 433 -9 471 -4 q 358 -14 394 -14 q 217 2 276 -14 q 121 51 158 18 q 66 137 83 85 q 49 261 49 189 l 49 415 q 66 540 49 488 q 121 625 83 592 q 217 674 158 658 q 358 690 276 690 q 433 685 394 690 q 522 669 471 681 l 497 503 q 426 515 465 510 q 358 519 388 519 q 273 495 297 519 q 249 418 249 471 l 249 258 m 189 976 q 230 951 213 963 q 263 930 247 940 q 294 909 279 919 q 326 886 308 899 q 359 909 344 899 q 390 930 374 919 q 423 951 406 940 q 464 976 440 963 l 525 894 q 427 816 479 858 q 326 732 375 774 q 226 816 278 774 q 128 894 174 858 l 189 976 z "},"Ď":{"ha":831,"x_min":90,"x_max":761,"o":"m 761 240 q 744 151 761 194 q 690 74 728 107 q 593 20 653 40 q 449 0 533 0 l 90 0 l 90 925 l 449 925 q 593 905 533 925 q 690 851 653 885 q 744 775 728 818 q 761 685 761 732 l 761 240 m 553 628 q 527 711 553 682 q 424 740 501 740 l 299 740 l 299 185 l 424 185 q 527 214 501 185 q 553 297 553 243 l 553 628 m 586 1121 q 497 1058 538 1088 q 408 990 457 1028 q 319 1058 360 1028 q 231 1121 279 1088 l 285 1207 q 348 1177 322 1190 q 408 1144 374 1164 q 469 1177 443 1164 q 532 1207 494 1190 l 586 1121 z "},"ď":{"ha":861,"x_min":56,"x_max":889,"o":"m 56 440 q 110 626 56 561 q 283 690 164 690 q 373 685 325 690 q 456 671 421 679 l 456 953 l 656 981 l 656 0 l 499 0 l 478 54 q 435 31 460 43 q 383 8 411 18 q 326 -8 356 -1 q 269 -14 297 -14 q 110 49 165 -14 q 56 236 56 111 l 56 440 m 456 500 q 394 512 429 507 q 328 517 360 517 q 272 495 288 517 q 256 440 256 474 l 256 236 q 272 180 256 200 q 328 160 288 160 q 398 176 363 160 q 456 213 433 193 l 456 500 m 817 697 l 761 736 l 803 811 l 736 811 l 736 953 l 889 953 l 889 801 l 817 697 z "},"Đ":{"ha":881,"x_min":35,"x_max":797,"o":"m 35 549 l 126 549 l 126 925 l 485 925 q 629 905 569 925 q 726 851 689 885 q 781 775 764 818 q 797 685 797 732 l 797 240 q 781 151 797 194 q 726 74 764 107 q 629 20 689 40 q 485 0 569 0 l 126 0 l 126 383 l 35 383 l 35 549 m 589 628 q 563 711 589 682 q 460 740 538 740 l 335 740 l 335 549 l 457 549 l 457 383 l 335 383 l 335 185 l 460 185 q 563 214 538 185 q 589 297 589 243 l 589 628 z "},"đ":{"ha":746,"x_min":56,"x_max":738,"o":"m 351 851 l 456 851 l 456 953 l 656 981 l 656 851 l 738 851 l 738 753 l 656 753 l 656 0 l 499 0 l 478 54 q 435 31 460 43 q 383 8 411 18 q 326 -8 356 -1 q 269 -14 297 -14 q 110 49 165 -14 q 56 236 56 111 l 56 440 q 110 626 56 561 q 283 690 164 690 q 373 685 325 690 q 456 671 421 679 l 456 753 l 351 753 l 351 851 m 456 500 q 394 512 429 507 q 328 517 360 517 q 272 495 288 517 q 256 440 256 474 l 256 236 q 272 180 256 200 q 328 160 288 160 q 398 176 363 160 q 456 213 433 193 l 456 500 z "},"Ē":{"ha":742,"x_min":90,"x_max":672,"o":"m 90 0 l 90 925 l 672 925 l 672 740 l 299 740 l 299 571 l 643 571 l 643 386 l 299 386 l 299 185 l 672 185 l 672 0 l 90 0 m 217 1014 l 217 1142 l 569 1142 l 569 1014 l 217 1014 z "},"ē":{"ha":675,"x_min":56,"x_max":639,"o":"m 256 267 l 256 249 q 286 169 256 193 q 386 144 317 144 q 440 147 411 144 q 499 155 469 150 q 555 165 528 160 q 603 178 582 171 l 632 29 q 514 -1 585 13 q 369 -14 443 -14 q 132 61 208 -14 q 56 261 56 136 l 56 419 q 70 523 56 474 q 119 610 85 572 q 212 669 154 647 q 356 690 269 690 q 496 667 440 690 q 583 606 551 644 q 626 516 614 567 q 639 410 639 465 l 639 267 l 256 267 m 450 456 q 429 517 450 492 q 356 542 408 542 q 277 517 299 542 q 256 456 256 493 l 256 408 l 450 408 l 450 456 m 164 778 l 164 906 l 517 906 l 517 778 l 164 778 z "},"Ĕ":{"ha":742,"x_min":90,"x_max":672,"o":"m 90 0 l 90 925 l 672 925 l 672 740 l 299 740 l 299 571 l 643 571 l 643 386 l 299 386 l 299 185 l 672 185 l 672 0 l 90 0 m 599 1143 q 537 1035 586 1079 q 400 990 488 990 q 263 1035 313 990 q 201 1143 214 1079 l 294 1188 q 331 1121 306 1146 q 400 1096 357 1096 q 469 1121 443 1096 q 506 1188 494 1146 l 599 1143 z "},"ĕ":{"ha":675,"x_min":56,"x_max":639,"o":"m 256 267 l 256 249 q 286 169 256 193 q 386 144 317 144 q 440 147 411 144 q 499 155 469 150 q 555 165 528 160 q 603 178 582 171 l 632 29 q 514 -1 585 13 q 369 -14 443 -14 q 132 61 208 -14 q 56 261 56 136 l 56 419 q 70 523 56 474 q 119 610 85 572 q 212 669 154 647 q 356 690 269 690 q 496 667 440 690 q 583 606 551 644 q 626 516 614 567 q 639 410 639 465 l 639 267 l 256 267 m 450 456 q 429 517 450 492 q 356 542 408 542 q 277 517 299 542 q 256 456 256 493 l 256 408 l 450 408 l 450 456 m 563 913 q 542 849 558 881 q 499 794 526 818 q 435 756 472 771 q 349 742 397 742 q 263 756 300 742 q 198 794 225 771 q 155 849 171 818 q 135 913 139 881 l 228 957 q 269 885 239 915 q 349 856 299 856 q 428 885 399 856 q 469 957 458 915 l 563 913 z "},"Ė":{"ha":742,"x_min":90,"x_max":672,"o":"m 90 0 l 90 925 l 672 925 l 672 740 l 299 740 l 299 571 l 643 571 l 643 386 l 299 386 l 299 185 l 672 185 l 672 0 l 90 0 m 294 1011 l 294 1224 l 494 1224 l 494 1011 l 294 1011 z "},"ė":{"ha":675,"x_min":56,"x_max":639,"o":"m 256 267 l 256 249 q 286 169 256 193 q 386 144 317 144 q 440 147 411 144 q 499 155 469 150 q 555 165 528 160 q 603 178 582 171 l 632 29 q 514 -1 585 13 q 369 -14 443 -14 q 132 61 208 -14 q 56 261 56 136 l 56 419 q 70 523 56 474 q 119 610 85 572 q 212 669 154 647 q 356 690 269 690 q 496 667 440 690 q 583 606 551 644 q 626 516 614 567 q 639 410 639 465 l 639 267 l 256 267 m 450 456 q 429 517 450 492 q 356 542 408 542 q 277 517 299 542 q 256 456 256 493 l 256 408 l 450 408 l 450 456 m 243 761 l 243 974 l 443 974 l 443 761 l 243 761 z "},"Ę":{"ha":742,"x_min":90,"x_max":672,"o":"m 615 -272 q 571 -284 594 -281 q 524 -287 547 -287 q 415 -256 457 -287 q 374 -160 374 -224 q 414 -68 374 -108 q 517 0 454 -28 l 90 0 l 90 925 l 672 925 l 672 740 l 299 740 l 299 571 l 643 571 l 643 386 l 299 386 l 299 185 l 672 185 l 672 0 l 615 0 q 576 -31 596 -15 q 542 -65 557 -47 q 517 -99 526 -82 q 507 -132 507 -117 q 554 -174 507 -174 q 578 -172 565 -174 q 603 -168 590 -171 l 615 -272 z "},"ę":{"ha":694,"x_min":56,"x_max":639,"o":"m 256 267 l 256 249 q 286 169 256 193 q 386 144 317 144 q 440 147 411 144 q 499 155 469 150 q 555 165 528 160 q 603 178 582 171 l 632 29 q 515 -53 550 -15 q 479 -132 479 -92 q 525 -174 479 -174 q 559 -172 542 -174 q 589 -165 576 -169 l 601 -271 q 551 -283 581 -279 q 499 -287 522 -287 q 389 -256 432 -287 q 346 -160 346 -224 q 377 -74 346 -117 q 454 -8 408 -32 q 412 -12 433 -11 q 369 -14 390 -14 q 132 61 208 -14 q 56 261 56 136 l 56 419 q 70 523 56 474 q 119 610 85 572 q 212 669 154 647 q 356 690 269 690 q 496 667 440 690 q 583 606 551 644 q 626 516 614 567 q 639 410 639 465 l 639 267 l 256 267 m 450 456 q 429 517 450 492 q 356 542 408 542 q 277 517 299 542 q 256 456 256 493 l 256 408 l 450 408 l 450 456 z "},"Ě":{"ha":742,"x_min":90,"x_max":672,"o":"m 90 0 l 90 925 l 672 925 l 672 740 l 299 740 l 299 571 l 643 571 l 643 386 l 299 386 l 299 185 l 672 185 l 672 0 l 90 0 m 574 1121 q 485 1058 525 1088 q 396 990 444 1028 q 307 1058 347 1028 q 218 1121 267 1088 l 272 1207 q 335 1177 310 1190 q 396 1144 361 1164 q 456 1177 431 1164 q 519 1207 482 1190 l 574 1121 z "},"ě":{"ha":675,"x_min":56,"x_max":639,"o":"m 256 267 l 256 249 q 286 169 256 193 q 386 144 317 144 q 440 147 411 144 q 499 155 469 150 q 555 165 528 160 q 603 178 582 171 l 632 29 q 514 -1 585 13 q 369 -14 443 -14 q 132 61 208 -14 q 56 261 56 136 l 56 419 q 70 523 56 474 q 119 610 85 572 q 212 669 154 647 q 356 690 269 690 q 496 667 440 690 q 583 606 551 644 q 626 516 614 567 q 639 410 639 465 l 639 267 l 256 267 m 450 456 q 429 517 450 492 q 356 542 408 542 q 277 517 299 542 q 256 456 256 493 l 256 408 l 450 408 l 450 456 m 208 976 q 249 951 232 963 q 283 930 267 940 q 313 909 299 919 q 346 886 328 899 q 378 909 364 899 q 409 930 393 919 q 442 951 425 940 q 483 976 460 963 l 544 894 q 447 816 499 858 q 346 732 394 774 q 245 816 297 774 q 147 894 193 858 l 208 976 z "},"Ĝ":{"ha":811,"x_min":69,"x_max":728,"o":"m 728 31 q 570 -3 651 8 q 408 -14 489 -14 q 260 7 324 -14 q 155 65 197 28 q 91 155 113 103 q 69 269 69 207 l 69 656 q 91 772 69 719 q 155 861 113 824 q 260 919 197 899 q 408 939 324 939 q 567 930 489 939 q 704 910 644 921 l 679 728 q 612 736 649 732 q 538 744 575 740 q 467 749 501 747 q 408 750 433 750 q 344 740 369 750 q 303 714 318 731 q 283 674 289 697 q 278 624 278 650 l 278 306 q 283 254 278 278 q 303 213 289 231 q 344 184 318 194 q 408 174 369 174 q 466 175 440 174 q 532 182 492 176 l 532 465 l 728 465 l 728 31 l 728 31 m 547 989 q 484 1019 510 1006 q 424 1051 458 1032 q 363 1019 389 1032 q 300 989 338 1006 l 246 1075 q 335 1138 294 1108 q 424 1206 375 1168 q 513 1138 472 1168 q 601 1075 553 1108 l 547 989 z "},"ĝ":{"ha":672,"x_min":49,"x_max":651,"o":"m 325 172 l 296 172 q 285 139 285 158 q 292 118 285 126 q 318 107 299 110 l 460 90 q 624 -75 624 72 q 606 -177 624 -136 q 550 -242 588 -218 q 455 -277 513 -267 q 318 -287 397 -287 q 260 -285 293 -287 q 192 -277 228 -282 q 119 -265 156 -272 q 49 -250 82 -258 l 78 -110 q 205 -133 143 -125 q 314 -140 267 -140 q 410 -132 379 -140 q 440 -94 440 -124 q 429 -66 440 -75 q 388 -54 418 -57 l 226 -35 q 125 1 164 -28 q 86 93 86 29 q 105 167 86 138 q 147 211 124 196 q 72 288 94 240 q 49 394 49 336 l 49 463 q 113 629 49 568 q 325 690 176 690 q 387 687 358 690 q 440 676 415 683 l 651 676 l 651 567 l 583 549 q 601 463 599 513 l 601 394 q 533 233 601 294 q 325 172 465 172 m 325 322 q 394 341 374 322 q 415 394 415 360 l 415 468 q 395 521 415 501 q 325 540 375 540 q 255 521 275 540 q 235 468 235 501 l 235 394 q 256 341 235 360 q 325 322 276 322 m 143 819 q 241 898 189 856 q 342 982 293 940 q 442 898 390 940 q 540 819 494 856 l 479 738 q 438 763 456 751 q 405 784 421 774 q 374 805 389 794 q 342 828 360 815 q 309 805 324 815 q 278 784 294 794 q 245 763 263 774 q 204 738 228 751 l 143 819 z "},"Ğ":{"ha":811,"x_min":69,"x_max":728,"o":"m 728 31 q 570 -3 651 8 q 408 -14 489 -14 q 260 7 324 -14 q 155 65 197 28 q 91 155 113 103 q 69 269 69 207 l 69 656 q 91 772 69 719 q 155 861 113 824 q 260 919 197 899 q 408 939 324 939 q 567 930 489 939 q 704 910 644 921 l 679 728 q 612 736 649 732 q 538 744 575 740 q 467 749 501 747 q 408 750 433 750 q 344 740 369 750 q 303 714 318 731 q 283 674 289 697 q 278 624 278 650 l 278 306 q 283 254 278 278 q 303 213 289 231 q 344 184 318 194 q 408 174 369 174 q 466 175 440 174 q 532 182 492 176 l 532 465 l 728 465 l 728 31 l 728 31 m 625 1143 q 563 1035 613 1079 q 426 990 514 990 q 290 1035 339 990 q 228 1143 240 1079 l 321 1188 q 358 1121 332 1146 q 426 1096 383 1096 q 495 1121 469 1096 q 532 1188 521 1146 l 625 1143 z "},"ğ":{"ha":672,"x_min":49,"x_max":651,"o":"m 325 172 l 296 172 q 285 139 285 158 q 292 118 285 126 q 318 107 299 110 l 460 90 q 624 -75 624 72 q 606 -177 624 -136 q 550 -242 588 -218 q 455 -277 513 -267 q 318 -287 397 -287 q 260 -285 293 -287 q 192 -277 228 -282 q 119 -265 156 -272 q 49 -250 82 -258 l 78 -110 q 205 -133 143 -125 q 314 -140 267 -140 q 410 -132 379 -140 q 440 -94 440 -124 q 429 -66 440 -75 q 388 -54 418 -57 l 226 -35 q 125 1 164 -28 q 86 93 86 29 q 105 167 86 138 q 147 211 124 196 q 72 288 94 240 q 49 394 49 336 l 49 463 q 113 629 49 568 q 325 690 176 690 q 387 687 358 690 q 440 676 415 683 l 651 676 l 651 567 l 583 549 q 601 463 599 513 l 601 394 q 533 233 601 294 q 325 172 465 172 m 325 322 q 394 341 374 322 q 415 394 415 360 l 415 468 q 395 521 415 501 q 325 540 375 540 q 255 521 275 540 q 235 468 235 501 l 235 394 q 256 341 235 360 q 325 322 276 322 m 560 913 q 540 849 556 881 q 497 794 524 818 q 432 756 469 771 q 346 742 394 742 q 260 756 297 742 q 195 794 222 771 q 152 849 168 818 q 132 913 136 881 l 225 957 q 266 885 236 915 q 346 856 296 856 q 426 885 396 856 q 467 957 456 915 l 560 913 z "},"Ġ":{"ha":811,"x_min":69,"x_max":728,"o":"m 728 31 q 570 -3 651 8 q 408 -14 489 -14 q 260 7 324 -14 q 155 65 197 28 q 91 155 113 103 q 69 269 69 207 l 69 656 q 91 772 69 719 q 155 861 113 824 q 260 919 197 899 q 408 939 324 939 q 567 930 489 939 q 704 910 644 921 l 679 728 q 612 736 649 732 q 538 744 575 740 q 467 749 501 747 q 408 750 433 750 q 344 740 369 750 q 303 714 318 731 q 283 674 289 697 q 278 624 278 650 l 278 306 q 283 254 278 278 q 303 213 289 231 q 344 184 318 194 q 408 174 369 174 q 466 175 440 174 q 532 182 492 176 l 532 465 l 728 465 l 728 31 l 728 31 m 321 1011 l 321 1224 l 521 1224 l 521 1011 l 321 1011 z "},"ġ":{"ha":679,"x_min":49,"x_max":651,"o":"m 325 172 l 296 172 q 285 139 285 158 q 292 118 285 126 q 318 107 299 110 l 460 90 q 624 -75 624 72 q 606 -177 624 -136 q 550 -242 588 -218 q 455 -277 513 -267 q 318 -287 397 -287 q 260 -285 293 -287 q 192 -277 228 -282 q 119 -265 156 -272 q 49 -250 82 -258 l 78 -110 q 205 -133 143 -125 q 314 -140 267 -140 q 410 -132 379 -140 q 440 -94 440 -124 q 429 -66 440 -75 q 388 -54 418 -57 l 226 -35 q 125 1 164 -28 q 86 93 86 29 q 105 167 86 138 q 147 211 124 196 q 72 288 94 240 q 49 394 49 336 l 49 463 q 113 629 49 568 q 325 690 176 690 q 387 687 358 690 q 440 676 415 683 l 651 676 l 651 567 l 583 549 q 601 463 599 513 l 601 394 q 533 233 601 294 q 325 172 465 172 m 325 322 q 394 341 374 322 q 415 394 415 360 l 415 468 q 395 521 415 501 q 325 540 375 540 q 255 521 275 540 q 235 468 235 501 l 235 394 q 256 341 235 360 q 325 322 276 322 m 235 761 l 235 974 l 435 974 l 435 761 l 235 761 z "},"Ģ":{"ha":811,"x_min":69,"x_max":728,"o":"m 728 31 q 570 -3 651 8 q 408 -14 489 -14 q 260 7 324 -14 q 155 65 197 28 q 91 155 113 103 q 69 269 69 207 l 69 656 q 91 772 69 719 q 155 861 113 824 q 260 919 197 899 q 408 939 324 939 q 567 930 489 939 q 704 910 644 921 l 679 728 q 612 736 649 732 q 538 744 575 740 q 467 749 501 747 q 408 750 433 750 q 344 740 369 750 q 303 714 318 731 q 283 674 289 697 q 278 624 278 650 l 278 306 q 283 254 278 278 q 303 213 289 231 q 344 184 318 194 q 408 174 369 174 q 466 175 440 174 q 532 182 492 176 l 532 465 l 728 465 l 728 31 l 728 31 m 422 -421 l 347 -375 l 406 -262 l 347 -262 l 347 -68 l 515 -68 l 515 -274 l 422 -421 z "},"ģ":{"ha":679,"x_min":49,"x_max":651,"o":"m 342 1082 l 411 1039 l 357 935 l 411 935 l 411 754 l 256 754 l 256 944 l 342 1082 m 49 469 q 113 631 50 571 q 325 690 176 690 q 387 687 358 690 q 440 676 415 683 l 651 676 l 651 582 l 583 557 q 596 515 592 538 q 601 469 600 493 l 601 388 q 533 231 601 290 q 325 172 465 172 l 304 172 q 284 158 293 165 q 275 135 275 150 q 297 107 275 110 q 354 101 331 103 q 397 97 378 99 q 431 93 415 94 q 465 90 446 92 q 590 48 551 83 q 629 -75 629 13 q 610 -177 629 -136 q 552 -242 590 -218 q 456 -277 514 -267 q 318 -287 397 -287 q 260 -285 293 -287 q 192 -279 228 -283 q 119 -268 156 -275 q 49 -253 82 -261 l 78 -107 q 197 -128 139 -122 q 300 -135 256 -135 q 413 -127 379 -135 q 446 -86 446 -119 q 435 -59 446 -67 q 393 -49 424 -51 q 345 -44 364 -46 q 309 -41 326 -43 q 272 -37 292 -39 q 221 -32 251 -35 q 114 -2 151 -25 q 76 90 76 21 q 93 160 76 131 q 135 214 110 189 q 49 388 49 265 l 49 469 m 325 331 q 394 347 374 331 q 415 397 415 363 l 415 461 q 395 513 415 494 q 325 532 375 532 q 255 513 275 532 q 235 461 235 494 l 235 397 q 256 347 235 363 q 325 331 276 331 z "},"Ĥ":{"ha":896,"x_min":90,"x_max":806,"o":"m 597 0 l 597 372 l 299 372 l 299 0 l 90 0 l 90 925 l 299 925 l 299 557 l 597 557 l 597 925 l 806 925 l 806 0 l 597 0 m 567 989 q 503 1019 529 1006 q 443 1051 478 1032 q 383 1019 408 1032 q 319 989 357 1006 l 265 1075 q 354 1138 314 1108 q 443 1206 394 1168 q 532 1138 492 1168 q 621 1075 572 1108 l 567 989 z "},"ĥ":{"ha":768,"x_min":10,"x_max":685,"o":"m 485 0 l 485 447 q 436 496 485 496 q 404 491 422 496 q 366 479 386 486 q 326 463 346 472 q 290 446 307 454 l 290 0 l 90 0 l 90 953 l 288 981 l 288 628 q 410 673 350 656 q 529 690 471 690 q 602 675 572 690 q 650 631 632 660 q 676 563 668 603 q 685 474 685 522 l 685 0 l 485 0 m 311 1031 q 248 1060 274 1047 q 188 1093 222 1074 q 127 1060 153 1074 q 64 1031 101 1047 l 10 1117 q 99 1180 58 1150 q 188 1247 139 1210 q 276 1180 236 1210 q 365 1117 317 1150 l 311 1031 z "},"Ħ":{"ha":910,"x_min":21,"x_max":889,"o":"m 21 790 l 97 790 l 97 925 l 306 925 l 306 790 l 604 790 l 604 925 l 813 925 l 813 790 l 889 790 l 889 692 l 813 692 l 813 0 l 604 0 l 604 372 l 306 372 l 306 0 l 97 0 l 97 692 l 21 692 l 21 790 m 604 557 l 604 692 l 306 692 l 306 557 l 604 557 z "},"ħ":{"ha":768,"x_min":8,"x_max":685,"o":"m 8 851 l 90 851 l 90 953 l 288 981 l 288 851 l 408 851 l 408 753 l 288 753 l 288 628 q 410 673 350 656 q 529 690 471 690 q 602 675 572 690 q 650 631 632 660 q 676 563 668 603 q 685 474 685 522 l 685 0 l 485 0 l 485 447 q 436 496 485 496 q 404 491 422 496 q 366 479 386 486 q 326 463 346 472 q 290 446 307 454 l 290 0 l 90 0 l 90 753 l 8 753 l 8 851 z "},"Ĩ":{"ha":403,"x_min":-15,"x_max":439,"o":"m 97 0 l 97 925 l 306 925 l 306 0 l 97 0 m 292 996 q 240 1003 261 996 q 199 1025 219 1010 q 166 1047 179 1039 q 135 1056 153 1056 q 94 1034 111 1056 q 65 993 78 1013 l -15 1056 q 45 1140 8 1103 q 131 1176 82 1176 q 176 1170 156 1176 q 221 1147 196 1164 q 260 1124 244 1132 q 292 1115 276 1115 q 326 1130 315 1115 q 344 1172 338 1144 l 439 1129 q 383 1031 421 1067 q 292 996 346 996 z "},"ĩ":{"ha":381,"x_min":-36,"x_max":418,"o":"m 90 0 l 90 676 l 290 676 l 290 0 l 90 0 m 271 758 q 219 765 240 758 q 178 788 199 772 q 145 810 158 801 q 114 818 132 818 q 74 797 90 818 q 44 756 57 775 l -36 818 q 24 902 -12 865 q 110 939 61 939 q 155 933 135 939 q 200 910 175 926 q 240 886 224 894 q 271 878 256 878 q 306 892 294 878 q 324 935 317 907 l 418 892 q 363 794 400 829 q 271 758 325 758 z "},"Ī":{"ha":403,"x_min":26,"x_max":379,"o":"m 97 0 l 97 925 l 306 925 l 306 0 l 97 0 m 26 1014 l 26 1142 l 379 1142 l 379 1014 l 26 1014 z "},"ī":{"ha":381,"x_min":14,"x_max":367,"o":"m 90 0 l 90 676 l 290 676 l 290 0 l 90 0 m 14 778 l 14 906 l 367 906 l 367 778 l 14 778 z "},"Ĭ":{"ha":403,"x_min":3,"x_max":400,"o":"m 97 0 l 97 925 l 306 925 l 306 0 l 97 0 m 400 1143 q 338 1035 388 1079 q 201 990 289 990 q 65 1035 114 990 q 3 1143 15 1079 l 96 1188 q 133 1121 107 1146 q 201 1096 158 1096 q 270 1121 244 1096 q 307 1188 296 1146 l 400 1143 z "},"ĭ":{"ha":381,"x_min":-24,"x_max":404,"o":"m 90 0 l 90 676 l 290 676 l 290 0 l 90 0 m 404 913 q 384 849 400 881 q 341 794 368 818 q 276 756 314 771 q 190 742 239 742 q 104 756 142 742 q 40 794 67 771 q -3 849 13 818 q -24 913 -19 881 l 69 957 q 110 885 81 915 q 190 856 140 856 q 270 885 240 856 q 311 957 300 915 l 404 913 z "},"Į":{"ha":403,"x_min":24,"x_max":306,"o":"m 279 -272 q 226 -285 251 -282 q 178 -287 201 -287 q 67 -256 111 -287 q 24 -160 24 -224 q 97 0 24 -79 l 97 925 l 306 925 l 306 0 l 196 0 q 158 -80 168 -50 q 149 -135 149 -110 q 158 -166 149 -154 q 194 -178 167 -178 q 234 -175 213 -178 q 268 -169 256 -172 l 279 -272 z "},"į":{"ha":381,"x_min":8,"x_max":290,"o":"m 264 -272 q 211 -285 236 -282 q 163 -287 186 -287 q 52 -256 96 -287 q 8 -160 8 -224 q 31 -75 8 -114 q 90 0 53 -36 l 90 676 l 290 676 l 290 0 l 181 0 q 143 -80 153 -50 q 133 -135 133 -110 q 142 -166 133 -154 q 179 -178 151 -178 q 219 -175 197 -178 q 253 -169 240 -172 l 264 -272 m 90 761 l 90 974 l 290 974 l 290 761 l 90 761 z "},"İ":{"ha":403,"x_min":97,"x_max":306,"o":"m 97 0 l 97 925 l 306 925 l 306 0 l 97 0 m 106 1011 l 106 1224 l 306 1224 l 306 1011 l 106 1011 z "},"ı":{"ha":381,"x_min":90,"x_max":290,"o":"m 90 0 l 90 676 l 290 676 l 290 0 l 90 0 z "},"Ĳ":{"ha":785,"x_min":97,"x_max":701,"o":"m 97 0 l 97 925 l 306 925 l 306 0 l 97 0 m 381 -146 q 441 -95 418 -115 q 475 -60 464 -75 q 490 -32 486 -46 q 493 0 493 -18 l 493 925 l 701 925 l 701 -32 q 649 -160 701 -99 q 504 -293 597 -221 l 381 -146 z "},"ĳ":{"ha":747,"x_min":90,"x_max":664,"o":"m 90 761 l 90 974 l 290 974 l 290 761 l 90 761 m 90 0 l 90 676 l 290 676 l 290 0 l 90 0 m 464 761 l 464 974 l 664 974 l 664 761 l 464 761 m 360 -157 q 435 -82 407 -114 q 464 -6 464 -50 l 464 676 l 664 676 l 664 -32 q 619 -151 664 -93 q 481 -287 574 -210 l 360 -157 z "},"Ĵ":{"ha":382,"x_min":-22,"x_max":372,"o":"m -22 -146 q 38 -95 15 -115 q 72 -60 61 -75 q 87 -32 83 -46 q 90 0 90 -18 l 90 925 l 299 925 l 299 -32 q 247 -160 299 -99 q 101 -293 194 -221 l -22 -146 m 318 989 q 255 1019 281 1006 q 194 1051 229 1032 q 134 1019 160 1032 q 71 989 108 1006 l 17 1075 q 106 1138 65 1108 q 194 1206 146 1168 q 283 1138 243 1168 q 372 1075 324 1108 l 318 989 z "},"ĵ":{"ha":367,"x_min":-21,"x_max":382,"o":"m -21 -157 q 24 -116 4 -133 q 56 -82 43 -99 q 76 -48 69 -65 q 83 -6 83 -31 l 83 676 l 283 676 l 283 -32 q 238 -151 283 -93 q 100 -287 193 -210 l -21 -157 m -15 819 q 83 898 31 856 q 183 982 135 940 q 284 898 232 940 q 382 819 336 856 l 321 738 q 280 763 297 751 q 247 784 263 774 q 216 805 231 794 q 183 828 201 815 q 151 805 165 815 q 120 784 136 794 q 87 763 104 774 q 46 738 69 751 l -15 819 z "},"Ķ":{"ha":857,"x_min":90,"x_max":829,"o":"m 90 925 l 299 925 l 299 0 l 90 0 l 90 925 m 325 472 l 575 925 l 810 925 l 550 472 l 829 0 l 594 0 l 325 472 m 433 -421 l 358 -375 l 417 -262 l 358 -262 l 358 -68 l 526 -68 l 526 -274 l 433 -421 z "},"ķ":{"ha":732,"x_min":90,"x_max":711,"o":"m 90 0 l 90 953 l 290 981 l 290 0 l 90 0 m 489 676 l 703 676 l 525 340 l 711 0 l 497 0 l 317 340 l 489 676 m 383 -421 l 308 -375 l 367 -262 l 308 -262 l 308 -68 l 476 -68 l 476 -274 l 383 -421 z "},"ĸ":{"ha":732,"x_min":90,"x_max":711,"o":"m 90 0 l 90 676 l 290 676 l 290 0 l 90 0 m 489 676 l 703 676 l 525 340 l 711 0 l 497 0 l 317 340 l 489 676 z "},"Ĺ":{"ha":693,"x_min":90,"x_max":665,"o":"m 90 0 l 90 925 l 299 925 l 299 185 l 665 185 l 665 0 l 90 0 m 118 1088 q 218 1151 169 1119 q 307 1215 267 1183 l 382 1099 q 335 1066 357 1081 q 290 1038 313 1051 q 242 1011 267 1025 q 188 982 217 997 l 118 1088 z "},"ĺ":{"ha":381,"x_min":90,"x_max":369,"o":"m 90 0 l 90 953 l 290 981 l 290 0 l 90 0 m 106 1143 q 206 1207 157 1175 q 294 1271 254 1239 l 369 1154 q 322 1122 344 1136 q 277 1094 300 1107 q 229 1067 254 1081 q 175 1038 204 1053 l 106 1143 z "},"Ļ":{"ha":693,"x_min":90,"x_max":665,"o":"m 90 0 l 90 925 l 299 925 l 299 185 l 665 185 l 665 0 l 90 0 m 388 -421 l 313 -375 l 371 -262 l 313 -262 l 313 -68 l 481 -68 l 481 -274 l 388 -421 z "},"ļ":{"ha":381,"x_min":90,"x_max":290,"o":"m 90 0 l 90 953 l 290 981 l 290 0 l 90 0 m 181 -421 l 106 -375 l 164 -262 l 106 -262 l 106 -68 l 274 -68 l 274 -274 l 181 -421 z "},"Ľ":{"ha":693,"x_min":90,"x_max":665,"o":"m 90 0 l 90 925 l 299 925 l 299 185 l 665 185 l 665 0 l 90 0 m 524 669 l 468 708 l 525 811 l 458 811 l 458 953 l 611 953 l 611 801 l 524 669 z "},"ľ":{"ha":518,"x_min":90,"x_max":553,"o":"m 90 0 l 90 953 l 290 981 l 290 0 l 90 0 m 465 669 l 410 708 l 467 811 l 400 811 l 400 953 l 553 953 l 553 801 l 465 669 z "},"Ŀ":{"ha":693,"x_min":90,"x_max":665,"o":"m 90 0 l 90 925 l 299 925 l 299 185 l 665 185 l 665 0 l 90 0 m 429 400 l 429 613 l 629 613 l 629 400 l 429 400 z "},"ŀ":{"ha":594,"x_min":90,"x_max":581,"o":"m 90 0 l 90 953 l 290 981 l 290 0 l 90 0 m 381 275 l 381 488 l 581 488 l 581 275 l 381 275 z "},"Ł":{"ha":735,"x_min":0,"x_max":707,"o":"m 132 486 l 132 925 l 340 925 l 340 571 l 528 647 l 575 522 l 340 428 l 340 185 l 707 185 l 707 0 l 132 0 l 132 343 l 47 310 l 0 432 l 132 486 z "},"ł":{"ha":465,"x_min":14,"x_max":458,"o":"m 118 490 l 118 953 l 318 981 l 318 572 l 411 610 l 458 485 l 318 429 l 318 0 l 118 0 l 118 349 l 61 326 l 14 449 l 118 490 z "},"Ń":{"ha":939,"x_min":90,"x_max":849,"o":"m 289 608 l 289 0 l 90 0 l 90 925 l 346 925 l 650 288 l 650 925 l 849 925 l 849 0 l 592 0 l 289 608 m 394 1088 q 494 1151 446 1119 q 583 1215 543 1183 l 658 1099 q 611 1066 633 1081 q 566 1038 589 1051 q 518 1011 543 1025 q 464 982 493 997 l 394 1088 z "},"ń":{"ha":768,"x_min":90,"x_max":685,"o":"m 485 0 l 485 447 q 436 496 485 496 q 404 492 422 496 q 366 481 386 488 q 326 465 346 474 q 290 447 307 456 l 290 0 l 90 0 l 90 676 l 239 676 l 260 625 q 397 673 322 656 q 529 690 471 690 q 602 675 572 690 q 650 631 632 660 q 676 563 668 603 q 685 474 685 522 l 685 0 l 485 0 m 282 851 q 385 918 333 883 q 492 993 436 953 l 567 876 q 457 807 504 836 q 351 746 410 778 l 282 851 z "},"Ņ":{"ha":939,"x_min":90,"x_max":849,"o":"m 289 608 l 289 0 l 90 0 l 90 925 l 346 925 l 650 288 l 650 925 l 849 925 l 849 0 l 592 0 l 289 608 m 447 -421 l 372 -375 l 431 -262 l 372 -262 l 372 -68 l 540 -68 l 540 -274 l 447 -421 z "},"ņ":{"ha":768,"x_min":90,"x_max":685,"o":"m 485 0 l 485 447 q 436 496 485 496 q 404 492 422 496 q 366 481 386 488 q 326 465 346 474 q 290 447 307 456 l 290 0 l 90 0 l 90 676 l 239 676 l 260 625 q 397 673 322 656 q 529 690 471 690 q 602 675 572 690 q 650 631 632 660 q 676 563 668 603 q 685 474 685 522 l 685 0 l 485 0 m 382 -421 l 307 -375 l 365 -262 l 307 -262 l 307 -68 l 475 -68 l 475 -274 l 382 -421 z "},"Ň":{"ha":939,"x_min":90,"x_max":849,"o":"m 289 608 l 289 0 l 90 0 l 90 925 l 346 925 l 650 288 l 650 925 l 849 925 l 849 0 l 592 0 l 289 608 m 669 1121 q 581 1058 621 1088 q 492 990 540 1028 q 403 1058 443 1028 q 314 1121 363 1088 l 368 1207 q 431 1177 406 1190 q 492 1144 457 1164 q 552 1177 526 1164 q 615 1207 578 1190 l 669 1121 z "},"ň":{"ha":768,"x_min":90,"x_max":685,"o":"m 485 0 l 485 447 q 436 496 485 496 q 404 492 422 496 q 366 481 386 488 q 326 465 346 474 q 290 447 307 456 l 290 0 l 90 0 l 90 676 l 239 676 l 260 625 q 397 673 322 656 q 529 690 471 690 q 602 675 572 690 q 650 631 632 660 q 676 563 668 603 q 685 474 685 522 l 685 0 l 485 0 m 261 976 q 302 951 285 963 q 335 930 319 940 q 366 909 351 919 q 399 886 381 899 q 431 909 417 899 q 462 930 446 919 q 495 951 478 940 q 536 976 513 963 l 597 894 q 499 816 551 858 q 399 732 447 774 q 298 816 350 774 q 200 894 246 858 l 261 976 z "},"Ŋ":{"ha":939,"x_min":90,"x_max":849,"o":"m 289 608 l 289 0 l 90 0 l 90 925 l 346 925 l 650 288 l 650 925 l 849 925 l 849 -18 q 838 -91 849 -60 q 799 -151 828 -122 q 722 -212 771 -181 q 596 -287 672 -244 l 513 -160 q 588 -111 560 -131 q 631 -77 615 -92 q 651 -49 646 -62 q 656 -19 656 -36 l 656 0 l 592 0 l 289 608 z "},"ŋ":{"ha":768,"x_min":90,"x_max":685,"o":"m 349 -160 q 417 -111 390 -131 q 458 -76 443 -92 q 479 -49 474 -61 q 485 -19 485 -36 l 485 447 q 436 496 485 496 q 404 492 422 496 q 366 481 386 488 q 326 465 346 474 q 290 447 307 456 l 290 0 l 90 0 l 90 676 l 239 676 l 260 625 q 397 673 322 656 q 529 690 471 690 q 602 675 572 690 q 650 631 632 660 q 676 563 668 603 q 685 474 685 522 l 685 -18 q 674 -91 685 -60 q 635 -151 664 -122 q 558 -212 607 -181 q 432 -287 508 -244 l 349 -160 z "},"Ō":{"ha":856,"x_min":69,"x_max":786,"o":"m 786 269 q 767 166 786 217 q 705 75 747 115 q 594 10 663 35 q 428 -14 525 -14 q 261 10 329 -14 q 151 75 193 35 q 89 166 108 115 q 69 269 69 217 l 69 656 q 89 759 69 708 q 151 850 108 810 q 261 915 193 890 q 428 939 329 939 q 594 915 525 939 q 705 850 663 890 q 767 759 747 810 q 786 656 786 708 l 786 269 m 578 638 q 542 723 578 692 q 428 754 507 754 q 313 723 349 754 q 278 638 278 692 l 278 288 q 313 202 278 233 q 428 171 349 171 q 542 202 507 171 q 578 288 578 233 l 578 638 m 251 1014 l 251 1142 l 604 1142 l 604 1014 l 251 1014 z "},"ō":{"ha":722,"x_min":56,"x_max":667,"o":"m 361 -14 q 212 9 271 -14 q 118 71 153 32 q 69 158 83 110 q 56 260 56 207 l 56 417 q 69 517 56 468 q 118 606 83 567 q 212 667 153 644 q 361 690 271 690 q 510 667 451 690 q 604 606 569 644 q 653 517 639 567 q 667 417 667 468 l 667 260 q 653 158 667 207 q 604 71 639 110 q 510 9 569 32 q 361 -14 451 -14 m 361 154 q 441 180 415 154 q 467 254 467 206 l 467 422 q 441 497 467 471 q 361 522 415 522 q 281 497 307 522 q 256 422 256 471 l 256 254 q 281 180 256 206 q 361 154 307 154 m 185 778 l 185 906 l 538 906 l 538 778 l 185 778 z "},"Ŏ":{"ha":856,"x_min":69,"x_max":786,"o":"m 786 269 q 767 166 786 217 q 705 75 747 115 q 594 10 663 35 q 428 -14 525 -14 q 261 10 329 -14 q 151 75 193 35 q 89 166 108 115 q 69 269 69 217 l 69 656 q 89 759 69 708 q 151 850 108 810 q 261 915 193 890 q 428 939 329 939 q 594 915 525 939 q 705 850 663 890 q 767 759 747 810 q 786 656 786 708 l 786 269 m 578 638 q 542 723 578 692 q 428 754 507 754 q 313 723 349 754 q 278 638 278 692 l 278 288 q 313 202 278 233 q 428 171 349 171 q 542 202 507 171 q 578 288 578 233 l 578 638 m 626 1143 q 565 1035 614 1079 q 428 990 515 990 q 291 1035 340 990 q 229 1143 242 1079 l 322 1188 q 359 1121 333 1146 q 428 1096 385 1096 q 497 1121 471 1096 q 533 1188 522 1146 l 626 1143 z "},"ŏ":{"ha":722,"x_min":56,"x_max":667,"o":"m 361 -14 q 212 9 271 -14 q 118 71 153 32 q 69 158 83 110 q 56 260 56 207 l 56 417 q 69 517 56 468 q 118 606 83 567 q 212 667 153 644 q 361 690 271 690 q 510 667 451 690 q 604 606 569 644 q 653 517 639 567 q 667 417 667 468 l 667 260 q 653 158 667 207 q 604 71 639 110 q 510 9 569 32 q 361 -14 451 -14 m 361 154 q 441 180 415 154 q 467 254 467 206 l 467 422 q 441 497 467 471 q 361 522 415 522 q 281 497 307 522 q 256 422 256 471 l 256 254 q 281 180 256 206 q 361 154 307 154 m 575 913 q 555 849 571 881 q 512 794 539 818 q 447 756 485 771 q 361 742 410 742 q 275 756 313 742 q 210 794 238 771 q 167 849 183 818 q 147 913 151 881 l 240 957 q 281 885 251 915 q 361 856 311 856 q 441 885 411 856 q 482 957 471 915 l 575 913 z "},"Ő":{"ha":856,"x_min":69,"x_max":786,"o":"m 786 269 q 767 166 786 217 q 705 75 747 115 q 594 10 663 35 q 428 -14 525 -14 q 261 10 329 -14 q 151 75 193 35 q 89 166 108 115 q 69 269 69 217 l 69 656 q 89 759 69 708 q 151 850 108 810 q 261 915 193 890 q 428 939 329 939 q 594 915 525 939 q 705 850 663 890 q 767 759 747 810 q 786 656 786 708 l 786 269 m 578 638 q 542 723 578 692 q 428 754 507 754 q 313 723 349 754 q 278 638 278 692 l 278 288 q 313 202 278 233 q 428 171 349 171 q 542 202 507 171 q 578 288 578 233 l 578 638 m 225 1068 q 297 1139 261 1101 q 364 1213 332 1176 l 461 1114 q 392 1044 429 1079 q 315 979 356 1010 l 225 1068 m 475 1068 q 547 1139 511 1101 q 614 1213 582 1176 l 711 1114 q 642 1044 679 1079 q 565 979 606 1010 l 475 1068 z "},"ő":{"ha":722,"x_min":56,"x_max":678,"o":"m 361 -14 q 212 9 271 -14 q 118 71 153 32 q 69 158 83 110 q 56 260 56 207 l 56 417 q 69 517 56 468 q 118 606 83 567 q 212 667 153 644 q 361 690 271 690 q 510 667 451 690 q 604 606 569 644 q 653 517 639 567 q 667 417 667 468 l 667 260 q 653 158 667 207 q 604 71 639 110 q 510 9 569 32 q 361 -14 451 -14 m 361 154 q 441 180 415 154 q 467 254 467 206 l 467 422 q 441 497 467 471 q 361 522 415 522 q 281 497 307 522 q 256 422 256 471 l 256 254 q 281 180 256 206 q 361 154 307 154 m 153 825 q 235 903 197 865 q 317 993 272 942 l 414 894 q 367 847 388 868 q 328 809 347 826 q 288 774 308 792 q 242 736 267 757 l 153 825 m 417 825 q 499 903 461 865 q 581 993 536 942 l 678 894 q 631 847 651 868 q 592 809 611 826 q 551 774 572 792 q 506 736 531 757 l 417 825 z "},"Œ":{"ha":1239,"x_min":69,"x_max":1169,"o":"m 69 642 q 89 745 69 694 q 151 836 108 796 q 261 901 193 876 q 428 925 329 925 l 1169 925 l 1169 740 l 796 740 l 796 571 l 1140 571 l 1140 386 l 796 386 l 796 185 l 1169 185 l 1169 0 l 428 0 q 261 24 329 0 q 151 89 193 49 q 89 180 108 129 q 69 283 69 231 l 69 642 m 428 740 q 313 709 349 740 q 278 624 278 678 l 278 301 q 313 216 278 247 q 428 185 349 185 l 588 185 l 588 740 l 428 740 z "},"œ":{"ha":1106,"x_min":56,"x_max":1050,"o":"m 361 -14 q 218 9 276 -14 q 124 69 160 32 q 72 156 88 107 q 56 260 56 206 l 56 417 q 72 520 56 471 q 124 607 88 569 q 218 667 160 644 q 361 690 276 690 q 477 676 428 690 q 563 638 526 661 q 649 677 600 664 q 767 690 697 690 q 907 667 851 690 q 994 606 963 644 q 1038 516 1025 567 q 1050 410 1050 465 l 1050 267 l 667 267 l 667 249 q 697 169 667 193 q 797 144 728 144 q 851 147 822 144 q 910 155 881 150 q 966 165 939 160 q 1014 178 993 171 l 1043 29 q 925 -1 996 13 q 781 -14 854 -14 q 567 44 644 -14 q 480 2 531 18 q 361 -14 429 -14 m 361 154 q 441 180 415 154 q 467 254 467 206 l 467 422 q 441 497 467 471 q 361 522 415 522 q 281 497 307 522 q 256 422 256 471 l 256 254 q 281 180 256 206 q 361 154 307 154 m 861 456 q 840 517 861 492 q 767 542 819 542 q 688 517 710 542 q 667 456 667 493 l 667 408 l 861 408 l 861 456 z "},"Ŕ":{"ha":893,"x_min":90,"x_max":872,"o":"m 421 288 l 299 288 l 299 0 l 90 0 l 90 925 l 475 925 q 618 908 560 925 q 713 859 676 892 q 767 777 750 826 q 783 663 783 728 l 783 549 q 751 403 783 461 q 649 317 719 346 l 872 0 l 625 0 l 421 288 m 575 643 q 551 718 575 696 q 464 740 528 740 l 299 740 l 299 468 l 464 468 q 553 492 531 468 q 575 569 575 517 l 575 643 m 315 1088 q 415 1151 367 1119 q 504 1215 464 1183 l 579 1099 q 532 1066 554 1081 q 487 1038 510 1051 q 439 1011 464 1025 q 385 982 414 997 l 315 1088 z "},"ŕ":{"ha":479,"x_min":90,"x_max":469,"o":"m 469 501 q 374 460 425 483 q 290 413 322 436 l 290 0 l 90 0 l 90 676 l 257 676 l 271 611 q 309 633 286 621 q 357 657 332 646 q 407 677 382 668 q 453 690 432 686 l 469 501 l 469 501 m 143 851 q 246 918 194 883 q 353 993 297 953 l 428 876 q 318 807 365 836 q 213 746 271 778 l 143 851 z "},"Ŗ":{"ha":893,"x_min":90,"x_max":872,"o":"m 421 288 l 299 288 l 299 0 l 90 0 l 90 925 l 475 925 q 618 908 560 925 q 713 859 676 892 q 767 777 750 826 q 783 663 783 728 l 783 549 q 751 403 783 461 q 649 317 719 346 l 872 0 l 625 0 l 421 288 m 575 643 q 551 718 575 696 q 464 740 528 740 l 299 740 l 299 468 l 464 468 q 553 492 531 468 q 575 569 575 517 l 575 643 m 440 -421 l 365 -375 l 424 -262 l 365 -262 l 365 -68 l 533 -68 l 533 -274 l 440 -421 z "},"ŗ":{"ha":479,"x_min":90,"x_max":469,"o":"m 469 501 q 374 460 425 483 q 290 413 322 436 l 290 0 l 90 0 l 90 676 l 257 676 l 271 611 q 309 633 286 621 q 357 657 332 646 q 407 677 382 668 q 453 690 432 686 l 469 501 l 469 501 m 179 -421 l 104 -375 l 163 -262 l 104 -262 l 104 -68 l 272 -68 l 272 -274 l 179 -421 z "},"Ř":{"ha":893,"x_min":90,"x_max":872,"o":"m 421 288 l 299 288 l 299 0 l 90 0 l 90 925 l 475 925 q 618 908 560 925 q 713 859 676 892 q 767 777 750 826 q 783 663 783 728 l 783 549 q 751 403 783 461 q 649 317 719 346 l 872 0 l 625 0 l 421 288 m 575 643 q 551 718 575 696 q 464 740 528 740 l 299 740 l 299 468 l 464 468 q 553 492 531 468 q 575 569 575 517 l 575 643 m 592 1121 q 503 1058 543 1088 q 414 990 463 1028 q 325 1058 365 1028 q 236 1121 285 1088 l 290 1207 q 353 1177 328 1190 q 414 1144 379 1164 q 474 1177 449 1164 q 538 1207 500 1190 l 592 1121 z "},"ř":{"ha":479,"x_min":65,"x_max":469,"o":"m 469 501 q 374 460 425 483 q 290 413 322 436 l 290 0 l 90 0 l 90 676 l 257 676 l 271 611 q 309 633 286 621 q 357 657 332 646 q 407 677 382 668 q 453 690 432 686 l 469 501 l 469 501 m 126 976 q 167 951 150 963 q 201 930 185 940 q 231 909 217 919 q 264 886 246 899 q 297 909 282 899 q 327 930 311 919 q 360 951 343 940 q 401 976 378 963 l 463 894 q 365 816 417 858 q 264 732 313 774 q 163 816 215 774 q 65 894 111 858 l 126 976 z "},"Ś":{"ha":756,"x_min":63,"x_max":700,"o":"m 700 260 q 686 140 700 190 q 635 54 672 89 q 531 3 597 19 q 361 -14 465 -14 q 201 2 281 -14 q 63 46 122 18 l 97 207 q 226 175 161 188 q 364 163 292 163 q 429 167 404 163 q 468 183 454 171 q 487 213 482 194 q 492 261 492 232 q 489 311 492 292 q 471 343 486 331 q 424 365 456 356 q 336 388 393 375 q 202 426 253 406 q 124 477 151 446 q 88 557 97 508 q 79 681 79 606 q 93 799 79 750 q 143 878 107 847 q 241 924 179 910 q 399 939 303 939 q 531 932 460 939 q 679 908 601 925 l 658 733 q 522 753 579 747 q 401 760 464 760 q 344 756 367 760 q 310 743 322 753 q 292 717 297 733 q 288 675 288 700 q 290 623 288 642 q 308 592 293 604 q 353 572 322 581 q 438 550 383 563 q 583 505 531 528 q 663 451 636 482 q 694 374 689 419 q 700 260 700 328 m 289 1088 q 389 1151 340 1119 q 478 1215 438 1183 l 553 1099 q 506 1066 528 1081 q 460 1038 483 1051 q 413 1011 438 1025 q 358 982 388 997 l 289 1088 z "},"ś":{"ha":601,"x_min":56,"x_max":553,"o":"m 553 201 q 541 109 553 149 q 500 42 529 69 q 422 0 471 14 q 301 -14 374 -14 q 241 -10 274 -14 q 176 -2 208 -7 q 112 10 143 3 q 56 26 81 18 l 88 175 q 182 153 129 163 q 292 144 235 144 q 349 158 336 144 q 361 201 361 171 q 359 228 361 218 q 347 245 357 238 q 314 260 336 253 q 251 276 292 267 q 154 308 190 292 q 100 349 118 325 q 77 407 82 374 q 72 488 72 440 q 84 580 72 542 q 125 642 96 618 q 204 678 154 667 q 331 690 254 690 q 376 689 350 690 q 430 685 401 688 q 486 678 458 682 q 536 668 514 674 l 518 513 q 423 526 474 521 q 332 532 372 532 q 274 521 288 532 q 260 486 260 510 q 262 461 260 471 q 272 444 264 451 q 298 433 281 438 q 346 421 315 428 q 460 387 418 404 q 522 345 501 369 q 548 286 543 321 q 553 201 553 251 m 213 851 q 315 918 264 883 q 422 993 367 953 l 497 876 q 388 807 435 836 q 282 746 340 778 l 213 851 z "},"Ŝ":{"ha":756,"x_min":63,"x_max":700,"o":"m 700 260 q 686 140 700 190 q 635 54 672 89 q 531 3 597 19 q 361 -14 465 -14 q 201 2 281 -14 q 63 46 122 18 l 97 207 q 226 175 161 188 q 364 163 292 163 q 429 167 404 163 q 468 183 454 171 q 487 213 482 194 q 492 261 492 232 q 489 311 492 292 q 471 343 486 331 q 424 365 456 356 q 336 388 393 375 q 202 426 253 406 q 124 477 151 446 q 88 557 97 508 q 79 681 79 606 q 93 799 79 750 q 143 878 107 847 q 241 924 179 910 q 399 939 303 939 q 531 932 460 939 q 679 908 601 925 l 658 733 q 522 753 579 747 q 401 760 464 760 q 344 756 367 760 q 310 743 322 753 q 292 717 297 733 q 288 675 288 700 q 290 623 288 642 q 308 592 293 604 q 353 572 322 581 q 438 550 383 563 q 583 505 531 528 q 663 451 636 482 q 694 374 689 419 q 700 260 700 328 m 531 989 q 467 1019 493 1006 q 407 1051 442 1032 q 347 1019 372 1032 q 283 989 321 1006 l 229 1075 q 318 1138 278 1108 q 407 1206 358 1168 q 496 1138 456 1168 q 585 1075 536 1108 l 531 989 z "},"ŝ":{"ha":601,"x_min":56,"x_max":553,"o":"m 553 201 q 541 109 553 149 q 500 42 529 69 q 422 0 471 14 q 301 -14 374 -14 q 241 -10 274 -14 q 176 -2 208 -7 q 112 10 143 3 q 56 26 81 18 l 88 175 q 182 153 129 163 q 292 144 235 144 q 349 158 336 144 q 361 201 361 171 q 359 228 361 218 q 347 245 357 238 q 314 260 336 253 q 251 276 292 267 q 154 308 190 292 q 100 349 118 325 q 77 407 82 374 q 72 488 72 440 q 84 580 72 542 q 125 642 96 618 q 204 678 154 667 q 331 690 254 690 q 376 689 350 690 q 430 685 401 688 q 486 678 458 682 q 536 668 514 674 l 518 513 q 423 526 474 521 q 332 532 372 532 q 274 521 288 532 q 260 486 260 510 q 262 461 260 471 q 272 444 264 451 q 298 433 281 438 q 346 421 315 428 q 460 387 418 404 q 522 345 501 369 q 548 286 543 321 q 553 201 553 251 m 124 819 q 222 898 169 856 q 322 982 274 940 q 423 898 371 940 q 521 819 475 856 l 460 738 q 419 763 436 751 q 385 784 401 774 q 355 805 369 794 q 322 828 340 815 q 290 805 304 815 q 259 784 275 794 q 226 763 243 774 q 185 738 208 751 l 124 819 z "},"Ş":{"ha":756,"x_min":63,"x_max":700,"o":"m 535 -160 q 501 -243 535 -212 q 379 -274 467 -274 q 322 -267 357 -274 q 263 -251 286 -261 l 282 -175 q 324 -185 300 -181 q 368 -189 347 -189 q 417 -183 400 -189 q 433 -158 433 -178 q 422 -131 433 -135 q 385 -128 410 -128 q 358 -128 374 -128 q 326 -131 343 -129 l 299 -107 l 318 -12 q 181 7 247 -8 q 63 46 114 22 l 97 207 q 226 175 161 188 q 364 163 292 163 q 429 167 404 163 q 468 183 454 171 q 487 213 482 194 q 492 261 492 232 q 489 311 492 292 q 471 343 486 331 q 424 365 456 356 q 336 388 393 375 q 202 426 253 406 q 124 477 151 446 q 88 557 97 508 q 79 681 79 606 q 93 799 79 750 q 143 878 107 847 q 241 924 179 910 q 399 939 303 939 q 531 932 460 939 q 679 908 601 925 l 658 733 q 522 753 579 747 q 401 760 464 760 q 344 756 367 760 q 310 743 322 753 q 292 717 297 733 q 288 675 288 700 q 290 623 288 642 q 308 592 293 604 q 353 572 322 581 q 438 550 383 563 q 583 505 531 528 q 663 451 636 482 q 694 374 689 419 q 700 260 700 328 q 688 145 700 194 q 644 62 676 96 q 554 10 611 28 q 407 -12 497 -8 l 397 -65 q 504 -78 474 -54 q 535 -160 535 -101 z "},"ş":{"ha":601,"x_min":56,"x_max":553,"o":"m 454 -160 q 420 -243 454 -212 q 299 -274 386 -274 q 241 -267 276 -274 q 182 -251 206 -261 l 201 -175 q 243 -185 219 -181 q 288 -189 267 -189 q 336 -183 319 -189 q 353 -158 353 -178 q 341 -131 353 -135 q 304 -128 329 -128 q 278 -128 293 -128 q 246 -131 263 -129 l 218 -107 l 239 -10 q 141 4 190 -6 q 56 26 92 14 l 88 175 q 182 153 129 163 q 292 144 235 144 q 349 158 336 144 q 361 201 361 171 q 359 228 361 218 q 347 245 357 238 q 314 260 336 253 q 251 276 292 267 q 154 308 190 292 q 100 349 118 325 q 77 407 82 374 q 72 488 72 440 q 84 580 72 542 q 125 642 96 618 q 204 678 154 667 q 331 690 254 690 q 376 689 350 690 q 430 685 401 688 q 486 678 458 682 q 536 668 514 674 l 518 513 q 423 526 474 521 q 332 532 372 532 q 274 521 288 532 q 260 486 260 510 q 262 461 260 471 q 272 444 264 451 q 298 433 281 438 q 346 421 315 428 q 460 387 418 404 q 522 345 501 369 q 548 286 543 321 q 553 201 553 251 q 542 113 553 151 q 504 47 531 74 q 434 5 478 19 q 326 -12 390 -10 l 317 -65 q 424 -78 393 -54 q 454 -160 454 -101 z "},"Š":{"ha":756,"x_min":63,"x_max":700,"o":"m 700 260 q 686 140 700 190 q 635 54 672 89 q 531 3 597 19 q 361 -14 465 -14 q 201 2 281 -14 q 63 46 122 18 l 97 207 q 226 175 161 188 q 364 163 292 163 q 429 167 404 163 q 468 183 454 171 q 487 213 482 194 q 492 261 492 232 q 489 311 492 292 q 471 343 486 331 q 424 365 456 356 q 336 388 393 375 q 202 426 253 406 q 124 477 151 446 q 88 557 97 508 q 79 681 79 606 q 93 799 79 750 q 143 878 107 847 q 241 924 179 910 q 399 939 303 939 q 531 932 460 939 q 679 908 601 925 l 658 733 q 522 753 579 747 q 401 760 464 760 q 344 756 367 760 q 310 743 322 753 q 292 717 297 733 q 288 675 288 700 q 290 623 288 642 q 308 592 293 604 q 353 572 322 581 q 438 550 383 563 q 583 505 531 528 q 663 451 636 482 q 694 374 689 419 q 700 260 700 328 m 579 1121 q 490 1058 531 1088 q 401 990 450 1028 q 313 1058 353 1028 q 224 1121 272 1088 l 278 1207 q 341 1177 315 1190 q 401 1144 367 1164 q 462 1177 436 1164 q 525 1207 488 1190 l 579 1121 z "},"š":{"ha":601,"x_min":56,"x_max":553,"o":"m 553 201 q 541 109 553 149 q 500 42 529 69 q 422 0 471 14 q 301 -14 374 -14 q 241 -10 274 -14 q 176 -2 208 -7 q 112 10 143 3 q 56 26 81 18 l 88 175 q 182 153 129 163 q 292 144 235 144 q 349 158 336 144 q 361 201 361 171 q 359 228 361 218 q 347 245 357 238 q 314 260 336 253 q 251 276 292 267 q 154 308 190 292 q 100 349 118 325 q 77 407 82 374 q 72 488 72 440 q 84 580 72 542 q 125 642 96 618 q 204 678 154 667 q 331 690 254 690 q 376 689 350 690 q 430 685 401 688 q 486 678 458 682 q 536 668 514 674 l 518 513 q 423 526 474 521 q 332 532 372 532 q 274 521 288 532 q 260 486 260 510 q 262 461 260 471 q 272 444 264 451 q 298 433 281 438 q 346 421 315 428 q 460 387 418 404 q 522 345 501 369 q 548 286 543 321 q 553 201 553 251 m 186 976 q 227 951 210 963 q 260 930 244 940 q 291 909 276 919 q 324 886 306 899 q 356 909 342 899 q 387 930 371 919 q 420 951 403 940 q 461 976 438 963 l 522 894 q 424 816 476 858 q 324 732 372 774 q 223 816 275 774 q 125 894 171 858 l 186 976 z "},"Ť":{"ha":739,"x_min":17,"x_max":722,"o":"m 474 740 l 474 0 l 265 0 l 265 740 l 17 740 l 17 925 l 722 925 l 722 740 l 474 740 m 547 1121 q 458 1058 499 1088 q 369 990 418 1028 q 281 1058 321 1028 q 192 1121 240 1088 l 246 1207 q 309 1177 283 1190 q 369 1144 335 1164 q 430 1177 404 1164 q 493 1207 456 1190 l 547 1121 z "},"ť":{"ha":507,"x_min":21,"x_max":542,"o":"m 461 11 q 390 -7 428 0 q 317 -14 351 -14 q 166 26 219 -14 q 113 160 113 65 l 113 515 l 21 515 l 21 676 l 113 676 l 113 839 l 313 867 l 313 676 l 467 676 l 456 515 l 313 515 l 313 188 q 324 158 313 167 q 354 150 335 150 q 393 153 371 150 q 438 163 415 156 l 461 11 m 474 719 l 418 758 l 456 825 l 389 825 l 389 967 l 542 967 l 542 815 l 474 719 z "},"Ŧ":{"ha":739,"x_min":17,"x_max":722,"o":"m 100 499 l 265 499 l 265 740 l 17 740 l 17 925 l 722 925 l 722 740 l 474 740 l 474 499 l 639 499 l 639 400 l 474 400 l 474 0 l 265 0 l 265 400 l 100 400 l 100 499 z "},"ŧ":{"ha":500,"x_min":21,"x_max":467,"o":"m 21 396 l 113 396 l 113 515 l 21 515 l 21 676 l 113 676 l 113 839 l 313 867 l 313 676 l 467 676 l 456 515 l 313 515 l 313 396 l 443 396 l 443 297 l 313 297 l 313 188 q 324 158 313 167 q 354 150 335 150 q 393 153 371 150 q 438 163 415 156 l 461 11 q 390 -7 428 0 q 317 -14 351 -14 q 166 26 219 -14 q 113 160 113 65 l 113 297 l 21 297 l 21 396 z "},"Ũ":{"ha":864,"x_min":83,"x_max":781,"o":"m 781 925 l 781 269 q 763 166 781 217 q 704 75 744 115 q 597 10 664 35 q 432 -14 529 -14 q 267 10 333 -14 q 160 75 200 35 q 101 166 119 115 q 83 269 83 217 l 83 925 l 292 925 l 292 289 q 322 201 292 232 q 432 171 353 171 q 542 201 511 171 q 572 289 572 232 l 572 925 l 781 925 m 521 996 q 469 1003 490 996 q 428 1025 449 1010 q 395 1047 408 1039 q 364 1056 382 1056 q 324 1034 340 1056 q 294 993 307 1013 l 214 1056 q 274 1140 238 1103 q 360 1176 311 1176 q 405 1170 385 1176 q 450 1147 425 1164 q 490 1124 474 1132 q 521 1115 506 1115 q 556 1130 544 1115 q 574 1172 567 1144 l 668 1129 q 613 1031 650 1067 q 521 996 575 996 z "},"ũ":{"ha":768,"x_min":83,"x_max":678,"o":"m 283 676 l 283 229 q 332 181 283 181 q 364 185 346 181 q 402 196 382 189 q 442 212 422 203 q 478 229 461 221 l 478 676 l 678 676 l 678 0 l 529 0 l 508 51 q 372 3 446 21 q 239 -14 297 -14 q 118 45 153 -14 q 83 203 83 104 l 83 676 l 283 676 m 475 758 q 424 765 444 758 q 382 788 403 772 q 349 810 363 801 q 318 818 336 818 q 278 797 294 818 q 249 756 261 775 l 168 818 q 228 902 192 865 q 314 939 265 939 q 359 933 339 939 q 404 910 379 926 q 444 886 428 894 q 475 878 460 878 q 510 892 499 878 q 528 935 521 907 l 622 892 q 567 794 604 829 q 475 758 529 758 z "},"Ū":{"ha":864,"x_min":83,"x_max":781,"o":"m 781 925 l 781 269 q 763 166 781 217 q 704 75 744 115 q 597 10 664 35 q 432 -14 529 -14 q 267 10 333 -14 q 160 75 200 35 q 101 166 119 115 q 83 269 83 217 l 83 925 l 292 925 l 292 289 q 322 201 292 232 q 432 171 353 171 q 542 201 511 171 q 572 289 572 232 l 572 925 l 781 925 m 257 1014 l 257 1142 l 610 1142 l 610 1014 l 257 1014 z "},"ū":{"ha":768,"x_min":83,"x_max":678,"o":"m 283 676 l 283 229 q 332 181 283 181 q 364 185 346 181 q 402 196 382 189 q 442 212 422 203 q 478 229 461 221 l 478 676 l 678 676 l 678 0 l 529 0 l 508 51 q 372 3 446 21 q 239 -14 297 -14 q 118 45 153 -14 q 83 203 83 104 l 83 676 l 283 676 m 213 778 l 213 906 l 565 906 l 565 778 l 213 778 z "},"Ŭ":{"ha":864,"x_min":83,"x_max":781,"o":"m 781 925 l 781 269 q 763 166 781 217 q 704 75 744 115 q 597 10 664 35 q 432 -14 529 -14 q 267 10 333 -14 q 160 75 200 35 q 101 166 119 115 q 83 269 83 217 l 83 925 l 292 925 l 292 289 q 322 201 292 232 q 432 171 353 171 q 542 201 511 171 q 572 289 572 232 l 572 925 l 781 925 m 631 1143 q 569 1035 618 1079 q 432 990 519 990 q 295 1035 344 990 q 233 1143 246 1079 l 326 1188 q 363 1121 338 1146 q 432 1096 389 1096 q 501 1121 475 1096 q 538 1188 526 1146 l 631 1143 z "},"ŭ":{"ha":768,"x_min":83,"x_max":678,"o":"m 283 676 l 283 229 q 332 181 283 181 q 364 185 346 181 q 402 196 382 189 q 442 212 422 203 q 478 229 461 221 l 478 676 l 678 676 l 678 0 l 529 0 l 508 51 q 372 3 446 21 q 239 -14 297 -14 q 118 45 153 -14 q 83 203 83 104 l 83 676 l 283 676 m 613 913 q 592 849 608 881 q 549 794 576 818 q 485 756 522 771 q 399 742 447 742 q 313 756 350 742 q 248 794 275 771 q 205 849 221 818 q 185 913 189 881 l 278 957 q 319 885 289 915 q 399 856 349 856 q 478 885 449 856 q 519 957 508 915 l 613 913 z "},"Ů":{"ha":864,"x_min":83,"x_max":781,"o":"m 781 925 l 781 269 q 763 166 781 217 q 704 75 744 115 q 597 10 664 35 q 432 -14 529 -14 q 267 10 333 -14 q 160 75 200 35 q 101 166 119 115 q 83 269 83 217 l 83 925 l 292 925 l 292 289 q 322 201 292 232 q 432 171 353 171 q 542 201 511 171 q 572 289 572 232 l 572 925 l 781 925 m 554 1099 q 522 1016 554 1050 q 432 982 489 982 q 342 1014 375 982 q 310 1099 310 1046 q 342 1182 310 1147 q 432 1217 375 1217 q 522 1182 489 1217 q 554 1099 554 1147 m 479 1099 q 467 1135 479 1122 q 432 1149 454 1149 q 397 1135 410 1149 q 385 1099 385 1122 q 397 1063 385 1076 q 432 1050 410 1050 q 467 1063 454 1050 q 479 1099 479 1076 z "},"ů":{"ha":768,"x_min":83,"x_max":678,"o":"m 283 676 l 283 229 q 332 181 283 181 q 364 185 346 181 q 402 196 382 189 q 442 212 422 203 q 478 229 461 221 l 478 676 l 678 676 l 678 0 l 529 0 l 508 51 q 372 3 446 21 q 239 -14 297 -14 q 118 45 153 -14 q 83 203 83 104 l 83 676 l 283 676 m 522 861 q 488 770 522 808 q 388 732 454 732 q 287 767 321 732 q 253 861 253 803 q 288 952 253 914 q 388 990 322 990 q 488 952 454 990 q 522 861 522 914 m 439 861 q 425 901 439 886 q 388 917 411 917 q 350 901 364 917 q 336 861 336 886 q 350 821 336 836 q 388 806 364 806 q 425 821 411 806 q 439 861 439 836 z "},"Ű":{"ha":864,"x_min":83,"x_max":781,"o":"m 781 925 l 781 269 q 763 166 781 217 q 704 75 744 115 q 597 10 664 35 q 432 -14 529 -14 q 267 10 333 -14 q 160 75 200 35 q 101 166 119 115 q 83 269 83 217 l 83 925 l 292 925 l 292 289 q 322 201 292 232 q 432 171 353 171 q 542 201 511 171 q 572 289 572 232 l 572 925 l 781 925 m 228 1068 q 299 1139 264 1101 q 367 1213 335 1176 l 464 1114 q 395 1044 432 1079 q 318 979 358 1010 l 228 1068 m 478 1068 q 549 1139 514 1101 q 617 1213 585 1176 l 714 1114 q 645 1044 682 1079 q 568 979 608 1010 l 478 1068 z "},"ű":{"ha":768,"x_min":83,"x_max":701,"o":"m 283 676 l 283 229 q 332 181 283 181 q 364 185 346 181 q 402 196 382 189 q 442 212 422 203 q 478 229 461 221 l 478 676 l 678 676 l 678 0 l 529 0 l 508 51 q 372 3 446 21 q 239 -14 297 -14 q 118 45 153 -14 q 83 203 83 104 l 83 676 l 283 676 m 176 825 q 258 903 221 865 q 340 993 296 942 l 438 894 q 391 847 411 868 q 351 809 371 826 q 311 774 332 792 q 265 736 290 757 l 176 825 m 440 825 q 522 903 485 865 q 604 993 560 942 l 701 894 q 655 847 675 868 q 615 809 635 826 q 575 774 596 792 q 529 736 554 757 l 440 825 z "},"Ų":{"ha":864,"x_min":83,"x_max":781,"o":"m 560 -272 q 515 -284 539 -281 q 468 -287 492 -287 q 360 -256 401 -287 q 318 -160 318 -224 q 350 -78 318 -115 q 432 -14 382 -42 q 267 10 333 -14 q 160 75 200 35 q 101 166 119 115 q 83 269 83 217 l 83 925 l 292 925 l 292 289 q 322 201 292 232 q 432 171 353 171 q 542 201 511 171 q 572 289 572 232 l 572 925 l 781 925 l 781 269 q 769 184 781 226 q 731 106 757 142 q 663 42 706 69 q 560 0 621 14 q 521 -31 540 -15 q 486 -65 501 -47 q 461 -99 471 -82 q 451 -132 451 -117 q 499 -174 451 -174 q 522 -172 510 -174 q 547 -168 535 -171 l 560 -272 z "},"ų":{"ha":768,"x_min":83,"x_max":678,"o":"m 635 -272 q 590 -284 614 -281 q 543 -287 567 -287 q 435 -256 476 -287 q 393 -160 393 -224 q 432 -69 393 -108 q 529 0 471 -29 l 508 51 q 372 3 446 21 q 239 -14 297 -14 q 118 45 153 -14 q 83 203 83 104 l 83 676 l 283 676 l 283 229 q 332 181 283 181 q 364 185 346 181 q 402 196 382 189 q 442 212 422 203 q 478 229 461 221 l 478 676 l 678 676 l 678 0 l 635 0 q 599 -29 618 -14 q 564 -61 581 -44 q 537 -96 547 -78 q 526 -132 526 -114 q 574 -174 526 -174 q 597 -172 585 -174 q 622 -168 610 -171 l 635 -272 z "},"Ŵ":{"ha":1311,"x_min":7,"x_max":1304,"o":"m 1078 0 l 813 0 l 657 703 l 500 0 l 235 0 l 7 925 l 213 925 l 369 264 l 531 925 l 785 925 l 943 264 l 1099 925 l 1304 925 l 1078 0 m 781 989 q 717 1019 743 1006 q 657 1051 692 1032 q 597 1019 622 1032 q 533 989 571 1006 l 479 1075 q 568 1138 528 1108 q 657 1206 608 1168 q 746 1138 706 1168 q 835 1075 786 1108 l 781 989 z "},"ŵ":{"ha":979,"x_min":25,"x_max":954,"o":"m 489 442 l 358 0 l 142 0 l 25 676 l 208 676 l 272 281 l 390 676 l 590 676 l 707 281 l 771 676 l 954 676 l 838 0 l 621 0 l 489 442 m 290 819 q 388 898 336 856 q 489 982 440 940 q 590 898 538 940 q 688 819 642 856 l 626 738 q 585 763 603 751 q 552 784 568 774 q 522 805 536 794 q 489 828 507 815 q 456 805 471 815 q 426 784 442 794 q 392 763 410 774 q 351 738 375 751 l 290 819 z "},"Ŷ":{"ha":783,"x_min":0,"x_max":783,"o":"m 496 267 l 496 0 l 288 0 l 288 267 l 0 925 l 218 925 l 392 496 l 565 925 l 783 925 l 496 267 m 515 989 q 452 1019 478 1006 q 392 1051 426 1032 q 331 1019 357 1032 q 268 989 306 1006 l 214 1075 q 303 1138 263 1108 q 392 1206 343 1168 q 481 1138 440 1168 q 569 1075 521 1108 l 515 989 z "},"ŷ":{"ha":688,"x_min":7,"x_max":688,"o":"m 200 -274 l 279 0 l 215 0 l 7 676 l 210 676 l 347 197 l 485 676 l 688 676 l 475 0 l 389 -274 l 200 -274 m 151 819 q 249 898 197 856 q 350 982 301 940 q 451 898 399 940 q 549 819 503 856 l 488 738 q 447 763 464 751 q 413 784 429 774 q 383 805 397 794 q 350 828 368 815 q 317 805 332 815 q 287 784 303 794 q 253 763 271 774 q 213 738 236 751 l 151 819 z "},"Ÿ":{"ha":783,"x_min":0,"x_max":783,"o":"m 496 267 l 496 0 l 288 0 l 288 267 l 0 925 l 218 925 l 392 496 l 565 925 l 783 925 l 496 267 m 172 1010 l 172 1161 l 331 1161 l 331 1010 l 172 1010 m 453 1010 l 453 1161 l 611 1161 l 611 1010 l 453 1010 z "},"Ź":{"ha":786,"x_min":69,"x_max":717,"o":"m 307 171 l 717 171 l 717 0 l 69 0 l 69 169 l 476 754 l 88 754 l 88 925 l 710 925 l 710 754 l 307 171 m 307 1088 q 407 1151 358 1119 q 496 1215 456 1183 l 571 1099 q 524 1066 546 1081 q 478 1038 501 1051 q 431 1011 456 1025 q 376 982 406 997 l 307 1088 z "},"ź":{"ha":639,"x_min":63,"x_max":583,"o":"m 64 676 l 575 676 l 575 524 l 294 153 l 583 153 l 583 0 l 63 0 l 63 153 l 342 524 l 64 524 l 64 676 m 219 851 q 322 918 271 883 q 429 993 374 953 l 504 876 q 394 807 442 836 q 289 746 347 778 l 219 851 z "},"Ż":{"ha":786,"x_min":69,"x_max":717,"o":"m 307 171 l 717 171 l 717 0 l 69 0 l 69 169 l 476 754 l 88 754 l 88 925 l 710 925 l 710 754 l 307 171 m 306 1011 l 306 1224 l 506 1224 l 506 1011 l 306 1011 z "},"ż":{"ha":639,"x_min":63,"x_max":583,"o":"m 64 676 l 575 676 l 575 524 l 294 153 l 583 153 l 583 0 l 63 0 l 63 153 l 342 524 l 64 524 l 64 676 m 229 761 l 229 974 l 429 974 l 429 761 l 229 761 z "},"Ž":{"ha":786,"x_min":69,"x_max":717,"o":"m 307 171 l 717 171 l 717 0 l 69 0 l 69 169 l 476 754 l 88 754 l 88 925 l 710 925 l 710 754 l 307 171 m 593 1121 q 504 1058 544 1088 q 415 990 464 1028 q 326 1058 367 1028 q 238 1121 286 1088 l 292 1207 q 355 1177 329 1190 q 415 1144 381 1164 q 476 1177 450 1164 q 539 1207 501 1190 l 593 1121 z "},"ž":{"ha":639,"x_min":63,"x_max":583,"o":"m 64 676 l 575 676 l 575 524 l 294 153 l 583 153 l 583 0 l 63 0 l 63 153 l 342 524 l 64 524 l 64 676 m 193 976 q 234 951 217 963 q 267 930 251 940 q 298 909 283 919 q 331 886 313 899 q 363 909 349 899 q 394 930 378 919 q 427 951 410 940 q 468 976 444 963 l 529 894 q 431 816 483 858 q 331 732 379 774 q 230 816 282 774 q 132 894 178 858 l 193 976 z "},"ƒ":{"ha":689,"x_min":7,"x_max":654,"o":"m 40 -101 q 66 -106 51 -104 q 96 -107 81 -107 q 153 -87 139 -107 q 169 -35 167 -68 l 211 429 l 101 429 l 115 593 l 225 593 l 239 757 q 259 849 243 808 q 304 917 275 890 q 378 959 333 944 q 488 974 424 974 q 654 954 569 974 l 622 796 q 568 803 601 800 q 511 807 535 807 q 474 802 488 807 q 452 788 460 797 q 442 765 444 778 q 438 735 439 751 l 425 593 l 607 593 l 579 429 l 411 429 l 368 -57 q 301 -217 358 -161 q 119 -274 243 -274 q 67 -271 96 -274 q 7 -261 38 -268 l 40 -101 z "},"Ǻ":{"ha":871,"x_min":14,"x_max":857,"o":"m 857 0 l 640 0 l 590 181 l 281 181 l 231 0 l 14 0 l 296 925 l 574 925 l 857 0 m 328 354 l 540 354 l 435 742 l 328 354 m 557 1099 q 524 1016 557 1050 q 435 982 492 982 q 345 1014 378 982 q 313 1099 313 1046 q 345 1182 313 1147 q 435 1217 378 1217 q 524 1182 492 1217 q 557 1099 557 1147 m 482 1099 q 469 1135 482 1122 q 435 1149 457 1149 q 400 1135 413 1149 q 388 1099 388 1122 q 400 1063 388 1076 q 435 1050 413 1050 q 469 1063 457 1050 q 482 1099 482 1076 m 388 1353 q 433 1383 413 1369 q 474 1408 454 1396 q 513 1435 493 1421 q 554 1465 532 1449 l 622 1360 q 576 1330 597 1343 q 535 1304 556 1317 q 493 1280 515 1292 q 444 1256 471 1268 l 388 1353 z "},"ǻ":{"ha":718,"x_min":63,"x_max":642,"o":"m 504 863 q 472 780 504 814 q 382 746 439 746 q 292 778 325 746 q 260 863 260 810 q 292 946 260 911 q 382 981 325 981 q 472 946 439 981 q 504 863 504 911 m 429 863 q 417 899 429 886 q 382 913 404 913 q 347 899 360 913 q 335 863 335 886 q 347 827 335 840 q 382 814 360 814 q 417 827 404 814 q 429 863 429 840 m 313 1117 q 358 1147 338 1133 q 399 1172 379 1160 q 438 1199 418 1185 q 479 1229 457 1213 l 547 1124 q 501 1094 522 1107 q 460 1068 481 1081 q 418 1044 440 1056 q 369 1019 396 1032 l 313 1117 m 474 0 l 464 49 q 362 3 419 21 q 260 -14 304 -14 q 108 44 154 -14 q 63 199 63 103 q 116 352 63 308 q 264 396 169 396 l 442 396 l 442 433 q 416 509 442 492 q 324 526 390 526 q 229 519 279 526 q 139 499 179 511 l 113 653 q 165 668 135 661 q 227 680 194 675 q 294 688 260 685 q 363 690 329 690 q 496 677 442 690 q 582 633 550 664 q 628 553 614 603 q 642 432 642 504 l 642 0 l 474 0 m 442 264 l 314 264 q 268 249 282 264 q 254 201 254 233 q 267 148 254 169 q 319 126 281 126 q 391 135 360 126 q 442 154 422 144 l 442 264 z "},"Ǽ":{"ha":1188,"x_min":14,"x_max":1118,"o":"m 640 0 l 590 181 l 281 181 l 231 0 l 14 0 l 296 925 l 1118 925 l 1118 740 l 629 740 l 682 571 l 1089 571 l 1089 386 l 738 386 l 800 185 l 1118 185 l 1118 0 l 640 0 m 328 354 l 540 354 l 435 742 l 328 354 m 444 1088 q 544 1151 496 1119 q 633 1215 593 1183 l 708 1099 q 661 1066 683 1081 q 616 1038 639 1051 q 568 1011 593 1025 q 514 982 543 997 l 444 1088 z "},"ǽ":{"ha":1081,"x_min":63,"x_max":1025,"o":"m 642 267 l 642 238 q 675 163 644 188 q 772 139 706 139 q 826 142 797 139 q 885 149 856 144 q 941 160 914 154 q 989 172 968 165 l 1018 29 q 900 -1 971 13 q 756 -14 829 -14 q 529 53 608 -14 q 414 3 478 21 q 267 -14 350 -14 q 113 44 163 -14 q 63 199 63 103 q 116 352 63 308 q 264 396 169 396 l 442 396 l 442 433 q 416 509 442 492 q 324 526 390 526 q 229 519 279 526 q 139 499 179 511 l 113 653 q 165 668 135 661 q 227 680 194 675 q 294 688 260 685 q 363 690 329 690 q 469 676 425 690 q 549 638 513 663 q 629 676 581 661 q 742 690 678 690 q 882 667 826 690 q 969 606 938 644 q 1013 516 1000 567 q 1025 410 1025 465 l 1025 267 l 642 267 m 836 456 q 815 517 836 492 q 742 542 794 542 q 663 517 685 542 q 642 456 642 493 l 642 396 l 836 396 l 836 456 m 321 126 q 397 135 360 126 q 457 157 433 144 q 445 208 449 181 q 442 264 442 235 l 442 267 l 314 267 q 268 250 282 267 q 254 201 254 233 q 267 148 254 169 q 321 126 281 126 m 478 851 q 581 918 529 883 q 688 993 632 953 l 763 876 q 653 807 700 836 q 547 746 606 778 l 478 851 z "},"Ǿ":{"ha":856,"x_min":69,"x_max":786,"o":"m 142 83 q 86 172 103 124 q 69 269 69 219 l 69 656 q 89 759 69 708 q 151 850 108 810 q 261 915 193 890 q 428 939 329 939 q 544 928 493 939 q 635 897 594 917 l 703 1008 l 786 958 l 714 840 q 769 752 751 800 q 786 656 786 704 l 786 269 q 767 166 786 217 q 705 75 747 115 q 594 10 663 35 q 428 -14 525 -14 q 311 -3 363 -14 q 219 28 260 8 l 153 -83 l 69 -35 l 142 83 m 278 308 l 533 729 q 428 754 493 754 q 313 723 349 754 q 278 638 278 692 l 278 308 m 428 171 q 542 202 507 171 q 578 288 578 233 l 578 615 l 322 196 q 428 171 357 171 m 346 1088 q 446 1151 397 1119 q 535 1215 494 1183 l 610 1099 q 563 1066 585 1081 q 517 1038 540 1051 q 469 1011 494 1025 q 415 982 444 997 l 346 1088 z "},"ǿ":{"ha":722,"x_min":56,"x_max":667,"o":"m 361 -14 q 261 -5 304 -14 q 185 21 218 4 l 121 -69 l 60 -28 l 124 64 q 71 154 86 103 q 56 260 56 206 l 56 417 q 69 517 56 468 q 118 606 83 567 q 212 667 153 644 q 361 690 271 690 q 461 681 418 690 q 538 656 504 672 l 601 746 l 663 703 l 599 611 q 651 522 636 572 q 667 417 667 471 l 667 260 q 653 158 667 207 q 604 71 639 110 q 510 9 569 32 q 361 -14 451 -14 m 256 251 l 432 504 q 361 522 404 522 q 281 497 307 522 q 256 422 256 471 l 256 254 l 256 251 m 361 154 q 441 180 415 154 q 467 254 467 206 l 467 422 l 290 172 q 361 154 314 154 m 279 851 q 382 918 331 883 q 489 993 433 953 l 564 876 q 454 807 501 836 q 349 746 407 778 l 279 851 z "},"ˆ":{"ha":522,"x_min":63,"x_max":460,"o":"m 63 819 q 160 898 108 856 q 261 982 213 940 q 362 898 310 940 q 460 819 414 856 l 399 738 q 358 763 375 751 q 324 784 340 774 q 294 805 308 794 q 261 828 279 815 q 228 805 243 815 q 198 784 214 794 q 165 763 182 774 q 124 738 147 751 l 63 819 z "},"ˇ":{"ha":522,"x_min":63,"x_max":460,"o":"m 124 976 q 165 951 147 963 q 198 930 182 940 q 228 909 214 919 q 261 886 243 899 q 294 909 279 899 q 324 930 308 919 q 358 951 340 940 q 399 976 375 963 l 460 894 q 362 816 414 858 q 261 732 310 774 q 160 816 213 774 q 63 894 108 858 l 124 976 z "},"˘":{"ha":553,"x_min":63,"x_max":490,"o":"m 490 913 q 470 849 486 881 q 427 794 454 818 q 363 756 400 771 q 276 742 325 742 q 190 756 228 742 q 126 794 153 771 q 83 849 99 818 q 63 913 67 881 l 156 957 q 197 885 167 915 q 276 856 226 856 q 356 885 326 856 q 397 957 386 915 l 490 913 z "},"˙":{"ha":325,"x_min":63,"x_max":263,"o":"m 63 761 l 63 974 l 263 974 l 263 761 l 63 761 z "},"˚":{"ha":394,"x_min":63,"x_max":332,"o":"m 332 861 q 298 770 332 808 q 197 732 264 732 q 97 767 131 732 q 63 861 63 803 q 97 952 63 914 q 197 990 132 990 q 298 952 264 990 q 332 861 332 914 m 249 861 q 235 901 249 886 q 197 917 221 917 q 160 901 174 917 q 146 861 146 886 q 160 821 146 836 q 197 806 174 806 q 235 821 221 806 q 249 861 249 836 z "},"˛":{"ha":367,"x_min":63,"x_max":304,"o":"m 304 -272 q 260 -284 283 -281 q 213 -287 236 -287 q 104 -256 146 -287 q 63 -160 63 -224 q 101 -69 63 -108 q 199 0 140 -29 l 304 0 q 269 -29 288 -14 q 233 -61 250 -44 q 206 -96 217 -78 q 196 -132 196 -114 q 243 -174 196 -174 q 267 -172 254 -174 q 292 -168 279 -171 l 304 -272 z "},"˜":{"ha":579,"x_min":63,"x_max":517,"o":"m 369 758 q 318 765 339 758 q 276 788 297 772 q 244 810 257 801 q 213 818 231 818 q 172 797 189 818 q 143 756 156 775 l 63 818 q 123 902 86 865 q 208 939 160 939 q 253 933 233 939 q 299 910 274 926 q 338 886 322 894 q 369 878 354 878 q 404 892 393 878 q 422 935 415 907 l 517 892 q 461 794 499 829 q 369 758 424 758 z "},"˝":{"ha":650,"x_min":63,"x_max":588,"o":"m 63 825 q 144 903 107 865 q 226 993 182 942 l 324 894 q 277 847 297 868 q 238 809 257 826 q 197 774 218 792 q 151 736 176 757 l 63 825 m 326 825 q 408 903 371 865 q 490 993 446 942 l 588 894 q 541 847 561 868 q 501 809 521 826 q 461 774 482 792 q 415 736 440 757 l 326 825 z "},"Ω":{"ha":947,"x_min":49,"x_max":899,"o":"m 832 279 q 817 193 832 226 q 779 132 803 160 l 899 132 l 899 0 l 549 0 l 549 132 q 601 194 578 157 q 624 293 624 232 l 624 638 q 588 723 624 692 q 474 754 553 754 q 359 723 394 754 q 324 638 324 692 l 324 293 q 347 194 324 232 q 399 132 369 157 l 399 0 l 49 0 l 49 132 l 168 132 q 130 193 144 160 q 115 279 115 226 l 115 656 q 135 759 115 708 q 197 850 154 810 q 307 915 239 890 q 474 939 375 939 q 640 915 571 939 q 751 850 708 890 q 813 759 793 810 q 832 656 832 708 l 832 279 z "},"π":{"ha":940,"x_min":42,"x_max":878,"o":"m 42 676 l 871 676 l 871 511 l 742 511 l 742 176 q 781 140 742 140 q 817 143 803 140 q 851 151 832 146 l 878 10 q 813 -8 847 -1 q 742 -14 778 -14 q 594 35 640 -14 q 547 164 547 85 l 547 511 l 369 511 l 369 0 l 175 0 l 175 511 l 42 511 l 42 676 z "},"Ẁ":{"ha":1311,"x_min":7,"x_max":1304,"o":"m 1078 0 l 813 0 l 657 703 l 500 0 l 235 0 l 7 925 l 213 925 l 369 264 l 531 925 l 785 925 l 943 264 l 1099 925 l 1304 925 l 1078 0 m 678 982 q 624 1011 649 997 q 576 1038 599 1025 q 531 1066 553 1051 q 483 1099 508 1081 l 558 1215 q 647 1151 599 1183 q 747 1088 696 1119 l 678 982 z "},"ẁ":{"ha":979,"x_min":25,"x_max":954,"o":"m 489 442 l 358 0 l 142 0 l 25 676 l 208 676 l 272 281 l 390 676 l 590 676 l 707 281 l 771 676 l 954 676 l 838 0 l 621 0 l 489 442 m 499 746 q 393 807 440 778 q 283 876 346 836 l 358 993 q 465 918 414 953 q 568 851 517 883 l 499 746 z "},"Ẃ":{"ha":1311,"x_min":7,"x_max":1304,"o":"m 1078 0 l 813 0 l 657 703 l 500 0 l 235 0 l 7 925 l 213 925 l 369 264 l 531 925 l 785 925 l 943 264 l 1099 925 l 1304 925 l 1078 0 m 583 1088 q 683 1151 635 1119 q 772 1215 732 1183 l 847 1099 q 800 1066 822 1081 q 755 1038 778 1051 q 707 1011 732 1025 q 653 982 682 997 l 583 1088 z "},"ẃ":{"ha":979,"x_min":25,"x_max":954,"o":"m 489 442 l 358 0 l 142 0 l 25 676 l 208 676 l 272 281 l 390 676 l 590 676 l 707 281 l 771 676 l 954 676 l 838 0 l 621 0 l 489 442 m 421 851 q 524 918 472 883 q 631 993 575 953 l 706 876 q 596 807 643 836 q 490 746 549 778 l 421 851 z "},"Ẅ":{"ha":1311,"x_min":7,"x_max":1304,"o":"m 1078 0 l 813 0 l 657 703 l 500 0 l 235 0 l 7 925 l 213 925 l 369 264 l 531 925 l 785 925 l 943 264 l 1099 925 l 1304 925 l 1078 0 m 438 1010 l 438 1161 l 596 1161 l 596 1010 l 438 1010 m 718 1010 l 718 1161 l 876 1161 l 876 1010 l 718 1010 z "},"ẅ":{"ha":979,"x_min":25,"x_max":954,"o":"m 489 442 l 358 0 l 142 0 l 25 676 l 208 676 l 272 281 l 390 676 l 590 676 l 707 281 l 771 676 l 954 676 l 838 0 l 621 0 l 489 442 m 263 769 l 263 933 l 421 933 l 421 769 l 263 769 m 554 769 l 554 933 l 713 933 l 713 769 l 554 769 z "},"Ỳ":{"ha":783,"x_min":0,"x_max":783,"o":"m 496 267 l 496 0 l 288 0 l 288 267 l 0 925 l 218 925 l 392 496 l 565 925 l 783 925 l 496 267 m 415 982 q 361 1011 386 997 q 313 1038 336 1025 q 268 1066 290 1051 q 221 1099 246 1081 l 296 1215 q 385 1151 336 1183 q 485 1088 433 1119 l 415 982 z "},"ỳ":{"ha":688,"x_min":7,"x_max":688,"o":"m 200 -274 l 279 0 l 215 0 l 7 676 l 210 676 l 347 197 l 485 676 l 688 676 l 475 0 l 389 -274 l 200 -274 m 375 746 q 269 807 317 778 q 160 876 222 836 l 235 993 q 342 918 290 953 q 444 851 393 883 l 375 746 z "},"–":{"ha":664,"x_min":69,"x_max":594,"o":"m 69 306 l 69 472 l 594 472 l 594 306 l 69 306 z "},"—":{"ha":872,"x_min":69,"x_max":803,"o":"m 69 306 l 69 472 l 803 472 l 803 306 l 69 306 z "},"‘":{"ha":372,"x_min":90,"x_max":303,"o":"m 213 981 l 303 929 l 224 774 l 290 774 l 290 543 l 90 543 l 90 788 l 213 981 z "},"’":{"ha":358,"x_min":69,"x_max":282,"o":"m 160 515 l 69 567 l 149 722 l 82 722 l 82 953 l 282 953 l 282 708 l 160 515 z "},"‚":{"ha":379,"x_min":76,"x_max":289,"o":"m 167 -207 l 76 -156 l 156 0 l 89 0 l 89 231 l 289 231 l 289 -14 l 167 -207 z "},"“":{"ha":671,"x_min":90,"x_max":601,"o":"m 213 981 l 303 929 l 224 774 l 290 774 l 290 543 l 90 543 l 90 788 l 213 981 m 511 981 l 601 929 l 522 774 l 589 774 l 589 543 l 389 543 l 389 788 l 511 981 z "},"”":{"ha":671,"x_min":69,"x_max":581,"o":"m 458 515 l 368 567 l 447 722 l 381 722 l 381 953 l 581 953 l 581 708 l 458 515 m 160 515 l 69 567 l 149 722 l 82 722 l 82 953 l 282 953 l 282 708 l 160 515 z "},"„":{"ha":678,"x_min":76,"x_max":588,"o":"m 465 -207 l 375 -156 l 454 0 l 388 0 l 388 231 l 588 231 l 588 -14 l 465 -207 m 167 -207 l 76 -156 l 156 0 l 89 0 l 89 231 l 289 231 l 289 -14 l 167 -207 z "},"†":{"ha":617,"x_min":42,"x_max":575,"o":"m 381 563 l 381 -97 l 236 -97 l 236 563 l 42 563 l 42 696 l 236 696 l 236 925 l 381 925 l 381 696 l 575 696 l 575 563 l 381 563 z "},"‡":{"ha":617,"x_min":42,"x_max":575,"o":"m 236 265 l 236 563 l 42 563 l 42 696 l 236 696 l 236 925 l 381 925 l 381 696 l 575 696 l 575 563 l 381 563 l 381 265 l 575 265 l 575 132 l 381 132 l 381 -97 l 236 -97 l 236 132 l 42 132 l 42 265 l 236 265 z "},"•":{"ha":483,"x_min":56,"x_max":428,"o":"m 56 449 q 70 522 56 488 q 110 581 85 556 q 169 620 135 606 q 242 635 203 635 q 315 620 281 635 q 374 581 349 606 q 413 522 399 556 q 428 449 428 488 q 413 376 428 410 q 374 317 399 342 q 315 277 349 292 q 242 263 281 263 q 169 277 203 263 q 110 317 135 292 q 70 376 85 342 q 56 449 56 410 z "},"…":{"ha":1142,"x_min":90,"x_max":1051,"o":"m 90 0 l 90 231 l 290 231 l 290 0 l 90 0 m 471 0 l 471 231 l 671 231 l 671 0 l 471 0 m 851 0 l 851 231 l 1051 231 l 1051 0 l 851 0 z "},"‰":{"ha":1785,"x_min":49,"x_max":1729,"o":"m 494 628 q 484 548 494 585 q 449 484 474 511 q 381 442 424 457 q 272 426 338 426 q 164 442 207 426 q 95 484 121 457 q 59 548 69 511 q 49 628 49 585 l 49 731 q 59 810 49 774 q 95 874 69 847 q 164 917 121 901 q 272 932 207 932 q 381 917 338 932 q 449 874 424 901 q 484 810 474 847 q 494 731 494 774 l 494 628 m 340 742 q 326 786 340 774 q 272 799 311 799 q 218 786 233 799 q 203 742 203 774 l 203 617 q 218 572 203 585 q 272 560 233 560 q 326 572 311 560 q 340 617 340 585 l 340 742 m 743 939 l 865 890 l 493 -14 l 371 36 l 743 939 m 1183 194 q 1173 115 1183 151 q 1138 51 1163 78 q 1069 8 1113 24 q 961 -7 1026 -7 q 853 8 896 -7 q 784 51 810 24 q 748 115 758 78 q 738 194 738 151 l 738 297 q 748 377 738 340 q 784 441 758 414 q 853 483 810 468 q 961 499 896 499 q 1069 483 1026 499 q 1138 441 1113 468 q 1173 377 1163 414 q 1183 297 1183 340 l 1183 194 m 1029 308 q 1015 353 1029 340 q 961 365 1000 365 q 907 353 922 365 q 892 308 892 340 l 892 183 q 907 139 892 151 q 961 126 922 126 q 1015 139 1000 126 q 1029 183 1029 151 l 1029 308 m 1729 194 q 1719 115 1729 151 q 1683 51 1708 78 q 1615 8 1658 24 q 1507 -7 1572 -7 q 1399 8 1442 -7 q 1330 51 1356 24 q 1294 115 1304 78 q 1283 194 1283 151 l 1283 297 q 1294 377 1283 340 q 1330 441 1304 414 q 1399 483 1356 468 q 1507 499 1442 499 q 1615 483 1572 499 q 1683 441 1658 468 q 1719 377 1708 414 q 1729 297 1729 340 l 1729 194 m 1575 308 q 1560 353 1575 340 q 1507 365 1546 365 q 1453 353 1468 365 q 1438 308 1438 340 l 1438 183 q 1453 139 1438 151 q 1507 126 1468 126 q 1560 139 1546 126 q 1575 183 1575 151 l 1575 308 z "},"‹":{"ha":476,"x_min":63,"x_max":372,"o":"m 63 339 l 239 607 l 372 528 l 249 339 l 372 150 l 239 71 l 63 339 z "},"›":{"ha":476,"x_min":104,"x_max":414,"o":"m 238 71 l 104 150 l 228 339 l 104 528 l 238 607 l 414 339 l 238 71 z "},"⁄":{"ha":539,"x_min":0,"x_max":539,"o":"m 431 960 l 539 911 l 110 -61 l 0 -14 l 431 960 z "},"€":{"ha":735,"x_min":21,"x_max":686,"o":"m 21 600 l 131 600 l 131 628 q 151 744 131 692 q 212 833 171 796 q 317 891 253 871 q 468 911 381 911 q 579 906 525 911 q 686 888 633 901 l 661 706 q 606 714 631 711 q 560 719 582 717 q 515 722 538 721 q 468 722 493 722 q 371 690 401 722 q 339 600 340 658 l 582 600 l 582 494 l 339 494 l 339 403 l 582 403 l 582 297 l 339 297 q 371 207 340 239 q 468 175 401 175 q 554 178 508 175 q 661 192 600 181 l 686 10 q 575 -9 628 -4 q 468 -14 522 -14 q 317 6 381 -14 q 212 64 253 26 q 151 153 171 101 q 131 269 131 206 l 131 297 l 21 297 l 21 403 l 131 403 l 131 494 l 21 494 l 21 600 z "},"ℓ":{"ha":749,"x_min":-7,"x_max":700,"o":"m 442 -14 q 313 1 365 -14 q 226 45 260 17 q 174 113 192 74 q 151 197 157 151 q 112 176 132 186 q 71 154 92 165 l -7 289 q 72 333 33 311 q 149 376 110 356 l 149 713 q 216 911 149 842 q 422 981 283 981 q 531 964 483 981 q 612 917 579 947 q 662 845 644 886 q 679 757 679 804 q 658 629 679 689 q 594 515 636 569 q 489 411 551 461 q 346 311 426 361 l 346 247 q 372 172 346 194 q 457 149 399 149 q 654 194 546 149 l 700 42 q 570 -1 632 11 q 442 -14 508 -14 m 346 504 q 452 615 413 557 q 492 751 492 672 q 472 803 492 786 q 422 821 451 821 q 346 738 346 821 l 346 504 z "},"№":{"ha":1386,"x_min":90,"x_max":1351,"o":"m 283 601 l 283 0 l 90 0 l 90 925 l 326 925 l 589 294 l 589 925 l 782 925 l 782 0 l 544 0 l 283 601 m 908 343 l 1338 343 l 1338 225 l 908 225 l 908 343 m 1351 614 q 1339 535 1351 572 q 1299 472 1326 499 q 1229 428 1272 444 q 1124 413 1186 413 q 1018 428 1061 413 q 948 472 975 444 q 908 535 921 499 q 896 614 896 572 l 896 738 q 908 816 896 779 q 948 880 921 853 q 1018 923 975 907 q 1124 939 1061 939 q 1229 923 1186 939 q 1299 880 1272 907 q 1339 816 1326 853 q 1351 738 1351 779 l 1351 614 m 1201 740 q 1185 795 1201 776 q 1124 814 1168 814 q 1063 795 1079 814 q 1046 740 1046 776 l 1046 611 q 1063 556 1046 575 q 1124 538 1079 538 q 1185 556 1168 538 q 1201 611 1201 575 l 1201 740 z "},"™":{"ha":628,"x_min":42,"x_max":579,"o":"m 360 792 l 357 642 l 293 642 l 304 925 l 371 925 l 436 754 l 500 925 l 568 925 l 579 642 l 514 642 l 511 793 l 467 678 l 404 678 l 360 792 m 183 864 l 183 642 l 115 642 l 115 864 l 42 864 l 42 925 l 258 925 l 258 864 l 183 864 z "},"℮":{"ha":1089,"x_min":49,"x_max":1040,"o":"m 246 418 l 246 139 q 378 62 303 90 q 544 33 453 33 q 763 78 669 33 q 949 214 857 122 l 982 181 q 897 103 942 139 q 798 42 851 68 q 682 1 744 15 q 544 -14 619 -14 q 349 23 439 -14 q 192 123 258 60 q 87 270 125 186 q 49 449 49 354 q 88 628 49 544 q 195 775 128 713 q 353 874 263 838 q 544 911 443 911 q 735 874 646 911 q 893 775 825 838 q 1001 628 961 713 q 1040 449 1040 544 l 1040 418 l 246 418 m 544 864 q 381 834 457 864 q 246 753 304 804 l 246 463 l 843 463 l 843 753 q 708 834 785 804 q 544 864 632 864 z "},"∂":{"ha":799,"x_min":49,"x_max":736,"o":"m 417 967 q 565 948 504 967 q 664 894 626 929 q 719 809 701 860 q 736 694 736 758 q 733 637 736 669 q 724 571 731 604 l 665 246 q 635 135 654 183 q 577 54 615 88 q 476 3 539 21 q 314 -14 413 -14 q 190 2 240 -14 q 108 45 140 18 q 63 110 76 72 q 49 189 49 147 q 50 217 49 203 q 54 246 51 231 l 69 333 q 95 438 79 390 q 144 520 111 486 q 232 574 176 554 q 378 593 288 593 q 455 586 415 593 q 522 568 494 579 l 529 611 q 534 647 532 631 q 536 678 536 664 q 503 767 536 740 q 386 793 469 793 q 190 760 296 793 l 151 914 q 284 953 215 939 q 417 967 353 967 m 343 154 q 431 172 407 154 q 464 240 456 190 l 492 401 q 446 418 475 411 q 383 425 417 425 q 303 407 326 425 q 271 339 281 389 l 253 240 q 251 226 251 233 q 250 208 250 218 q 270 167 250 179 q 343 154 290 154 z "},"∆":{"ha":990,"x_min":56,"x_max":935,"o":"m 935 0 l 56 0 l 394 925 l 596 925 l 935 0 m 322 185 l 667 185 l 494 668 l 322 185 z "},"∏":{"ha":1093,"x_min":49,"x_max":1044,"o":"m 683 -139 l 683 740 l 410 740 l 410 -139 l 210 -139 l 210 740 l 49 740 l 49 925 l 1044 925 l 1044 740 l 883 740 l 883 -139 l 683 -139 z "},"∑":{"ha":747,"x_min":76,"x_max":671,"o":"m 83 46 l 347 400 l 76 740 l 76 925 l 647 925 l 647 740 l 336 740 l 606 404 l 335 46 l 671 46 l 671 -139 l 83 -139 l 83 46 z "},"−":{"ha":511,"x_min":56,"x_max":456,"o":"m 56 247 l 56 414 l 456 414 l 456 247 l 56 247 z "},"√":{"ha":950,"x_min":63,"x_max":950,"o":"m 950 847 l 740 847 l 486 0 l 267 0 l 63 638 l 238 690 l 372 232 l 596 1014 l 950 1014 l 950 847 z "},"∞":{"ha":1242,"x_min":42,"x_max":1200,"o":"m 621 500 q 688 558 654 531 q 758 605 722 585 q 833 637 793 625 q 917 649 872 649 q 1031 632 979 649 q 1121 583 1083 615 q 1179 503 1158 551 q 1200 390 1200 454 q 1178 278 1200 326 q 1119 199 1157 231 q 1028 151 1081 167 q 917 135 976 135 q 833 147 872 135 q 758 178 793 158 q 688 226 722 199 q 621 282 654 253 q 553 226 588 253 q 484 178 519 199 q 409 147 449 158 q 325 135 369 135 q 213 151 264 135 q 123 199 161 167 q 63 278 85 231 q 42 390 42 326 q 63 503 42 454 q 121 583 83 551 q 210 632 158 615 q 325 649 263 649 q 409 637 369 649 q 484 605 449 625 q 553 558 519 585 q 621 500 588 531 m 218 390 q 247 319 218 342 q 325 296 276 296 q 414 322 371 296 q 504 392 457 349 q 414 460 457 433 q 325 488 371 488 q 287 481 306 488 q 253 463 268 475 q 228 432 238 450 q 218 390 218 414 m 1024 390 q 1014 432 1024 414 q 989 463 1004 450 q 954 481 974 475 q 917 488 935 488 q 828 460 871 488 q 738 392 785 433 q 828 322 785 349 q 917 296 871 296 q 994 319 965 296 q 1024 390 1024 342 z "},"∫":{"ha":569,"x_min":14,"x_max":514,"o":"m 164 736 q 212 890 164 840 q 351 939 260 939 q 434 929 389 939 q 514 904 479 919 l 478 749 q 438 760 460 756 q 404 765 417 765 q 364 721 364 765 l 364 -85 q 316 -238 364 -189 q 176 -287 268 -287 q 94 -278 139 -287 q 14 -253 49 -268 l 50 -110 q 90 -122 68 -117 q 124 -126 111 -126 q 164 -82 164 -126 l 164 736 l 164 736 z "},"≈":{"ha":757,"x_min":76,"x_max":694,"o":"m 272 164 q 202 147 235 164 q 143 107 169 129 l 76 229 q 115 263 93 246 q 164 292 138 279 q 219 314 190 306 q 278 322 249 322 q 351 309 319 322 q 410 281 383 296 q 461 252 438 265 q 508 239 485 239 q 567 253 540 239 q 618 292 594 268 l 694 178 q 659 147 679 163 q 615 117 639 131 q 561 94 590 103 q 500 85 532 85 q 434 97 461 85 q 383 124 407 110 q 333 151 358 139 q 272 164 307 164 m 272 442 q 202 424 235 442 q 143 385 169 407 l 76 507 q 115 540 93 524 q 164 570 138 557 q 219 592 190 583 q 278 600 249 600 q 351 587 319 600 q 410 558 383 574 q 461 530 438 543 q 508 517 485 517 q 567 531 540 517 q 618 569 594 546 l 694 456 q 659 424 679 440 q 615 394 639 408 q 561 372 590 381 q 500 363 532 363 q 434 375 461 363 q 383 402 407 388 q 333 429 358 417 q 272 442 307 442 z "},"≠":{"ha":729,"x_min":76,"x_max":653,"o":"m 185 147 l 76 147 l 76 281 l 254 281 l 325 417 l 76 417 l 76 550 l 394 550 l 496 743 l 608 685 l 538 550 l 653 550 l 653 417 l 468 417 l 397 281 l 653 281 l 653 147 l 328 147 l 232 -37 l 119 21 l 185 147 z "},"≤":{"ha":715,"x_min":63,"x_max":639,"o":"m 88 433 l 88 536 l 547 775 l 607 663 l 260 485 l 607 300 l 547 188 l 88 433 m 63 0 l 63 133 l 639 133 l 639 0 l 63 0 z "},"≥":{"ha":715,"x_min":76,"x_max":653,"o":"m 168 188 l 108 300 l 456 485 l 108 663 l 168 775 l 628 536 l 628 433 l 168 188 m 76 0 l 76 133 l 653 133 l 653 0 l 76 0 z "},"◊":{"ha":788,"x_min":35,"x_max":753,"o":"m 753 464 l 456 0 l 331 0 l 35 464 l 331 925 l 456 925 l 753 464 m 393 742 l 211 464 l 393 183 l 576 464 l 393 742 z "},"":{"ha":1217,"x_min":167,"x_max":1092,"o":"m 629 463 l 629 0 l 167 0 l 167 925 l 1092 925 l 1092 463 l 629 463 z "},"ﬁ":{"ha":899,"x_min":28,"x_max":808,"o":"m 608 0 l 608 517 l 331 517 l 331 0 l 131 0 l 131 517 l 28 517 l 28 676 l 131 676 l 131 764 q 183 924 131 868 q 360 981 236 981 q 436 976 403 981 q 499 963 469 971 l 474 806 q 399 814 432 814 q 361 809 375 814 q 340 794 347 804 q 332 772 333 785 q 331 742 331 758 l 331 676 l 808 676 l 808 0 l 608 0 m 608 761 l 608 974 l 808 974 l 808 761 l 608 761 z "},"ﬂ":{"ha":893,"x_min":28,"x_max":803,"o":"m 603 0 l 603 953 l 803 981 l 803 0 l 603 0 m 479 806 q 399 814 438 814 q 361 809 375 814 q 340 794 347 804 q 332 772 333 785 q 331 742 331 758 l 331 663 l 482 663 l 468 499 l 331 499 l 331 0 l 131 0 l 131 499 l 28 499 l 28 663 l 131 663 l 131 764 q 183 924 131 868 q 360 981 236 981 q 435 976 403 981 q 504 963 468 972 l 479 806 z "},"ﬀ":{"ha":1025,"x_min":28,"x_max":1025,"o":"m 1000 804 q 954 811 979 808 q 911 814 929 814 q 874 809 888 814 q 853 794 860 804 q 844 772 846 785 q 843 742 843 758 l 843 676 l 1003 676 l 989 517 l 843 517 l 843 0 l 643 0 l 643 517 l 331 517 l 331 0 l 131 0 l 131 517 l 28 517 l 28 676 l 131 676 l 131 764 q 183 924 131 868 q 360 981 236 981 q 439 976 403 981 q 506 963 475 971 l 481 806 q 438 812 460 810 q 399 814 417 814 q 361 809 375 814 q 340 794 347 804 q 332 772 333 785 q 331 742 331 758 l 331 676 l 643 676 l 643 764 q 696 924 643 868 q 872 981 749 981 q 950 975 915 981 q 1025 961 985 969 l 1000 804 z "},"ﬃ":{"ha":1411,"x_min":28,"x_max":1321,"o":"m 1121 0 l 1121 517 l 843 517 l 843 0 l 643 0 l 643 517 l 331 517 l 331 0 l 131 0 l 131 517 l 28 517 l 28 676 l 131 676 l 131 764 q 183 924 131 868 q 360 981 236 981 q 439 976 403 981 q 506 963 475 971 l 481 806 q 438 812 460 810 q 399 814 417 814 q 361 809 375 814 q 340 794 347 804 q 332 772 333 785 q 331 742 331 758 l 331 676 l 643 676 l 643 764 q 696 924 643 868 q 872 981 749 981 q 949 976 915 981 q 1011 963 982 971 l 986 806 q 911 814 944 814 q 874 809 888 814 q 853 794 860 804 q 844 772 846 785 q 843 742 843 758 l 843 676 l 1321 676 l 1321 0 l 1121 0 m 1121 761 l 1121 974 l 1321 974 l 1321 761 l 1121 761 z "},"ﬄ":{"ha":1406,"x_min":28,"x_max":1315,"o":"m 1115 0 l 1115 953 l 1315 981 l 1315 0 l 1115 0 m 1000 804 q 954 811 979 808 q 911 814 929 814 q 874 809 888 814 q 853 794 860 804 q 844 772 846 785 q 843 742 843 758 l 843 676 l 1003 676 l 989 517 l 843 517 l 843 0 l 643 0 l 643 517 l 331 517 l 331 0 l 131 0 l 131 517 l 28 517 l 28 676 l 131 676 l 131 764 q 183 924 131 868 q 360 981 236 981 q 439 976 403 981 q 506 963 475 971 l 481 806 q 438 812 460 810 q 399 814 417 814 q 361 809 375 814 q 340 794 347 804 q 332 772 333 785 q 331 742 331 758 l 331 676 l 643 676 l 643 764 q 696 924 643 868 q 872 981 749 981 q 950 975 915 981 q 1025 961 985 969 l 1000 804 z "},"\"":{"ha":526,"x_min":69,"x_max":457,"o":"m 69 953 l 207 953 l 207 608 l 69 608 l 69 953 m 319 953 l 457 953 l 457 608 l 319 608 l 319 953 z "},"!":{"ha":394,"x_min":97,"x_max":297,"o":"m 139 321 l 97 563 l 97 953 l 297 953 l 297 563 l 256 321 l 139 321 m 97 0 l 97 231 l 297 231 l 297 0 l 97 0 z "},"Ţ":{"ha":739,"x_min":17,"x_max":722,"o":"m 474 740 l 474 0 l 265 0 l 265 740 l 17 740 l 17 925 l 722 925 l 722 740 l 474 740 m 360 -421 l 285 -375 l 343 -262 l 285 -262 l 285 -68 l 453 -68 l 453 -274 l 360 -421 z "},"ţ":{"ha":500,"x_min":21,"x_max":467,"o":"m 461 11 q 390 -7 428 0 q 317 -14 351 -14 q 166 26 219 -14 q 113 160 113 65 l 113 515 l 21 515 l 21 676 l 113 676 l 113 839 l 313 867 l 313 676 l 467 676 l 456 515 l 313 515 l 313 188 q 324 158 313 167 q 354 150 335 150 q 393 153 371 150 q 438 163 415 156 l 461 11 l 461 11 m 269 -421 l 194 -375 l 253 -262 l 194 -262 l 194 -68 l 363 -68 l 363 -274 l 269 -421 z "},"Ș":{"ha":756,"x_min":63,"x_max":700,"o":"m 700 260 q 686 140 700 190 q 635 54 672 89 q 531 3 597 19 q 361 -14 465 -14 q 201 2 281 -14 q 63 46 122 18 l 97 207 q 226 175 161 188 q 364 163 292 163 q 429 167 404 163 q 468 183 454 171 q 487 213 482 194 q 492 261 492 232 q 489 311 492 292 q 471 343 486 331 q 424 365 456 356 q 336 388 393 375 q 202 426 253 406 q 124 477 151 446 q 88 557 97 508 q 79 681 79 606 q 93 799 79 750 q 143 878 107 847 q 241 924 179 910 q 399 939 303 939 q 531 932 460 939 q 679 908 601 925 l 658 733 q 522 753 579 747 q 401 760 464 760 q 344 756 367 760 q 310 743 322 753 q 292 717 297 733 q 288 675 288 700 q 290 623 288 642 q 308 592 293 604 q 353 572 322 581 q 438 550 383 563 q 583 505 531 528 q 663 451 636 482 q 694 374 689 419 q 700 260 700 328 m 368 -421 l 293 -375 l 351 -262 l 293 -262 l 293 -68 l 461 -68 l 461 -274 l 368 -421 z "},"ș":{"ha":601,"x_min":56,"x_max":553,"o":"m 553 201 q 541 109 553 149 q 500 42 529 69 q 422 0 471 14 q 301 -14 374 -14 q 241 -10 274 -14 q 176 -2 208 -7 q 112 10 143 3 q 56 26 81 18 l 88 175 q 182 153 129 163 q 292 144 235 144 q 349 158 336 144 q 361 201 361 171 q 359 228 361 218 q 347 245 357 238 q 314 260 336 253 q 251 276 292 267 q 154 308 190 292 q 100 349 118 325 q 77 407 82 374 q 72 488 72 440 q 84 580 72 542 q 125 642 96 618 q 204 678 154 667 q 331 690 254 690 q 376 689 350 690 q 430 685 401 688 q 486 678 458 682 q 536 668 514 674 l 518 513 q 423 526 474 521 q 332 532 372 532 q 274 521 288 532 q 260 486 260 510 q 262 461 260 471 q 272 444 264 451 q 298 433 281 438 q 346 421 315 428 q 460 387 418 404 q 522 345 501 369 q 548 286 543 321 q 553 201 553 251 m 292 -421 l 217 -375 l 275 -262 l 217 -262 l 217 -68 l 385 -68 l 385 -274 l 292 -421 z "},"Ț":{"ha":739,"x_min":17,"x_max":722,"o":"m 474 740 l 474 0 l 265 0 l 265 740 l 17 740 l 17 925 l 722 925 l 722 740 l 474 740 m 360 -421 l 285 -375 l 343 -262 l 285 -262 l 285 -68 l 453 -68 l 453 -274 l 360 -421 z "},"ț":{"ha":500,"x_min":21,"x_max":467,"o":"m 461 11 q 390 -7 428 0 q 317 -14 351 -14 q 166 26 219 -14 q 113 160 113 65 l 113 515 l 21 515 l 21 676 l 113 676 l 113 839 l 313 867 l 313 676 l 467 676 l 456 515 l 313 515 l 313 188 q 324 158 313 167 q 354 150 335 150 q 393 153 371 150 q 438 163 415 156 l 461 11 l 461 11 m 268 -421 l 193 -375 l 251 -262 l 193 -262 l 193 -68 l 361 -68 l 361 -274 l 268 -421 z "}}}
